<?xml version="1.0" encoding="UTF-8" standalone="no"?>
<!-- Created with Inkscape (http://www.inkscape.org/) -->

<svg
   width="210mm"
   height="297mm"
   viewBox="0 0 210 297"
   version="1.1"
   id="svg558"
   xml:space="preserve"
   inkscape:version="1.2.2 (732a01da63, 2022-12-09)"
   sodipodi:docname="decorations.svg"
   xmlns:inkscape="http://www.inkscape.org/namespaces/inkscape"
   xmlns:sodipodi="http://sodipodi.sourceforge.net/DTD/sodipodi-0.dtd"
   xmlns="http://www.w3.org/2000/svg"
   xmlns:svg="http://www.w3.org/2000/svg"><sodipodi:namedview
     id="namedview560"
     pagecolor="#ffffff"
     bordercolor="#666666"
     borderopacity="1.0"
     inkscape:showpageshadow="2"
     inkscape:pageopacity="0.0"
     inkscape:pagecheckerboard="0"
     inkscape:deskcolor="#d1d1d1"
     inkscape:document-units="mm"
     showgrid="false"
     inkscape:zoom="0.74564394"
     inkscape:cx="397.64288"
     inkscape:cy="561.9304"
     inkscape:window-width="1920"
     inkscape:window-height="1017"
     inkscape:window-x="-8"
     inkscape:window-y="-8"
     inkscape:window-maximized="1"
     inkscape:current-layer="layer1" /><defs
     id="defs555" /><g
     inkscape:label="Layer 1"
     inkscape:groupmode="layer"
     id="layer1"><path
       style="fill:#0000ff;stroke-width:0.215618"
       d="m 81.945788,204.93398 c -3.711911,-0.95578 -5.037308,-5.71293 -2.279542,-8.18178 0.740561,-0.66299 2.037898,-1.22258 2.834343,-1.22258 0.486543,0 0.558764,-0.0911 0.558764,-0.7047 0,-1.01621 0.627436,-1.4902 1.77757,-1.34295 1.37661,0.17642 1.753217,0.62013 1.753217,2.06631 0,1.00389 0.124196,1.40814 0.708067,2.30485 0.932665,1.43239 1.110038,3.29131 0.434635,4.55521 -0.689506,1.29035 -2.003315,2.30647 -3.334596,2.57905 -1.330416,0.27236 -1.174118,0.27578 -2.452458,-0.0535 z m 52.751282,-6.57782 c -1.30816,-0.71034 -1.90453,-1.42452 -2.33841,-2.80043 -0.5939,-1.88333 0.0779,-3.92799 1.65484,-5.03597 0.58099,-0.40826 0.68357,-0.61678 0.68357,-1.38942 0,-1.07616 0.45358,-1.56644 1.61573,-1.74647 1.51421,-0.23464 2.57709,0.33336 2.57709,1.3771 0,0.39227 0.35233,0.95233 1.10899,1.76283 1.3309,1.42557 1.75975,2.32958 1.75975,3.70929 0,3.52561 -3.93288,5.82194 -7.06156,4.12307 z m 31.86416,-0.95486 c -1.14896,-0.25239 -2.67501,-1.49035 -3.20168,-2.59727 -0.79237,-1.66548 -0.39299,-3.94513 0.88437,-5.04797 0.48521,-0.41897 0.62432,-1.27046 0.24423,-1.49479 -0.38711,-0.22843 -0.2484,-1.55367 0.20825,-1.98967 0.5323,-0.50816 1.87183,-0.76721 2.51179,-0.48576 0.29182,0.12839 0.63093,0.62433 0.86598,1.26659 0.31472,0.85998 0.53973,1.12355 1.21371,1.42189 2.58679,1.145 3.7467,3.18367 3.15383,5.54313 -0.6149,2.44703 -3.24786,3.96213 -5.8805,3.38385 z M 42.343106,190.92319 c -3.636232,-1.57706 -3.663719,-6.56123 -0.04592,-8.32764 1.22633,-0.59873 1.26153,-0.64015 1.26153,-1.48375 0,-1.24313 0.481884,-1.80427 1.549458,-1.80427 1.008153,0 1.198573,0.24285 1.420365,1.81168 0.132898,0.93999 0.27717,1.17431 1.153874,1.87394 2.874731,2.29412 2.293353,6.29993 -1.135583,7.82432 -1.355006,0.60237 -2.965208,0.64288 -4.203721,0.10576 z m 52.566348,-13.21497 c -2.871769,-1.42683 -3.382241,-5.30879 -0.97016,-7.37788 0.52529,-0.45062 1.13878,-0.91937 1.36333,-1.04169 0.35444,-0.1931 0.37535,-0.31242 0.15873,-0.90577 -0.32213,-0.88218 -0.1079,-1.87767 0.48285,-2.24431 0.36123,-0.22418 0.69821,-0.24135 1.49936,-0.0771 1.23552,0.2536 1.55249,0.5698 1.61569,1.6117 0.0261,0.43142 0.0615,0.98515 0.0785,1.23047 0.0183,0.26513 0.37787,0.66525 0.886426,0.98656 1.15977,0.73272 2.01321,2.37927 2.01321,3.88408 0,3.42596 -3.861126,5.55692 -7.127876,3.93386 z m 32.437406,-5.43843 c -2.00419,-0.52326 -3.46282,-2.39527 -3.46282,-4.44414 0,-1.43362 0.53723,-2.52616 1.72407,-3.5062 0.4711,-0.38905 0.92916,-0.99173 1.01785,-1.33936 0.23719,-0.9294 0.75201,-1.3694 1.60253,-1.3694 1.24375,0 2.26404,0.52329 2.41376,1.23792 0.0793,0.37818 0.47013,0.8849 0.99086,1.28439 1.2353,0.94776 1.83031,2.14821 1.83031,3.69265 0,3.16503 -2.91199,5.28081 -6.11656,4.44414 z m -57.967714,-5.92724 c -1.108781,-0.4752 -1.753172,-1.10952 -2.345711,-2.30908 -1.069134,-2.16446 -0.333906,-4.61382 1.792449,-5.97134 1.102987,-0.70419 1.103346,-0.70478 1.027365,-1.7452 -0.0969,-1.32671 0.188646,-1.65858 1.427069,-1.65858 1.249909,0 1.726729,0.4574 2.089301,2.00411 0.212473,0.90641 0.43888,1.31096 0.924649,1.65221 1.803497,1.26687 2.394149,4.09043 1.260453,6.02546 -0.302479,0.51627 -0.976288,1.22445 -1.497347,1.5737 -0.786328,0.52705 -1.198967,0.64554 -2.427408,0.69703 -0.992725,0.0416 -1.733825,-0.0468 -2.25082,-0.26831 z m 65.207604,-16.92918 c -1.78184,-0.78757 -2.82558,-2.44376 -2.81282,-4.46327 0.008,-1.23775 0.53666,-2.52185 1.31546,-3.19425 0.37327,-0.32227 0.41333,-0.58596 0.32712,-2.15435 l -0.0984,-1.7871 0.75793,-0.7236 c 1.55346,-1.4831 3.84309,-1.44043 4.64784,0.0866 0.2583,0.4903 0.38596,1.22367 0.38619,2.22015 0,1.38902 0.0457,1.5291 0.68259,2.10674 1.04248,0.94553 1.57037,2.09755 1.57886,3.44579 0.0182,2.78263 -2.0299,4.85344 -4.79884,4.85344 -0.60912,0 -1.49881,-0.17468 -1.98607,-0.39017 z m -42.810774,-5.89893 c -1.755777,-0.77608 -2.762033,-2.34062 -2.753578,-4.28138 0.0067,-1.4567 0.587767,-2.63338 1.785745,-3.61396 0.532299,-0.43574 0.977972,-0.95187 0.990323,-1.14696 0.01302,-0.19509 0.03728,-0.71028 0.05524,-1.14481 0.04693,-1.13683 0.651959,-1.63273 1.991718,-1.63273 1.3453,0 1.60947,0.2815 1.81335,1.93242 0.1225,0.99103 0.26817,1.33784 0.67446,1.6048 2.55602,1.67939 3.0651,4.83735 1.12809,6.99778 -1.44083,1.60705 -3.76699,2.13273 -5.685261,1.28484 z M 125.0187,124.50963 c -1.73052,-0.8385 -2.92699,-3.15486 -2.57601,-4.9873 0.21868,-1.14153 1.10225,-2.47086 1.99112,-2.9953 0.71346,-0.42099 0.77428,-0.53733 0.77428,-1.48113 0,-1.26669 0.49779,-1.68016 2.02265,-1.68016 1.24054,0 1.72883,0.4877 1.72883,1.72685 0,0.64847 0.10891,0.84478 0.60683,1.09304 3.1096,1.55064 3.29021,6.05761 0.3215,8.02226 -1.30047,0.86065 -3.44184,0.99335 -4.8692,0.30174 z m -45.602362,-1.21366 c -1.079149,-0.46802 -2.175815,-1.62039 -2.537332,-2.66614 -0.147876,-0.42779 -0.226486,-1.33704 -0.174701,-2.02061 0.11536,-1.52264 0.959165,-2.79372 2.337548,-3.52121 0.835462,-0.44093 0.928062,-0.56905 0.928062,-1.28406 0,-1.14693 0.57601,-1.5794 1.912074,-1.43563 1.192409,0.1284 1.618713,0.53672 1.618713,1.55081 0,0.54819 0.235828,0.9053 1.190782,1.80315 0.856481,0.80529 1.265539,1.38514 1.457116,2.06548 0.460628,1.63578 -0.120929,3.68109 -1.360564,4.78501 -1.258881,1.12109 -3.697382,1.44936 -5.371698,0.7232 z m 15.835616,-20.06475 c -1.854761,-0.87651 -2.798789,-2.48209 -2.662321,-4.528078 0.11363,-1.70477 0.857291,-2.80142 2.499471,-3.68622 0.88849,-0.47872 1.2107,-0.77466 1.2107,-1.11203 0,-0.78622 0.61065,-1.39616 1.39777,-1.39616 1.00412,0 1.63903,0.50538 1.92865,1.53512 0.14935,0.53124 0.631896,1.27828 1.201616,1.86055 1.79816,1.83765 1.89981,4.301608 0.25596,6.205468 -1.322666,1.5319 -3.910286,2.02945 -5.831896,1.12135 z M 105.64717,83.888532 c -4.04929,-0.96767 -5.00555,-6.16672 -1.54515,-8.40069 0.6951,-0.44877 0.74026,-0.54659 0.64088,-1.38823 -0.0941,-0.79768 -0.0347,-0.95964 0.49926,-1.36066 0.74401,-0.55872 1.89236,-0.59293 2.38704,-0.0712 0.20016,0.21126 0.42773,0.82749 0.50553,1.36939 0.0777,0.54193 0.25751,0.98533 0.39961,0.98533 0.14205,0 0.58355,0.22916 0.98123,0.50933 2.22407,1.56653 2.74205,4.29143 1.23248,6.48402 -0.98633,1.43267 -3.33456,2.29472 -5.10088,1.87263 z"
       id="path574" /></g></svg>
