<?xml version="1.0" encoding="UTF-8" standalone="no"?>
<!-- Created with Inkscape (http://www.inkscape.org/) -->

<svg
   width="210mm"
   height="297mm"
   viewBox="0 0 210 297"
   version="1.1"
   id="svg5"
   xml:space="preserve"
   sodipodi:docname="fireplace.svg"
   inkscape:version="1.2.2 (732a01da63, 2022-12-09)"
   xmlns:inkscape="http://www.inkscape.org/namespaces/inkscape"
   xmlns:sodipodi="http://sodipodi.sourceforge.net/DTD/sodipodi-0.dtd"
   xmlns="http://www.w3.org/2000/svg"
   xmlns:svg="http://www.w3.org/2000/svg"><sodipodi:namedview
     id="namedview7"
     pagecolor="#ffffff"
     bordercolor="#666666"
     borderopacity="1.0"
     inkscape:showpageshadow="2"
     inkscape:pageopacity="0.0"
     inkscape:pagecheckerboard="0"
     inkscape:deskcolor="#d1d1d1"
     inkscape:document-units="mm"
     showgrid="false"
     inkscape:zoom="0.74564394"
     inkscape:cx="320.52832"
     inkscape:cy="561.9304"
     inkscape:window-width="1920"
     inkscape:window-height="1017"
     inkscape:window-x="-8"
     inkscape:window-y="-8"
     inkscape:window-maximized="1"
     inkscape:current-layer="layer1" /><defs
     id="defs2" /><g
     inkscape:label="Layer 1"
     inkscape:groupmode="layer"
     id="layer1"><path
       style="fill:#000000;stroke-width:0.352778"
       d="m 85.385242,201.69607 c -0.185416,-0.70904 -0.3567,-0.74134 -2.978502,-0.56164 -1.529973,0.10487 -3.019496,0.38796 -3.310043,0.6291 -0.42187,0.35011 -0.701383,0.34577 -1.387715,-0.0215 -0.675799,-0.36168 -1.973545,-0.39189 -6.07339,-0.14137 -9.064114,0.55384 -22.068998,0.39663 -25.322283,-0.30612 -1.552222,-0.33529 -4.76894,-0.68459 -7.148263,-0.77621 -5.151293,-0.19837 -6.644333,-0.75092 -5.220981,-1.9322 0.337257,-0.2799 1.060202,-0.33795 2.158133,-0.17331 l 1.65099,0.24758 -0.255372,-1.54558 c -0.140455,-0.85008 -0.238148,-2.65684 -0.217095,-4.01503 0.05718,-3.6888 -0.588182,-10.41391 -1.053106,-10.97411 -0.224203,-0.27014 -0.958643,-0.49117 -1.63209,-0.49117 h -1.22445 l 0.248314,3.31203 c 0.210132,2.80277 0.164007,3.35921 -0.299979,3.61887 -0.479845,0.26854 -0.501818,0.78379 -0.176014,4.12748 0.382144,3.92191 0.211737,4.77869 -0.868039,4.36434 -0.743853,-0.28544 -1.307058,-2.99369 -1.313994,-6.31852 -0.0034,-1.61183 -0.154771,-4.35934 -0.336465,-6.10559 -0.181694,-1.74625 -0.21863,-4.28625 -0.08208,-5.64444 0.212002,-2.1087 0.346692,-2.46945 0.921989,-2.46945 0.483694,0 0.784267,0.39401 1.065659,1.39694 0.284668,1.0146 0.63132,1.4636 1.266559,1.64053 1.667047,0.46429 10.980336,0.3112 15.617766,-0.25673 4.059273,-0.49712 5.591408,-0.51544 11.891574,-0.14214 13.281145,0.78692 14.897396,0.81091 22.550105,0.33479 4.186816,-0.26049 8.326769,-0.40418 9.199894,-0.31932 2.718597,0.26421 6.645464,0.16254 13.052776,-0.33795 l 6.17361,-0.48225 0.0191,-4.01733 0.0191,-4.01734 -2.66492,0.10179 -2.66492,0.10179 -0.11701,1.23331 c -0.0644,0.67831 -0.27732,1.42645 -0.47323,1.66251 -0.19592,0.23607 -0.44312,1.38764 -0.54935,2.55905 -0.16072,1.7725 -0.30328,2.12985 -0.84968,2.12985 -0.83358,0 -0.85538,-1.07981 -0.0959,-4.7521 0.30834,-1.491 0.49028,-2.78124 0.40432,-2.86721 -0.086,-0.086 -1.26734,-0.053 -2.62528,0.0732 l -2.46897,0.22947 -0.649652,3.65834 c -0.5603,3.15524 -0.74332,3.65834 -1.33083,3.65834 -0.5693,0 -0.646287,-0.17449 -0.468713,-1.06237 0.699943,-3.49969 1.036103,-5.65595 0.902593,-5.78946 -0.084,-0.084 -1.420979,-0.18991 -2.971052,-0.23535 l -2.818321,-0.0826 -0.222846,1.02726 c -0.122562,0.56499 -0.241624,2.17819 -0.264583,3.58489 -0.03588,2.19886 -0.12959,2.55764 -0.66801,2.55764 -0.568787,0 -0.613688,-0.34 -0.489154,-3.70417 l 0.137117,-3.70416 h -2.353888 c -1.294638,0 -2.26931,0.13685 -2.165939,0.3041 0.103371,0.16726 -0.0398,0.92132 -0.318156,1.6757 -0.27836,0.75437 -0.682322,2.2844 -0.897696,3.40006 -0.323857,1.67761 -0.515916,2.02847 -1.110379,2.02847 -0.610489,0 -0.680536,-0.14617 -0.464919,-0.97014 0.139626,-0.53357 0.469802,-1.98028 0.733725,-3.2149 0.26392,-1.23463 0.662577,-2.46494 0.885903,-2.73403 0.339217,-0.40873 0.02396,-0.48926 -1.915329,-0.48926 h -2.32138 l -0.859709,1.4993 c -0.472839,0.82462 -1.233593,2.48917 -1.690564,3.69899 -0.580492,1.53684 -1.016893,2.20125 -1.44822,2.20486 -0.854375,0.007 -0.802619,-0.25931 0.749685,-3.85991 1.603823,-3.7201 1.590763,-3.73837 -2.392059,-3.34592 -1.789053,0.17629 -2.400583,0.36403 -2.272556,0.69767 0.261144,0.68053 -1.658045,6.18912 -2.233175,6.40982 -0.944693,0.36252 -0.910763,-0.24049 0.191082,-3.39585 0.608482,-1.74252 1.106329,-3.26523 1.106329,-3.38382 0,-0.11859 -4.047603,-0.1662 -8.994672,-0.1058 -6.570313,0.0802 -8.994987,0.2211 -8.995833,0.52267 -0.0018,0.59458 -3.87506,6.13313 -4.441123,6.35035 -1.28155,0.49178 -1.010705,-0.34097 1.109669,-3.41181 l 2.314088,-3.35139 -1.873147,-0.22969 c -4.384157,-0.53761 -4.1217,-0.68069 -6.138344,3.34645 -1.386721,2.76921 -1.976624,3.61266 -2.589833,3.70297 -0.733065,0.10797 -0.649296,-0.15406 1.090196,-3.41005 1.036353,-1.93985 1.803938,-3.6074 1.705744,-3.70567 -0.09819,-0.0983 -1.169756,-0.29081 -2.38125,-0.42787 -1.757241,-0.19882 -2.202943,-0.15082 -2.203839,0.23732 -6e-4,0.2676 -0.618867,1.41568 -1.373889,2.55129 -0.755021,1.1356 -1.651751,2.68342 -1.992732,3.43958 -0.470393,1.04315 -0.823986,1.37484 -1.465599,1.37484 h -0.845632 l 1.314731,-2.38125 c 0.723103,-1.30969 1.764879,-3.04795 2.315059,-3.86281 l 1.000327,-1.48156 -2.03321,-0.10594 c -1.525027,-0.0795 -2.03321,-0.2382 -2.03321,-0.63511 0,-0.43832 0.617934,-0.52251 3.599664,-0.49043 l 3.599664,0.0387 0.544149,-1.59699 c 0.299281,-0.87834 0.808355,-1.88893 1.131275,-2.24575 0.322919,-0.35682 0.509066,-0.72683 0.41366,-0.82224 -0.162868,-0.16286 -4.565827,1.20852 -6.113412,1.90414 -1.678536,0.75447 -6.964139,2.54204 -10.054166,3.40026 -4.283752,1.18978 -4.538789,1.39513 -3.316805,2.67061 0.730186,0.76214 1.163001,0.94146 1.911207,0.79182 1.165172,-0.23303 1.582765,0.29853 1.036453,1.31933 -0.248375,0.46409 -0.276211,0.87628 -0.07291,1.07958 0.203303,0.20331 0.745344,-0.45094 1.419678,-1.71356 1.198531,-2.24413 3.288861,-4.84517 4.350397,-5.41328 0.525067,-0.28101 0.728066,-0.23763 0.892441,0.19073 0.139235,0.36284 -0.399582,1.20195 -1.558978,2.42785 -1.8201,1.92448 -4.143828,5.98366 -3.770877,6.58711 0.116707,0.18884 -0.277613,0.33876 -0.890991,0.33876 h -1.100355 l 0.109396,6.99785 c 0.0882,5.64202 0.01246,7.11532 -0.390914,7.60417 -0.449336,0.54455 -0.296577,0.79593 1.499306,2.46728 1.099788,1.02353 1.999616,2.12603 1.999616,2.45 0,1.01369 -1.347675,0.66088 -2.918299,-0.76397 -0.820283,-0.74415 -2.392691,-2.01063 -3.49424,-2.8144 -1.101548,-0.80376 -2.103105,-1.62366 -2.22568,-1.82199 -0.122576,-0.19834 -0.545576,-0.36061 -0.94,-0.36061 -0.674901,0 -1.470193,-0.50439 -3.748487,-2.37736 l -0.960794,-0.78986 0.75398,-0.62125 c 0.689158,-0.56784 0.774668,-1.09135 0.994614,-6.0893 0.132348,-3.00743 0.394562,-6.16738 0.582697,-7.0221 0.188135,-0.85472 0.396985,-2.8391 0.464111,-4.40972 0.102535,-2.39915 0.231783,-2.91252 0.808467,-3.21122 0.377532,-0.19554 0.620717,-0.55265 0.540412,-0.79357 -0.0803,-0.24091 0.06563,-0.50533 0.324299,-0.5876 0.25867,-0.0823 3.804059,-1.12266 7.878642,-2.31197 10.797202,-3.15156 14.365387,-4.22739 15.257638,-4.60029 0.634146,-0.26504 0.79375,-0.61335 0.79375,-1.73224 0,-1.01633 0.249555,-1.66977 0.909772,-2.38216 0.76153,-0.8217 0.87861,-1.21268 0.71852,-2.39942 -0.105188,-0.77977 -0.288848,-3.79902 -0.408132,-6.70943 -0.119285,-2.91042 -0.443555,-7.77656 -0.720601,-10.81364 -0.277047,-3.03709 -0.408482,-5.77017 -0.292077,-6.07351 0.116405,-0.30335 -0.06778,-2.50159 -0.409305,-4.88497 -0.341522,-2.38339 -0.648824,-6.55594 -0.682894,-9.27233 -0.03407,-2.71639 -0.262039,-7.32014 -0.506597,-10.23055 -0.244559,-2.91042 -0.413159,-7.367756 -0.374668,-9.905196 l 0.06998,-4.61354 -1.175997,-0.33727 c -1.491489,-0.42776 -2.055067,-1.53566 -2.061693,-4.05297 l -0.0052,-1.97565 -3.201822,-0.22727 c -1.860848,-0.13209 -3.468482,-0.0846 -3.838522,0.11348 -0.350184,0.18741 -2.093077,0.29122 -3.873094,0.23068 -3.639735,-0.12379 -4.308294,-0.48394 -4.47606,-2.41122 -0.05567,-0.63949 -0.196915,-1.63896 -0.313887,-2.22104 -0.172723,-0.85952 -0.0071,-1.28099 0.881662,-2.24358 1.044653,-1.13142 1.177726,-1.1752 2.930948,-0.96416 1.010135,0.12159 4.297234,0.0551 7.304664,-0.14779 6.986608,-0.47132 17.151053,-0.44153 20.108333,0.0589 1.26118,0.21343 6.738055,0.44152 12.170833,0.50685 5.432777,0.0653 15.989652,0.24448 23.459721,0.39809 9.818113,0.20189 14.950603,0.16068 18.520833,-0.14873 2.71639,-0.23541 9.14576,-0.52204 14.2875,-0.63695 5.25017,-0.11734 11.20451,-0.45554 13.58194,-0.77144 3.50648,-0.46593 5.56589,-0.50836 11.99444,-0.24714 4.26861,0.17345 11.72986,0.26448 16.58056,0.20227 4.85069,-0.0622 10.48632,0.053 12.52361,0.2559 2.03729,0.20293 5.36266,0.53087 7.3897,0.72875 2.02704,0.19788 3.9636,0.44803 4.30348,0.5559 0.79846,0.25343 1.18048,1.46601 0.65958,2.09365 -0.31522,0.37982 -0.24315,0.65101 0.32363,1.21779 0.89214,0.89213 0.90277,1.14215 0.0912,2.14437 -0.62927,0.77711 -0.69299,0.78243 -4.69299,0.39185 -2.23027,-0.21777 -5.58303,-0.39595 -7.45057,-0.39595 h -3.39551 l -0.2001,1.85208 c -0.11006,1.01865 -0.273,2.64268 -0.3621,3.60896 -0.17832,1.93394 -0.93606,2.80774 -2.16734,2.49934 -0.72139,-0.18069 -0.74374,-0.046 -0.965,5.8143 -0.12458,3.29959 -0.4542,8.177936 -0.73249,10.840766 -0.97971,9.37444 -1.62585,17.26133 -1.98622,24.24427 -0.20027,3.88056 -0.5121,7.69056 -0.69295,8.46667 -0.18086,0.77611 -0.43364,3.87173 -0.56173,6.87916 -0.2315,5.43522 -0.22733,5.47844 0.69352,7.19629 0.50953,0.95054 0.92642,2.01273 0.92642,2.36043 0,0.34771 0.15875,0.73031 0.35277,0.85023 0.19403,0.11991 0.35278,0.59219 0.35278,1.04951 0,0.6912 0.53482,1.10567 3.16995,2.45661 2.37061,1.21534 3.39905,1.56763 4.07855,1.39709 0.71235,-0.17879 0.94704,-0.0811 1.08657,0.45249 0.12243,0.46816 0.80378,0.86532 2.18325,1.27263 1.10291,0.32566 4.14842,1.32277 6.76779,2.2158 2.61938,0.89304 5.39613,1.73323 6.17056,1.86708 1.01396,0.17526 1.44379,0.43827 1.53573,0.9397 0.0702,0.38297 0.36495,0.96412 0.65497,1.29144 0.29002,0.32732 0.42674,0.75785 0.30382,0.95673 -0.29785,0.48193 0.74274,8.81646 1.16519,9.33253 0.18392,0.22468 0.22888,1.32891 0.10112,2.48398 -0.22594,2.04276 -0.44863,2.37264 -1.90569,2.82288 -0.45234,0.13978 -0.61737,0.56536 -0.61737,1.59213 0,1.55646 -0.46573,2.08121 -1.2612,1.42103 -0.42662,-0.35407 -0.61952,-0.31027 -1.03166,0.23421 -0.2788,0.36834 -0.51197,0.78877 -0.51814,0.93429 -0.006,0.14552 -0.62141,0.87478 -1.36721,1.62058 -0.74579,0.74579 -1.4562,1.85704 -1.57868,2.46944 -0.13674,0.68374 -0.43708,1.11346 -0.77819,1.11346 -0.30553,0 -1.01371,0.23694 -1.57374,0.52654 -0.91024,0.47071 -1.07709,0.4677 -1.57313,-0.0284 -0.49101,-0.491 -0.72718,-0.49767 -2.05106,-0.0579 -1.08579,0.36065 -1.52785,0.713 -1.61171,1.28464 -0.16816,1.14626 -1.11021,1.36176 -1.86706,0.42709 -0.54633,-0.6747 -0.85545,-0.75528 -2.1517,-0.5609 -1.4179,0.21263 -1.51359,0.29785 -1.51191,1.34642 0.001,0.89457 -0.15843,1.14218 -0.79578,1.23267 -0.64453,0.0915 -0.83913,-0.0947 -1.01424,-0.97014 l -0.21667,-1.08336 h -3.1309 -3.1309 v 1.02059 c 0,0.56133 -0.19844,1.09357 -0.44098,1.18276 -0.85752,0.31535 -1.32291,-0.15985 -1.32291,-1.3508 v -1.20533 h -2.79769 c -2.63272,0 -2.80433,0.0468 -2.91042,0.79375 -0.074,0.52099 -0.35518,0.79375 -0.81828,0.79375 -0.46309,0 -0.74429,-0.27276 -0.81828,-0.79375 -0.0801,-0.56389 -0.35087,-0.79375 -0.93505,-0.79375 -1.02279,0 -9.32916,1.23147 -12.88694,1.91056 -1.45521,0.27777 -4.50223,0.61756 -6.77117,0.75508 -2.98346,0.18084 -4.17656,0.38359 -4.31046,0.73249 -0.25165,0.65583 -1.07525,0.60769 -1.66012,-0.097 -0.42124,-0.50758 -1.13434,-0.55435 -5.74824,-0.37703 -4.27266,0.16421 -5.32582,0.30694 -5.57704,0.75585 -0.39305,0.70235 -1.29259,0.71635 -1.55817,0.0242 -0.14871,-0.38753 -0.75949,-0.52917 -2.28199,-0.52917 -1.15076,1e-5 -2.07892,0.15752 -2.07892,0.35279 0,0.44886 -1.30101,0.46354 -1.57651,0.0178 -0.11386,-0.18424 -1.03605,-0.25686 -2.04929,-0.16137 -5.63676,0.53121 -5.42401,0.47966 -5.39615,1.30774 0.0361,1.07224 -1.26998,1.04219 -1.73777,-0.04 -0.27835,-0.64392 -0.53884,-0.77138 -1.23472,-0.60412 -0.48507,0.11658 -4.401252,0.30691 -8.70262,0.42295 -7.236481,0.19522 -7.833515,0.26011 -7.992667,0.86871 -0.234774,0.89777 -1.316835,0.83214 -1.559176,-0.0946 z m -27.67538,-8.94908 c 0.05922,-4.07459 0.0069,-8.40052 -0.116272,-9.6132 l -0.22394,-2.20486 h -2.794141 c -3.254738,0 -3.139993,-0.22051 -2.264918,4.35256 0.339143,1.77233 0.529107,4.88598 0.529107,8.67246 0,3.24906 0.112547,6.01994 0.250105,6.1575 0.137559,0.13755 1.209122,0.2037 2.38125,0.14698 l 2.131145,-0.10311 z m 6.6623,7.10596 c 0.261387,-0.26139 0.161248,-16.97093 -0.10601,-17.68929 -0.385946,-1.0374 -0.820286,-1.22334 -2.871593,-1.22933 l -1.852083,-0.005 v 9.7524 9.75241 l 2.343266,-0.21882 c 1.288799,-0.12035 2.407687,-0.28324 2.48642,-0.36197 z M 50.855323,198.8765 c 0.577762,-2.8888 0.1241,-11.23655 -0.85774,-15.78313 l -0.408686,-1.8925 -1.807559,0.23978 c -0.99416,0.13188 -1.927173,0.42788 -2.073365,0.65778 -0.561684,0.8833 -0.01895,16.49187 0.594792,17.1056 0.234206,0.23421 2.375143,0.69859 3.40603,0.73879 0.766301,0.0299 0.964075,-0.15406 1.146528,-1.06632 z m 20.188251,0.61471 c 0.01968,-0.0228 -0.08279,-2.74019 -0.227753,-6.03867 -0.302881,-6.89169 -0.937864,-11.81625 -1.524346,-11.82194 -0.220214,-0.002 -0.959834,-0.0965 -1.643602,-0.20961 l -1.24321,-0.20573 0.08443,8.23531 c 0.04644,4.52942 0.08994,8.75913 0.09668,9.39935 l 0.01224,1.16405 2.204861,-0.24067 c 1.212673,-0.13236 2.220979,-0.2593 2.240682,-0.28209 z m 6.047779,-8.33172 c 0.04751,-4.55965 -0.03186,-8.46897 -0.176389,-8.68737 -0.144523,-0.2184 -1.353573,-0.46527 -2.68678,-0.54861 l -2.424011,-0.15152 0.230819,2.13611 c 0.126951,1.17486 0.367775,5.02169 0.535164,8.54851 0.16739,3.52681 0.414458,6.59055 0.549039,6.80831 0.144685,0.23411 0.988737,0.35279 2.065235,0.29038 l 1.820545,-0.10553 z m 8.045989,2.38125 c -0.39333,-10.59959 -0.556433,-12.33114 -1.140418,-12.10705 -0.287796,0.11044 -1.50247,0.20081 -2.699275,0.20082 l -2.176007,1e-5 -0.08727,5.90901 c -0.048,3.24996 0.0059,7.2187 0.119863,8.81943 l 0.207137,2.91042 h 2.99435 2.994353 z m 12.944596,3.0868 c 0.46009,-4.31878 0.45927,-13.31356 -10e-4,-14.37569 -0.397312,-0.91623 -0.548607,-0.97014 -2.722477,-0.97014 h -2.301688 l -0.04123,6.08542 c -0.02268,3.34698 -0.141742,7.11729 -0.264583,8.37847 -0.193192,1.98342 -0.318622,2.29305 -0.928906,2.29305 -0.685955,0 -0.705556,-0.23518 -0.705556,-8.46666 v -8.46667 L 89.02,181.20272 c -1.153075,0.0536 -2.146272,0.1472 -2.207105,0.20804 -0.06084,0.0608 -0.0047,4.1088 0.124718,8.99549 l 0.235327,8.88487 5.32317,-0.0971 5.323166,-0.0971 z m -54.183671,-0.61736 c -0.124609,-1.60073 -0.227513,-5.41073 -0.228676,-8.46666 l -0.0021,-5.55625 h -2.684077 -2.684077 l 0.233565,0.93059 c 0.246236,0.98108 0.871373,10.65762 0.890199,13.77944 l 0.01106,1.83365 1.852083,0.12957 c 1.018646,0.0713 2.074051,0.15893 2.345343,0.19482 0.403601,0.0534 0.452078,-0.46377 0.266698,-2.84516 z m 60.323453,2.42045 c 0.0291,-0.0216 0.16972,-3.99239 0.31255,-8.82408 l 0.25969,-8.78488 -2.41747,0.24768 c -1.32961,0.13622 -2.453522,0.28372 -2.497582,0.32778 -0.0441,0.044 0.0845,0.79017 0.285692,1.65803 0.23389,1.00896 0.27801,4.15642 0.12234,8.72879 l -0.24345,7.15085 2.06269,-0.23249 c 1.13448,-0.12787 2.08647,-0.25013 2.11554,-0.27168 z m 7.47945,-0.44842 1.88786,-0.2267 -0.23126,-4.26815 c -0.28066,-5.17993 -1.17526,-12.62339 -1.56386,-13.012 -0.15561,-0.1556 -1.31757,-0.17692 -2.58213,-0.0474 l -2.2992,0.23556 -0.22927,5.15977 c -0.1261,2.83787 -0.32854,6.78696 -0.44986,8.77574 l -0.22059,3.61597 1.90022,-0.003 c 1.04513,-0.002 2.74977,-0.10508 3.78809,-0.22977 z m 8.09544,-0.65181 c 0.058,-0.0499 -0.0665,-1.73661 -0.27664,-3.7482 -0.21019,-2.01159 -0.54486,-5.40368 -0.74371,-7.53799 -0.19885,-2.13431 -0.48498,-4.3568 -0.63585,-4.93889 -0.26522,-1.02325 -0.33641,-1.05563 -2.14796,-0.97682 -1.0305,0.0448 -1.91866,0.12653 -1.97368,0.18154 -0.055,0.055 0.12587,1.60584 0.40198,3.44627 0.2761,1.84043 0.59593,5.56873 0.71073,8.28512 0.1148,2.71639 0.2743,5.14882 0.35443,5.40541 0.11072,0.35454 0.63287,0.40744 2.17543,0.22041 1.11636,-0.13535 2.07723,-0.28694 2.13527,-0.33685 z m 6.5115,-2.37855 c -0.0599,-1.4067 -0.27207,-4.10155 -0.47161,-5.98856 -0.19953,-1.887 -0.25244,-4.79097 -0.11756,-6.45326 l 0.24523,-3.02235 -2.96015,0.10327 c -2.9128,0.10161 -2.95922,0.11737 -2.90155,0.98521 0.0322,0.48506 0.31474,3.18381 0.6278,5.99722 0.31307,2.8134 0.66746,6.42496 0.78755,8.02569 l 0.21834,2.91042 h 2.34038 2.34039 z m 6.25936,0.87269 c 0,-0.92672 -0.17053,-3.03016 -0.37896,-4.67431 -0.20842,-1.64414 -0.48624,-4.89435 -0.61736,-7.22269 l -0.2384,-4.23333 -1.90079,-0.10832 -1.90078,-0.10832 0.27237,6.28193 c 0.1498,3.45506 0.29078,7.51238 0.31328,9.01626 l 0.0409,2.73433 2.20486,-3e-4 2.20486,-3e-4 z m 7.49475,-3.16526 c -0.0916,-4.57925 -0.5457,-8.94332 -1.21144,-11.64215 l -0.36984,-1.49931 h -2.65229 -2.65229 l 0.23313,3.43959 c 0.29907,4.41244 0.92435,11.57371 1.13969,13.05277 l 0.16693,1.14653 2.71804,3.5e-4 2.71805,3.6e-4 -0.09,-4.49841 z m 4.84733,3.91638 1.14137,-0.22828 -0.22088,-3.56408 c -0.12148,-1.96025 -0.3154,-5.733 -0.43091,-8.38389 -0.23603,-5.41647 -0.11485,-5.21958 -3.21846,-5.22955 -1.74434,-0.006 -1.72013,-0.1045 -0.99178,4.05213 0.272,1.55222 0.54688,5.24273 0.61086,8.20114 l 0.11634,5.37893 0.92604,10e-4 c 0.50932,3.6e-4 1.43966,-0.10178 2.06742,-0.22733 z m 7.57853,-7.94255 c -0.1404,-3.6582 -0.36001,-7.16599 -0.48801,-7.79509 -0.23184,-1.13936 -0.24195,-1.14421 -2.60073,-1.24812 l -2.36798,-0.10431 v 3.31005 c 0,1.82052 0.23907,4.88371 0.53126,6.80709 0.29219,1.92337 0.43724,4.14291 0.32232,4.93231 l -0.20893,1.43527 2.53367,-0.34296 2.53366,-0.34297 z m 5.78094,5.83892 c 0.65667,-0.13402 0.78753,-0.33248 0.62463,-0.94729 -0.11335,-0.42776 -0.38892,-3.63525 -0.61238,-7.12775 -0.22346,-3.4925 -0.44815,-6.39943 -0.4993,-6.45985 -0.0511,-0.0604 -1.00783,-0.20427 -2.12596,-0.31967 -2.02165,-0.20866 -2.03149,-0.2051 -1.76738,0.63902 0.14608,0.46685 0.33985,3.78571 0.4306,7.37522 0.0907,3.58951 0.22606,6.71619 0.30069,6.94817 0.12847,0.39938 1.33901,0.3636 3.6491,-0.10785 z m 8.34264,-4.10629 c -0.22453,-3.83193 -1.00947,-10.04649 -1.30348,-10.32 -0.0598,-0.0557 -1.28261,-0.0155 -2.71732,0.0893 l -2.60855,0.19046 0.2198,5.5052 c 0.12089,3.02786 0.32251,6.17284 0.44804,6.98883 l 0.22824,1.48362 2.16051,0.1241 c 1.18829,0.0683 2.53525,0.15469 2.99325,0.19207 l 0.83274,0.068 z m 7.72224,3.76351 c 0.11777,-0.30691 0.21413,-3.53786 0.21413,-7.17988 v -6.62185 l -3.39967,-0.23897 c -1.86982,-0.13144 -3.48104,-0.15761 -3.58048,-0.0582 -0.0994,0.0995 0.0101,1.33449 0.24338,2.74455 0.23332,1.41005 0.51964,4.66716 0.63628,7.23803 l 0.21208,4.67431 h 2.73007 c 2.16404,0 2.77447,-0.1157 2.94421,-0.55802 z m 5.68115,-6.05657 c -0.27712,-6.85178 -0.47895,-7.49652 -2.3467,-7.49652 h -1.00365 v 6.50885 c 0,7.23296 -0.005,7.21679 2.41917,7.23875 l 1.18444,0.0107 z m 4.05798,5.06897 1.5875,-0.47657 -0.0391,-1.89932 c -0.0638,-3.09925 -0.49043,-9.60198 -0.63981,-9.75137 -0.0761,-0.0761 -0.83808,-0.0335 -1.69327,0.0948 l -1.55487,0.23317 0.12468,4.99677 c 0.10966,4.39452 0.33116,7.30108 0.55514,7.28447 0.0397,-0.003 0.78658,-0.21982 1.65971,-0.48193 z m 5.09912,-2.20928 c 1.05662,-1.38382 1.25056,-1.91797 1.24884,-3.43958 -0.003,-2.63991 -0.55045,-5.54808 -1.42873,-7.5897 -1.03795,-2.41278 -1.74423,-2.37722 -1.74423,0.0878 0,2.73798 0.44444,12.5797 0.56808,12.5797 0.0578,0 0.66805,-0.7372 1.35604,-1.63823 z M 26.284663,183.43539 c -0.07329,-8.07706 -0.133661,-8.84207 -0.751723,-9.525 -0.992968,-1.09718 -1.268241,-0.91879 -1.268241,0.82187 0,0.86044 -0.242052,2.71511 -0.537893,4.12149 -0.295841,1.40638 -0.693159,4.45744 -0.882927,6.78013 -0.337677,4.13304 -0.328558,4.23509 0.427673,4.78615 0.671329,0.48919 2.786767,1.741 3.013111,1.783 0.04383,0.008 0.04383,-3.9373 0,-8.76764 z m -5.215294,0.74186 c 0.01118,-1.02682 0.254842,-3.0112 0.541467,-4.40972 0.286626,-1.39852 0.672573,-3.89214 0.857661,-5.54137 0.280084,-2.49571 0.246341,-3.13806 -0.201202,-3.83008 -0.297165,-0.45949 -0.671754,-0.69622 -0.837318,-0.52916 -0.283287,0.28584 -0.447311,3.35883 -0.260924,4.8884 0.04729,0.38806 -0.0251,2.05493 -0.160861,3.70417 -0.416261,5.05681 -0.567265,10.57406 -0.24621,8.99583 0.157881,-0.77611 0.296205,-2.25124 0.307387,-3.27807 z m 171.822171,-3.11261 c -0.52361,-5.35616 -0.94718,-7.58501 -1.55742,-8.19525 -0.41438,-0.41438 -0.7512,-0.12569 -2.25418,1.9321 -0.97186,1.3306 -1.687,2.54874 -1.5892,2.70697 0.0978,0.15823 0.37773,0.0143 0.62208,-0.3199 0.25928,-0.35458 0.67926,-0.51743 1.00853,-0.39108 1.17546,0.45107 3.06557,5.59202 3.06557,8.33811 0,1.12653 0.0494,1.18676 0.55724,0.67896 0.49275,-0.49275 0.50981,-1.04253 0.14738,-4.74991 z m -8.78726,-2.10802 c 0.70024,-0.19461 0.84295,-2.43014 0.21258,-3.33011 -1.43917,-2.05471 -4.8974,-5.54047 -6.74307,-6.79675 -1.97918,-1.34715 -3.21063,-1.66166 -4.18155,-1.06797 -0.15061,0.0921 0.50581,1.14769 1.45871,2.34577 2.12347,2.66982 5.34152,7.3143 5.34152,7.70919 0,0.15948 -0.28383,0.28996 -0.63073,0.28996 -0.38621,0 -1.21281,-0.88533 -2.13216,-2.28366 -2.50513,-3.81031 -5.39856,-7.24134 -6.10671,-7.24134 -1.0954,0 -0.7777,1.47233 0.80532,3.73216 0.8034,1.14689 1.7887,2.8004 2.18956,3.67446 0.40086,0.87407 0.78864,1.70828 0.86173,1.8538 0.0731,0.14552 -0.19515,0.26458 -0.59611,0.26458 -0.5265,0 -0.98662,-0.51449 -1.65636,-1.85208 -0.51004,-1.01865 -1.31656,-2.37067 -1.79227,-3.00449 -0.47571,-0.63383 -1.17382,-1.85073 -1.55137,-2.70424 l -0.68645,-1.55184 -2.5543,-0.23723 c -1.40488,-0.13047 -3.06334,-0.18356 -3.68548,-0.11798 l -1.13117,0.11925 1.84625,4.55252 c 1.75455,4.32644 1.89831,4.55658 2.89505,4.63437 0.57685,0.045 4.02666,0.20416 7.66624,0.35366 4.94997,0.20331 6.71978,0.39511 7.02358,0.76117 0.37881,0.45644 1.23449,0.42838 3.14719,-0.1032 z m -67.4118,-1.70246 c 0,-0.46889 -0.15107,-0.90546 -0.33572,-0.97014 -0.18464,-0.0647 -0.38308,-1.50522 -0.44097,-3.20121 -0.084,-2.46027 -0.21223,-3.08318 -0.63443,-3.08141 -1.35848,0.006 -1.58481,0.58721 -1.7078,4.38774 l -0.12031,3.71757 h 1.61962 c 1.4775,0 1.61961,-0.0748 1.61961,-0.85255 z m 46.59311,-0.82314 c -0.36784,-0.92164 -1.21391,-2.9457 -1.88014,-4.49792 l -1.21134,-2.82222 -2.17165,-0.10503 c -1.28673,-0.0622 -2.17165,0.0392 -2.17165,0.24881 0,0.19461 0.68998,1.98812 1.53329,3.98558 0.84332,1.99746 1.63208,3.90956 1.75282,4.24911 0.17863,0.50235 0.64781,0.61736 2.5185,0.61736 h 2.29898 z m -39.59137,1.09157 c 0.78078,-0.20903 0.81527,-0.33483 0.60313,-2.20004 -0.37116,-3.26349 -0.55287,-3.83726 -1.27503,-4.0261 -0.46156,-0.12071 -0.6854,-0.48511 -0.6854,-1.11583 0,-0.91363 -0.0411,-0.93109 -1.67569,-0.71224 -0.92164,0.12338 -1.84283,0.27486 -2.04711,0.33662 -0.22404,0.0677 -0.40548,1.66699 -0.45728,4.03061 l -0.0859,3.91832 2.39756,-0.005 c 1.31866,-0.003 2.77023,-0.10459 3.2257,-0.22653 z m 33.92048,-0.25822 c 0,-0.26925 -0.46185,-1.49957 -1.02634,-2.73402 -0.56448,-1.23446 -1.34009,-2.9777 -1.72356,-3.87385 l -0.69724,-1.62939 -1.84879,0.29226 c -1.01684,0.16074 -1.92345,0.36691 -2.01469,0.45815 -0.0913,0.0912 0.23347,1.1692 0.72159,2.39546 0.48813,1.22626 1.00057,2.86456 1.13876,3.64068 0.1382,0.77611 0.31916,1.53017 0.40214,1.67569 0.083,0.14552 1.25276,0.26458 2.5995,0.26458 1.85332,0 2.44863,-0.11902 2.44863,-0.48956 z m -26.46532,-0.48058 c -0.009,-0.75571 -0.62369,-5.18625 -0.90924,-6.54876 -0.18753,-0.89484 -0.25156,-0.93293 -0.6507,-0.38707 -0.48208,0.65927 -1.2553,0.40973 -1.2553,-0.40513 0,-0.60029 -2.99311,-0.73527 -3.35405,-0.15125 -0.19116,0.3093 0.089,2.97512 0.73178,6.96305 l 0.1848,1.14653 h 2.62984 c 2.2721,0 2.6289,-0.084 2.62287,-0.61737 z m 6.2307,0 c -0.0956,-0.33954 -0.27244,-1.17298 -0.39297,-1.85208 -0.12053,-0.6791 -0.47877,-2.24661 -0.7961,-3.48337 -0.46677,-1.81919 -0.6299,-2.10553 -0.85416,-1.4993 -0.39215,1.0601 -1.35826,0.96578 -1.35826,-0.13261 0,-0.77275 -0.15287,-0.88194 -1.23473,-0.88194 -0.7955,0 -1.23472,0.1678 -1.23472,0.47171 0,0.94553 1.03159,7.31351 1.23918,7.64939 0.11746,0.19006 1.24678,0.34557 2.50958,0.34557 2.01771,0 2.27494,-0.0748 2.12218,-0.61737 z m 7.53462,0.35339 c 0,-0.16072 -0.53008,-1.87364 -1.17794,-3.80648 -0.7945,-2.37032 -1.36868,-3.5514 -1.76389,-3.62833 -0.39435,-0.0768 -0.58595,0.12511 -0.58595,0.61736 0,1.02822 -1.00366,0.92116 -1.41111,-0.15052 -0.27294,-0.71788 -0.57428,-0.88194 -1.61992,-0.88194 -1.16201,0 -1.26365,0.0757 -1.06514,0.79375 0.12071,0.43656 0.49125,2.24313 0.82343,4.0146 l 0.60397,3.22085 3.09827,0.0565 c 1.70405,0.031 3.09828,-0.075 3.09828,-0.23576 z m 6.1074,-0.52977 c -0.37716,-1.69571 -1.29525,-4.3813 -1.9296,-5.64445 -0.6802,-1.35444 -1.55332,-1.68962 -2.34336,-0.89958 -0.32926,0.32926 -0.51741,0.32926 -0.84667,0 -0.57183,-0.57184 -2.17196,-0.55741 -1.95592,0.0176 0.0911,0.24253 0.70342,1.98801 1.36066,3.87883 l 1.19499,3.43786 2.34822,0.002 c 2.25269,0.002 2.34104,-0.0306 2.17168,-0.79203 z m 37.19508,-2.80676 c 0.82407,-1.20287 1.37969,-2.29601 1.23472,-2.42921 -0.14498,-0.13319 -1.19757,-0.50846 -2.3391,-0.83392 -1.14153,-0.32546 -2.88778,-1.04002 -3.88055,-1.58791 -1.95841,-1.08078 -5.44584,-2.31276 -5.73326,-2.02535 -0.0981,0.0981 0.51616,0.65614 1.36496,1.24014 1.53653,1.05716 5.20253,4.77438 6.68167,6.77502 0.42722,0.57785 0.86597,1.05009 0.975,1.04944 0.10903,-7.1e-4 0.87248,-0.98535 1.69656,-2.18821 z m 5.02807,-3.18067 v -1.13672 l -0.74837,0.74836 c -0.77195,0.77196 -0.65342,1.52509 0.24002,1.52509 0.33744,0 0.50835,-0.38218 0.50835,-1.13673 z m -1.29939,-2.37387 c -0.15846,-0.13286 -1.55811,-0.6198 -3.11033,-1.0821 -1.55222,-0.4623 -3.52668,-1.13331 -4.38768,-1.49113 -0.86099,-0.35782 -2.6729,-0.9476 -4.02647,-1.31063 -2.24987,-0.60342 -2.53329,-0.61269 -3.30335,-0.10813 -1.02776,0.67341 -0.78599,0.91765 1.48694,1.50223 0.97014,0.24951 3.11327,1.08286 4.7625,1.85189 1.64924,0.76903 3.95111,1.67691 5.11528,2.01751 l 2.11667,0.61928 0.81728,-0.87868 c 0.4495,-0.48328 0.68762,-0.98739 0.52916,-1.12024 z m -162.995634,0.3608 c 4.207344,-1.21178 8.367251,-2.78738 8.367251,-3.16918 0,-0.13569 -0.357664,-0.73151 -0.794809,-1.32402 -0.774934,-1.05037 -0.830066,-1.06636 -2.204861,-0.63965 -5.367402,1.66598 -9.742507,2.986 -11.023247,3.32587 -0.824618,0.21882 -1.499305,0.53832 -1.499305,0.70998 0,0.17166 0.422446,0.81416 0.938769,1.42778 1.056257,1.25528 0.630678,1.27793 6.216202,-0.33078 z m 26.711694,0.91142 c 0,-0.26097 0.3175,-0.76182 0.705556,-1.11301 1.188427,-1.07551 0.838598,-1.32538 -1.63503,-1.16788 -2.060547,0.13121 -2.447844,0.2733 -3.237075,1.18763 l -0.896489,1.03859 1.914158,0.20708 c 1.052788,0.11389 2.191971,0.23296 2.531519,0.26458 0.339549,0.0316 0.617361,-0.15602 0.617361,-0.41699 z m 6.95344,-1.13041 0.77983,-1.5701 -0.77983,-0.0513 c -2.435486,-0.16016 -3.260107,0.10149 -4.390552,1.39312 -0.627704,0.7172 -1.143642,1.42306 -1.146527,1.56858 -0.0028,0.14552 1.066313,0.25675 2.376,0.24718 l 2.38125,-0.0174 0.779829,-1.5701 z m 4.94792,0.37401 c 0.168004,-1.26708 1.132967,-2.94712 2.990928,-5.2073 l 1.377488,-1.6757 h -1.432109 c -1.356049,0 -1.432112,0.0562 -1.432112,1.05834 0,1.20799 -1.075404,2.46944 -2.10524,2.46944 -0.704889,0 -3.539204,3.35934 -3.539204,4.1948 0,0.2958 0.613036,0.3941 2.000215,0.32072 1.925683,-0.10185 2.005425,-0.14509 2.140034,-1.1603 z m 5.532286,1.01676 c 0.306913,-0.11777 0.55802,-0.42694 0.55802,-0.68705 0,-0.2601 0.743239,-1.90758 1.651646,-3.66107 0.908406,-1.75349 1.583093,-3.2399 1.499305,-3.30314 -0.08379,-0.0632 -0.94609,-0.0505 -1.916229,0.0282 -1.590728,0.12914 -1.885103,0.29537 -2.998611,1.6932 -1.772412,2.22499 -3.280618,5.0071 -3.045932,5.61868 0.208223,0.54262 3.097568,0.75407 4.251801,0.31114 z m 7.613575,-1.16823 c 0,-0.56628 0.555625,-2.18898 1.234723,-3.60602 0.679097,-1.41704 1.234722,-2.77935 1.234722,-3.02736 0,-0.47234 -2.323289,-0.62257 -3.7413,-0.24192 -0.770717,0.20688 -3.752652,5.13011 -4.209337,6.94969 l -0.239741,0.95519 h 2.860467 2.860466 z m 4.98372,0.371 c 0.12167,-0.12285 0.498486,-1.09648 0.837368,-2.16364 0.338881,-1.06715 0.948365,-2.54468 1.354405,-3.2834 0.633635,-1.15278 0.664947,-1.38949 0.220962,-1.67029 -0.801803,-0.50712 -3.515899,-0.41992 -3.515899,0.11295 0,0.24801 -0.555625,1.61032 -1.234722,3.02736 -0.679098,1.41704 -1.234723,3.04947 -1.234723,3.62763 v 1.05121 l 1.675695,-0.23923 c 0.921632,-0.13158 1.775245,-0.33974 1.896914,-0.46259 z m 6.45668,-0.13517 c 0.128591,-0.43656 0.435052,-2.18281 0.68103,-3.88055 l 0.447227,-3.08681 -1.610021,0.0115 c -1.503285,0.0107 -1.652609,0.0984 -2.252331,1.32292 -0.633881,1.29423 -2.356305,5.597 -2.356305,5.88626 0,0.082 0.754063,0.20847 1.675695,0.28114 0.921631,0.0727 2.014368,0.16075 2.428299,0.19572 0.50721,0.0428 0.828838,-0.19522 0.986406,-0.73016 z m 6.126177,-2.84543 c 0.21855,-2.00155 0.49996,-3.90655 0.62536,-4.23333 0.18233,-0.47516 0.0173,-0.59415 -0.82399,-0.59415 -1.804034,0 -3.20273,0.4085 -3.430434,1.00188 -0.120287,0.31346 -0.35656,1.60534 -0.52505,2.87083 -0.16849,1.2655 -0.417566,2.81684 -0.553501,3.44743 l -0.247157,1.14652 h 2.278705 2.278707 z m 4.671512,3.28641 c 1.29949,0 1.34247,-0.041 1.57251,-1.49931 0.13008,-0.82462 0.54091,-2.5483 0.91295,-3.83039 0.37205,-1.2821 0.67645,-2.43304 0.67645,-2.55764 0,-0.12461 -1.25447,-0.22655 -2.78771,-0.22655 h -2.78771 l -0.37618,1.07911 c -0.206902,0.59352 -0.485212,2.52329 -0.618452,4.28839 l -0.24227,3.20927 1.157202,-0.23144 c 0.63646,-0.1273 1.75841,-0.23144 2.49321,-0.23144 z m -53.040219,-0.90784 c 0.401835,-0.86599 0.38028,-0.89389 -0.53527,-0.6928 -0.693822,0.15239 -1.28366,-0.0337 -2.162933,-0.68242 -0.66493,-0.49057 -1.255365,-0.89194 -1.31208,-0.89194 -0.14967,0 -1.170918,2.49905 -1.170918,2.8653 0,0.17034 1.071562,0.30846 2.381249,0.30695 2.208795,-0.002 2.411575,-0.0681 2.799952,-0.90509 z m 61.141019,0.57588 c 0,-0.18258 -0.1703,-0.43721 -0.37845,-0.56586 -0.25574,-0.15805 -0.2982,-1.36585 -0.13094,-3.72498 l 0.2475,-3.49109 h -1.59858 -1.59859 l -0.71511,2.38125 c -0.92256,3.07198 -1.2461,4.88637 -0.95525,5.35697 0.28638,0.46338 5.12942,0.50465 5.12942,0.0437 z m 4.94488,-0.25133 1.15252,-0.2305 -0.2068,-3.65191 c -0.11375,-2.00855 -0.31551,-3.82778 -0.44836,-4.04274 -0.24017,-0.3886 -3.82081,-0.28614 -4.22794,0.12099 -0.10869,0.10869 -0.30953,1.96096 -0.44631,4.11615 l -0.24868,3.91852 h 1.63653 c 0.90008,0 2.15515,-0.10373 2.78904,-0.23051 z m 37.56484,-0.82833 c 1.62128,-0.23248 1.65694,-0.25695 0.44097,-0.3026 -0.77811,-0.0292 -1.53559,-0.30391 -1.83935,-0.66703 -0.28404,-0.33955 -1.40163,-1.59086 -2.48352,-2.78069 l -1.96709,-2.16332 0.23918,-2.3346 0.23919,-2.33459 h -1.45983 c -0.8029,0 -1.45983,0.15875 -1.45983,0.35278 0,0.19403 -0.23812,0.35278 -0.52916,0.35278 -0.29104,0 -0.52917,-0.15875 -0.52917,-0.35278 0,-0.19403 -0.69612,-0.35278 -1.54693,-0.35278 -1.2746,0 -1.65218,0.16065 -2.14485,0.91255 -0.32886,0.50191 -0.51394,0.99655 -0.41129,1.09919 0.10265,0.10265 1.18689,-0.008 2.40943,-0.24703 2.921,-0.56988 3.60015,-0.60155 3.80039,-0.17721 0.26367,0.55877 -1.64139,1.29142 -3.88756,1.4951 -1.32877,0.12049 -2.1295,0.36666 -2.25481,0.69322 -0.10688,0.27851 0.0811,2.00351 0.41767,3.83333 l 0.61198,3.32696 h 2.03215 c 1.39258,0 2.03095,-0.13878 2.02834,-0.44097 -0.007,-0.85808 -1.06773,-3.93287 -1.76191,-5.10942 -0.87419,-1.48164 -0.88358,-1.85794 -0.0463,-1.85794 0.73153,0 2.16757,2.84534 2.8838,5.71393 0.24277,0.97234 0.65344,1.72855 0.9939,1.83019 0.57756,0.17242 2.86494,-0.007 6.22464,-0.48907 z m -31.44538,0.14656 c 0.44731,-0.17165 0.50355,-0.70482 0.3315,-3.14274 -0.21882,-3.10067 0.003,-4.44308 0.62978,-3.81603 0.19845,0.19845 0.45487,1.8125 0.56982,3.58677 l 0.209,3.22595 h 2.04362 c 1.124,0 2.1412,-0.15786 2.26044,-0.3508 0.2062,-0.33365 -0.40973,-7.05692 -0.67038,-7.31757 -0.0683,-0.0683 -2.13327,-0.1568 -4.58883,-0.19666 -3.63964,-0.0591 -4.52695,0.0253 -4.80187,0.45669 -0.18548,0.29104 -0.2654,0.72526 -0.17762,0.96494 0.0878,0.23967 0.26765,1.86686 0.39969,3.61597 l 0.24008,3.1802 h 1.50803 c 0.82942,0 1.75044,-0.093 2.04674,-0.20672 z m 17.48187,-1.11619 c -0.0158,-0.72761 -0.29528,-2.43417 -0.62099,-3.79236 l -0.5922,-2.46945 -2.02484,-0.1058 c -2.32049,-0.12125 -2.24784,-0.27251 -1.64086,3.41652 0.68455,4.16046 0.52565,3.86712 2.1753,4.01578 0.82371,0.0742 1.77547,0.16269 2.11502,0.19659 0.49357,0.0493 0.61159,-0.20364 0.58857,-1.26128 z m -5.83306,-1.23473 c -0.13294,-1.01864 -0.41623,-2.56522 -0.62951,-3.43683 -0.37567,-1.53516 -0.44079,-1.59441 -2.08095,-1.89343 -0.93122,-0.16978 -1.76939,-0.23243 -1.8626,-0.13923 -0.0932,0.0932 -0.0624,1.69208 0.0684,3.55307 0.26436,3.76083 0.17982,3.65779 3.05853,3.72759 l 1.68785,0.0409 z m 26.5802,1.63895 c -0.11723,-0.11722 -0.4215,-0.12975 -0.67616,-0.0278 -0.28142,0.11261 -0.19783,0.1962 0.21313,0.21313 0.37189,0.0153 0.58025,-0.0681 0.46303,-0.18529 z m 12.3965,-0.61307 c 0.2161,-0.26039 0.28846,-0.57789 0.16079,-0.70556 -0.41278,-0.41277 -0.73362,-0.24808 -0.9223,0.47343 -0.21138,0.80833 0.18343,0.92868 0.76151,0.23213 z m -130.043845,-2.74368 2.730726,-0.83983 0.0033,-1.46646 0.0033,-1.46645 -3.96875,1.23882 c -2.182812,0.68135 -4.00256,1.26923 -4.043884,1.3064 -0.04132,0.0372 0.244191,0.59267 0.634476,1.23444 0.475423,0.78177 0.907705,1.11176 1.309856,0.99989 0.330136,-0.0918 1.829073,-0.5449 3.330972,-1.00681 z m 132.732415,0.0458 c 0.55573,-0.58006 0.94262,-1.11707 0.85975,-1.19337 -0.0829,-0.0763 -1.30161,-0.71494 -2.70831,-1.41922 -2.39582,-1.1995 -2.55764,-1.23481 -2.55764,-0.55811 0,1.1864 2.15341,4.22535 2.9941,4.22535 0.22092,0 0.85636,-0.47459 1.4121,-1.05465 z m -87.132587,-3.76644 c 14.175187,-0.16349 21.257707,-0.38165 25.377827,-0.78169 2.31614,-0.22489 4.24749,-0.44532 4.29188,-0.48986 0.0444,-0.0445 -8.83562,-0.081 -19.733382,-0.081 -16.430155,0 -19.941437,0.0847 -20.559694,0.49576 -0.659084,0.43824 -0.935362,0.40389 -2.38125,-0.29605 -1.758149,-0.85111 -2.055933,-1.39058 -0.930102,-1.68499 0.716738,-0.18743 0.955445,-0.96447 0.401461,-1.30685 -0.167252,-0.10337 -1.675377,-0.004 -3.351389,0.21978 -3.339796,0.44686 -3.347307,0.45493 -2.83047,3.03911 0.193015,0.96509 0.37701,1.10129 1.675694,1.24047 0.802379,0.086 3.601995,0.0597 6.22137,-0.0585 2.619375,-0.11816 7.9375,-0.25146 11.818055,-0.29621 z m 49.734287,-1.16419 c 0.40186,-0.65022 -1.54728,-1.07077 -4.86628,-1.04994 -2.88763,0.0181 -6.6308,0.46908 -5.70967,0.68788 0.19402,0.0461 1.99904,0.18341 4.01113,0.30516 2.0121,0.12174 4.26141,0.26671 4.99848,0.32215 0.73706,0.0554 1.44192,-0.0639 1.56634,-0.26525 z m -17.5392,-0.6071 c -0.33729,-0.0883 -0.97229,-0.0915 -1.41111,-0.007 -0.43883,0.0844 -0.16286,0.15663 0.61325,0.16054 0.77611,0.004 1.13515,-0.0651 0.79786,-0.15342 z m 3.86909,0.0292 c -0.11722,-0.11722 -0.4215,-0.12975 -0.67616,-0.0278 -0.28142,0.11261 -0.19783,0.19621 0.21314,0.21313 0.37189,0.0153 0.58025,-0.0681 0.46302,-0.18528 z m -3.43223,-1.17541 c 6.11187,-0.17947 11.94824,-0.43748 12.96971,-0.57334 l 1.85721,-0.24703 -1.50972,-1.62957 c -3.68269,-3.97505 -4.83702,-5.92272 -3.86592,-6.52289 0.15348,-0.0949 0.32375,-4.39047 0.37837,-9.54582 l 0.0993,-9.37335 h -7.47716 c -4.20118,0 -9.93819,0.24385 -13.09427,0.55657 -4.68064,0.46377 -6.7563,0.49318 -12.450129,0.17639 -3.758156,-0.2091 -7.902148,-0.38018 -9.208872,-0.38018 H 86.24847 l 0.265585,5.02708 c 0.146071,2.7649 0.386359,7.48771 0.533975,10.49514 l 0.268393,5.46805 -2.333512,2.3036 c -1.28343,1.26697 -2.968512,2.81835 -3.744623,3.4475 l -1.411111,1.1439 2.822222,-0.18245 c 1.552222,-0.10035 6.235347,-0.0395 10.406944,0.13515 4.171597,0.17468 9.648477,0.25235 12.170837,0.17259 2.52236,-0.0798 9.58673,-0.29186 15.69861,-0.47134 z m 23.28333,-3.35312 c 0,-1.05571 0.16134,-2.01918 0.35853,-2.14105 0.76841,-0.4749 -0.13507,-0.87839 -1.96685,-0.87839 h -1.91946 v 1.36702 c 0,0.75185 -0.0992,1.8631 -0.22048,2.46944 l -0.22049,1.10243 h 1.98438 1.98437 z m 4.23333,0.0497 c 0,-1.02835 0.1905,-2.06022 0.42334,-2.29306 0.32926,-0.32925 0.0206,-0.42333 -1.38919,-0.42333 -1.48073,0 -1.81746,0.11301 -1.83952,0.61736 -0.0148,0.33955 -0.12008,1.37143 -0.23384,2.29306 l -0.20683,1.67569 h 1.62302 1.62302 z m -76.1118,0.94235 2.734027,-0.2324 v -4.37008 c 0,-3.18547 -0.119535,-4.40839 -0.440972,-4.51144 -0.242535,-0.0778 -3.100035,-0.20322 -6.35,-0.27879 l -5.909027,-0.13742 v 2.75931 c 0,1.51761 0.106563,2.7593 0.236805,2.7593 0.130242,0 0.493177,-0.23201 0.806514,-0.51558 0.435913,-0.39449 1.738503,-0.52911 5.546449,-0.57321 4.926662,-0.0571 5.914722,0.0878 5.667026,0.83091 -0.07818,0.23454 -1.344013,0.39294 -3.265643,0.40864 l -3.137972,0.0257 -0.254268,1.23472 c -0.139848,0.6791 -0.164437,1.68395 -0.05464,2.233 0.161611,0.80818 0.341313,0.96034 0.943649,0.79905 0.409215,-0.10958 1.974338,-0.30382 3.478054,-0.43164 z m 78.55454,-5.29381 c 1.07483,-0.21497 1.11557,-0.28593 1.01423,-1.76641 l -0.10558,-1.54244 -5.29166,-0.0743 c -2.91042,-0.0409 -5.49011,0.049 -5.73264,0.19973 -0.45793,0.28454 -0.61848,2.75949 -0.20579,3.17218 0.29961,0.29961 8.83313,0.30889 10.32144,0.0112 z m -94.657678,-1.75714 2.080221,-0.21722 -0.239349,-3.92792 c -0.131639,-2.16036 -0.400512,-5.9123 -0.597492,-8.33765 -0.196977,-2.42535 -0.456932,-7.18784 -0.577677,-10.58333 -0.120742,-3.39549 -0.466771,-8.23168 -0.76895,-10.7471 -0.323614,-2.69385 -0.481097,-5.99231 -0.38318,-8.0257 0.113651,-2.36024 0.04373,-3.46384 -0.221058,-3.48901 -0.213011,-0.0203 -0.942918,-0.0773 -1.622016,-0.12681 -0.679097,-0.0495 -2.028472,-0.152 -2.998611,-0.22778 l -1.763888,-0.13777 0.165664,5.82084 c 0.09112,3.20146 0.179507,8.04333 0.196427,10.75972 0.07047,11.31485 1.127308,25.55051 2.141015,28.83958 0.210368,0.68256 1.122539,0.7621 4.588894,0.40015 z m 108.924078,-3.04598 c 0.12425,-1.4067 0.30188,-5.33577 0.39473,-8.73125 0.31331,-11.45734 0.5606,-16.38464 1.06229,-21.16667 0.27481,-2.61937 0.57204,-6.28801 0.66052,-8.15252 l 0.16086,-3.39002 -2.7028,-0.42582 c -1.48653,-0.2342 -3.02029,-0.45494 -3.40835,-0.49053 -0.66575,-0.0611 -0.71977,0.22388 -0.95753,5.05056 -0.32841,6.66679 -0.57877,12.77466 -1.01944,24.87083 -0.19793,5.43278 -0.56656,10.90965 -0.81919,12.17083 -0.25263,1.26118 -0.39216,2.41212 -0.31007,2.55764 0.0821,0.14552 1.62612,0.26459 3.43117,0.26459 h 3.28191 z m -11.77832,-11.72986 c 0.20772,-3.68653 0.53264,-8.07015 0.72204,-9.74138 0.1894,-1.67122 0.34437,-3.75614 0.34437,-4.63316 0,-1.89066 -0.25699,-2.01745 -4.104,-2.02481 -2.76193,-0.005 -2.94192,0.15629 -2.94192,2.64101 0,2.27483 0.23856,2.54287 2.48993,2.79758 1.47926,0.16736 2.08654,0.38498 2.08654,0.74772 0,0.62144 -1.6355,0.66204 -6.09344,0.15127 -1.70216,-0.19502 -3.48809,-0.25589 -3.96875,-0.13525 -0.822,0.20631 -0.87392,0.36072 -0.87392,2.59923 v 2.37989 l 4.67431,0.24822 c 6.07651,0.32268 7.11204,0.54289 7.25648,1.54316 0.11895,0.82378 -0.56913,1.06512 -1.20989,0.42436 -0.45821,-0.45821 -10.19614,-0.91451 -10.45468,-0.48988 -0.18093,0.29716 0.27632,3.97578 0.52511,4.22457 0.0628,0.0628 1.02171,0.0205 2.13088,-0.0939 l 2.01668,-0.20814 v -1.49495 c 0,-1.40661 0.66518,-2.56245 1.17899,-2.04865 0.12766,0.12767 0.23212,0.99942 0.23212,1.93722 v 1.70509 h 1.74092 c 0.95751,0 2.15769,0.15846 2.66706,0.35212 1.88184,0.71547 0.45456,1.05899 -4.39995,1.05899 -2.68907,0 -5.14032,0.0964 -5.44723,0.21414 -0.39096,0.15002 -0.55802,0.67533 -0.55802,1.7547 v 1.54057 l 5.37541,0.0974 c 4.79376,0.0868 5.38824,0.16418 5.49392,0.71474 0.10496,0.54677 -0.20715,0.61736 -2.72958,0.61736 -2.58403,0 -2.84808,0.0635 -2.84808,0.68474 0,0.3766 -0.15875,0.78285 -0.35278,0.90276 -0.19403,0.11992 -0.35278,0.91662 -0.35278,1.77044 v 1.55242 l 2.91042,0.10246 2.91041,0.10246 0.60089,-2.64583 c 0.33048,-1.45521 0.77083,-5.66209 0.97854,-9.34861 z m -8.64925,11.37708 c 0.077,-0.24254 0.20413,-1.35379 0.28254,-2.46944 l 0.14255,-2.02848 h -1.89218 c -2.11174,0 -2.06746,-0.0543 -2.37282,2.91042 l -0.20893,2.02847 h 1.95443 c 1.25371,0 2.00462,-0.1581 2.09441,-0.44097 z m -70.570141,-0.12594 c 0.585904,-0.22483 0.711955,-1.39744 0.346594,-3.22425 l -0.211424,-1.05712 -5.803991,-0.065 -5.803988,-0.065 0.106387,2.04815 0.106387,2.04816 2.822222,0.19989 c 4.305314,0.30493 7.8183,0.35287 8.437813,0.11514 z m 0.205243,-7.15646 c 0,-1.24858 -0.154383,-1.78538 -0.558021,-1.94027 -0.306909,-0.11778 -2.926284,-0.21414 -5.820833,-0.21414 h -5.262813 v 1.75016 1.75015 l 3.086806,0.11758 c 1.697743,0.0647 4.317118,0.15023 5.820833,0.19012 l 2.734028,0.0726 z m 0.09846,-4.88843 c 0.10462,-0.92164 0.135918,-1.73119 0.06955,-1.79901 -0.06637,-0.0678 -0.647256,-0.17357 -1.290867,-0.23498 -0.643611,-0.0614 -3.353015,-0.32786 -6.020897,-0.59211 l -4.850694,-0.48043 v 1.11229 c 0,0.61176 0.0979,1.60181 0.217561,2.2001 0.215671,1.07835 0.239438,1.08886 2.734028,1.20872 1.384056,0.0665 3.964259,0.15246 5.733782,0.19101 l 3.217315,0.0701 z m 0.04862,-5.96024 c 0.134419,-1.48337 0.116628,-2.81914 -0.03954,-2.96838 -0.156164,-0.14925 -3.022371,-0.18233 -6.36935,-0.0735 l -6.085416,0.19784 v 2.04417 c 0,1.12429 0.165936,2.14673 0.368744,2.27207 0.202812,0.12534 2.671703,0.35464 5.486425,0.50956 2.814718,0.15491 5.215241,0.37922 5.334494,0.49847 0.711295,0.7113 1.07873,0.0128 1.304639,-2.48022 z m -0.208086,-6.72782 0.06242,-2.26548 -2.235687,0.0811 c -1.229624,0.0446 -2.38578,-0.0117 -2.569227,-0.12509 -0.468098,-0.2893 -7.044055,-0.74469 -7.611138,-0.52708 -0.346449,0.13295 -0.420515,0.75787 -0.287751,2.42788 l 0.178781,2.24886 1.234722,0.17639 c 0.679097,0.097 3.469139,0.19271 6.200091,0.21267 l 4.965371,0.0363 z m 71.873704,0.69361 c -0.11879,-0.7276 -0.0627,-1.84489 0.12461,-2.48287 l 0.34059,-1.15996 -3.06604,0.10163 c -2.52933,0.0838 -3.03879,0.19425 -2.91046,0.63079 0.0856,0.29104 0.21931,1.3626 0.29723,2.38125 l 0.14167,1.85208 h 2.64419 2.6442 z m -41.72806,-6.2618 0.858,-2.64584 h -2.24215 c -2.12971,0 -2.24215,0.0423 -2.24215,0.84421 0,1.24108 -0.914872,1.3964 -1.909152,0.3241 -0.83719,-0.90286 -0.92731,-0.91852 -3.949438,-0.68622 -1.700988,0.13075 -3.122718,0.2742 -3.159407,0.31879 -0.03669,0.0446 -0.138522,0.98641 -0.226307,2.09294 -0.193449,2.43847 -0.630163,2.28438 6.659702,2.34981 l 5.352902,0.048 z m 13.4367,1.94326 c 2.1086,-0.16368 3.96561,-0.42975 4.12668,-0.59126 0.16108,-0.16152 0.4003,-1.34414 0.53162,-2.62806 l 0.23875,-2.33439 -3.30711,0.12772 c -13.98985,0.5403 -13.75043,0.51932 -13.53889,1.1858 0.18528,0.58379 -0.22271,3.03128 -0.72236,4.33337 -0.19602,0.51082 0.24415,0.55032 4.30957,0.38668 2.49035,-0.10025 6.25313,-0.31618 8.36174,-0.47986 z m -27.719046,-1.98214 0.103681,-2.15043 -2.183903,-0.22826 c -3.515091,-0.3674 -4.604557,-0.28474 -5.128319,0.3891 -0.457013,0.58796 -0.502712,0.58796 -0.959725,0 -0.370773,-0.47702 -1.008606,-0.61737 -2.805642,-0.61737 h -2.325775 l -0.367394,1.32292 c -0.505414,1.81991 -0.4638,2.58871 0.164977,3.04792 0.346897,0.25334 2.807546,0.39076 6.967361,0.38911 l 6.431057,-0.002 0.103682,-2.15043 z m -16.28715,1.76828 c 0.602403,-0.16167 0.815961,-0.61165 1.085966,-2.28824 l 0.336102,-2.087 -1.615133,-0.0562 c -5.595055,-0.19454 -5.672077,-0.18806 -5.672077,0.47755 0,0.91736 -1.424301,0.83909 -1.667693,-0.0916 -0.176686,-0.67563 -0.360141,-0.71122 -2.524612,-0.48967 -1.283748,0.1314 -2.440503,0.3402 -2.570568,0.464 -0.130069,0.1238 -0.150432,0.96742 -0.04525,1.87471 l 0.191231,1.64962 2.514698,0.2057 c 1.383083,0.11314 3.149699,0.25693 3.92581,0.31955 2.648218,0.21366 5.290636,0.2231 6.041531,0.0216 z m 63.207946,-2.52315 0.10502,-2.20486 -2.75086,-0.0588 c -4.01613,-0.0858 -5.30522,-0.16198 -7.92922,-0.46871 l -2.35613,-0.27542 -0.18338,1.19519 c -0.10086,0.65736 -0.25626,1.87326 -0.34533,2.70201 l -0.16195,1.5068 6.75841,-0.0957 6.75841,-0.0957 z m 17.15483,1.19062 c 0.11145,-0.55783 0.20264,-3.63566 0.20264,-6.83963 v -5.82539 l -2.73403,0.31324 c -1.50372,0.17228 -4.79778,0.27123 -7.32014,0.21987 -2.52236,-0.0513 -4.80152,0.0479 -5.06479,0.22052 -0.33613,0.2204 -0.40347,0.65634 -0.22612,1.46379 l 0.25256,1.14992 2.69557,-0.2145 c 7.71573,-0.614 10.97285,-0.68325 11.50148,-0.24453 0.9481,0.78685 0.2124,1.06956 -2.78336,1.06956 h -2.93164 l -0.21866,1.32292 c -0.4451,2.69281 -0.4893,2.64195 2.05866,2.36908 2.6278,-0.28141 4.06491,-0.0253 4.06491,0.72444 0,0.38124 -0.45292,0.53564 -1.67569,0.57125 -0.92164,0.0268 -4.29395,0.14591 -7.49404,0.26459 l -5.81835,0.21578 -0.3051,1.67495 c -0.1678,0.92122 -0.2286,1.87372 -0.1351,2.11667 0.12904,0.33527 2.04459,0.44171 7.94929,0.44171 h 7.77929 z m -56.039262,-6.09267 c 0.10165,-2.0919 0.073,-2.17422 -0.816778,-2.34431 -0.507168,-0.0969 -2.52113,-0.0332 -4.475473,0.1416 -1.954343,0.17482 -4.846489,0.21708 -6.42699,0.0939 -2.663077,-0.20755 -2.902179,-0.17062 -3.263194,0.50393 -0.214256,0.40034 -0.389555,1.27021 -0.389555,1.93303 v 1.20514 l 3.439583,0.354 c 1.891771,0.1947 5.326765,0.33751 7.633317,0.31736 l 4.19374,-0.0366 z m -33.353365,1.46805 c 1.569166,-0.19822 1.604807,-0.23169 1.989377,-1.8676 0.215371,-0.91617 0.369489,-1.68772 0.342487,-1.71456 -0.02699,-0.0269 -1.517537,-0.16275 -3.312294,-0.30203 l -3.263194,-0.25324 v 2.09532 c 0,1.15242 0.10771,2.20303 0.239356,2.33468 0.13165,0.13164 0.726962,0.16509 1.322917,0.0743 0.595958,-0.0908 1.802567,-0.25587 2.681351,-0.36688 z m 16.570264,-0.31427 c 0,-0.46081 0.09341,-1.30488 0.207571,-1.8757 l 0.207574,-1.03786 -3.470768,-0.32916 c -1.90892,-0.18103 -4.851287,-0.27804 -6.538588,-0.21557 l -3.067826,0.11357 -0.352584,1.12115 c -0.841636,2.67622 -1.096165,2.51093 4.195177,2.72433 9.711174,0.39166 8.819444,0.44229 8.819444,-0.50076 z m 28.281983,0.17871 c 2.26418,-0.12254 4.22799,-0.33453 4.36402,-0.47109 0.13603,-0.13656 0.1391,-0.97 0.007,-1.85208 l -0.24049,-1.6038 h -1.8481 c -1.01646,0 -2.03188,0.18377 -2.25649,0.40838 -0.30933,0.30933 -0.54096,0.29836 -0.95493,-0.0452 -0.40113,-0.33291 -1.59153,-0.41054 -4.47389,-0.29179 -4.513342,0.18596 -4.887252,0.41906 -4.887252,3.0467 v 1.57212 l 3.086812,-0.27021 c 1.69774,-0.14862 4.93932,-0.37047 7.20351,-0.49302 z m 36.56094,-1.7674 0.1082,-1.89737 -2.99283,0.15708 c -1.76485,0.0926 -3.22667,0.35116 -3.56274,0.63006 -0.43166,0.35825 -0.66896,0.37392 -0.97828,0.0646 -0.25591,-0.25591 -1.75098,-0.40838 -4.00425,-0.40838 -3.91105,0 -4.02413,0.06 -4.02413,2.13718 v 1.02115 l 6.08541,0.11322 c 3.34698,0.0623 6.79979,0.1057 7.67292,0.0965 l 1.5875,-0.0167 0.1082,-1.89737 z m -16.76965,-0.0213 c 0.0864,-0.69099 0.12046,-1.30234 0.0756,-1.35856 -0.0448,-0.0562 -1.43706,-0.19786 -3.09382,-0.31479 -2.9781,-0.21016 -3.01363,-0.203 -3.13159,0.63138 -0.16105,1.13925 -1.14915,1.0889 -1.2834,-0.0654 -0.10537,-0.90601 -0.11768,-0.90925 -3.35139,-0.88195 l -3.24563,0.0274 -0.10693,1.66113 -0.10692,1.66113 7.04346,-0.052 7.04346,-0.052 0.15715,-1.25635 z m 6.73443,-2.71541 c 1.6347,-0.22407 1.63674,-0.2261 1.63674,-1.62525 0,-1.1325 -0.10691,-1.35988 -0.55802,-1.18677 -0.30691,0.11777 -3.48191,0.21413 -7.05555,0.21413 h -6.49754 v 1.00386 c 0,0.98661 0.047,1.00993 2.73403,1.35654 3.36344,0.43388 7.56085,0.53622 9.74034,0.23748 z m -60.874542,-1.75352 0.106768,-1.0959 -2.256257,-0.23116 c -1.240942,-0.12714 -3.473648,-0.0618 -4.961569,0.14511 -2.624035,0.36497 -4.797118,0.0941 -7.411385,-0.92376 -0.601648,-0.23425 -0.635592,-0.12442 -0.40067,1.29646 0.141167,0.85381 0.326065,1.62669 0.410883,1.7175 0.246204,0.26361 10.330378,0.55812 12.46518,0.36405 1.868329,-0.16985 1.944236,-0.21702 2.04705,-1.2723 z m 16.297394,0.21396 v -1.41111 l -1.499305,-0.0366 c -13.825301,-0.33736 -13.223434,-0.35915 -13.450231,0.4869 -0.353688,1.3194 -0.2517,1.67631 0.573842,2.00813 0.436563,0.17548 3.849688,0.32911 7.584722,0.34141 l 6.790972,0.0224 z m 13.511938,0.82572 3.45776,-0.22896 -0.10638,-0.91574 c -0.10603,-0.91278 -0.12005,-0.91656 -4.33971,-1.16936 -2.32833,-0.13949 -5.781142,-0.16206 -7.672914,-0.0501 l -3.439583,0.20348 v 1.19667 1.19667 l 4.321528,-0.002 c 2.376837,-10e-4 5.877519,-0.10486 7.779299,-0.23079 z m 17.40001,-0.69859 c 0.38638,-1.5395 -0.58755,-1.99274 -3.74806,-1.74423 -1.45521,0.11442 -4.03489,0.30897 -5.73264,0.43233 -2.91576,0.21188 -3.0868,0.26903 -3.0868,1.03145 0,1.03747 0.13628,1.06055 6.78284,1.14904 l 5.54811,0.0739 z m -6.83903,-4.866536 c 2.57023,-0.33939 4.49843,-0.40498 5.99722,-0.204 4.36171,0.58488 13.03809,0.71852 16.49653,0.25409 l 3.35139,-0.45006 0.26207,-3.13606 c 0.14414,-1.72484 0.19984,-3.19829 0.12379,-3.27434 -0.0761,-0.0761 -6.72913,-0.16753 -14.78462,-0.20328 -14.63134,-0.0649 -14.64746,-0.0658 -15.73099,-0.86692 l -1.08464,-0.80193 -12.791419,0.19127 c -7.035278,0.1052 -15.09329,0.37277 -17.906693,0.59459 l -5.115277,0.40331 v 3.55874 3.55873 l 15.874999,0.0876 c 8.731248,0.0482 16.74813,0.22681 17.81528,0.39697 2.82104,0.4498 3.31739,0.4426 7.49236,-0.10869 z m 32.9241,0.14756 c 1.15129,-0.19719 2.61579,-0.44375 3.25444,-0.54791 l 1.16118,-0.18937 -0.10285,-3.68393 -0.10284,-3.68393 -3.2632,-10e-4 -3.26319,-0.002 v 4.23334 c 0,2.32833 0.0502,4.23333 0.1116,4.23333 0.0614,0 1.05356,-0.16134 2.20486,-0.35852 z m -93.333128,-1.53001 c 0,-0.84466 0.104486,-2.5354 0.232188,-3.7572 l 0.232188,-2.22146 -3.023284,0.2453 c -2.825433,0.22926 -3.057543,0.19641 -3.546743,-0.50203 -0.287906,-0.41104 -0.595069,-0.61662 -0.682586,-0.45685 -0.3484,0.63602 -0.231077,7.15042 0.132827,7.37532 0.459151,0.28377 3.523548,0.74848 5.332494,0.80866 l 1.322916,0.044 z m 15.264715,0.9889 c 0.613612,-0.23547 0.605124,-1.33862 -0.04873,-6.33231 l -0.230957,-1.76389 -2.9946,-0.09 c -1.647031,-0.0495 -3.172071,0.0299 -3.38898,0.17639 -0.231116,0.15612 -0.463321,1.84973 -0.560906,4.09102 -0.157734,3.62274 -0.127611,3.84162 0.570769,4.14684 0.766921,0.33517 5.619076,0.16887 6.653399,-0.22803 z m 96.007823,0.33272 c 0.44154,-0.16944 0.55802,-0.77739 0.55802,-2.91274 0,-1.48424 0.1435,-3.19898 0.31889,-3.81053 0.28039,-0.97767 0.22715,-1.13653 -0.44097,-1.31577 -1.49132,-0.40009 -5.89069,-0.23432 -6.03699,0.22748 -0.0768,0.24253 -0.20611,2.06123 -0.28728,4.04155 -0.12621,3.0789 -0.066,3.62245 0.41535,3.75144 0.89671,0.2403 4.86013,0.25374 5.47298,0.0186 z M 57.425809,177.92257 c 0,-0.50358 2.104365,-4.69034 2.744481,-5.4603 0.550488,-0.66215 0.835127,-0.78188 1.142142,-0.48042 0.309139,0.30354 0.191746,0.73398 -0.481048,1.76389 -0.489486,0.7493 -1.155721,2.03705 -1.480523,2.86167 -0.404629,1.02728 -0.800619,1.4993 -1.257801,1.4993 -0.366988,0 -0.667251,-0.0829 -0.667251,-0.18414 z m 6.702778,0.0142 c 0,-0.0935 0.624744,-1.52225 1.388318,-3.175 0.843685,-1.82616 1.596682,-3.00501 1.919456,-3.00501 0.801808,0 1.055575,0.676 0.504963,1.34515 -0.269342,0.32732 -0.949082,1.58732 -1.510534,2.79999 -0.703993,1.52054 -1.219673,2.20486 -1.661513,2.20486 -0.352379,0 -0.64069,-0.0765 -0.64069,-0.16999 z"
       id="path283" /></g></svg>
