<?xml version="1.0" encoding="UTF-8" standalone="no"?>
<!-- Created with Inkscape (http://www.inkscape.org/) -->

<svg
   width="210mm"
   height="297mm"
   viewBox="0 0 210 297"
   version="1.1"
   id="svg186"
   xml:space="preserve"
   sodipodi:docname="lights.svg"
   inkscape:version="1.2.2 (732a01da63, 2022-12-09)"
   xmlns:inkscape="http://www.inkscape.org/namespaces/inkscape"
   xmlns:sodipodi="http://sodipodi.sourceforge.net/DTD/sodipodi-0.dtd"
   xmlns="http://www.w3.org/2000/svg"
   xmlns:svg="http://www.w3.org/2000/svg"><sodipodi:namedview
     id="namedview188"
     pagecolor="#ffffff"
     bordercolor="#666666"
     borderopacity="1.0"
     inkscape:showpageshadow="2"
     inkscape:pageopacity="0.0"
     inkscape:pagecheckerboard="0"
     inkscape:deskcolor="#d1d1d1"
     inkscape:document-units="mm"
     showgrid="false"
     inkscape:zoom="0.74564394"
     inkscape:cx="397.64288"
     inkscape:cy="561.9304"
     inkscape:window-width="1920"
     inkscape:window-height="1017"
     inkscape:window-x="-8"
     inkscape:window-y="-8"
     inkscape:window-maximized="1"
     inkscape:current-layer="layer1" /><defs
     id="defs183" /><g
     inkscape:label="Layer 1"
     inkscape:groupmode="layer"
     id="layer1"><path
       style="fill:#ff0000;stroke-width:0.209795"
       d="m 95.333705,215.12215 c -0.140332,-0.13672 -0.255702,-0.39291 -0.256511,-0.56946 -8.2e-4,-0.17659 -0.341606,-0.54672 -0.75737,-0.82262 -0.415765,-0.27588 -0.893341,-0.76047 -1.061278,-1.07688 -0.433511,-0.8168 -0.381042,-2.8812 0.107658,-4.23595 0.475409,-1.31787 0.615239,-1.20399 -1.88912,-1.53863 -0.987242,-0.13182 -2.900134,-0.55154 -4.250881,-0.93246 -1.350747,-0.38092 -3.22103,-0.88206 -4.156245,-1.11361 -3.176498,-0.78648 -14.373087,-4.55914 -16.543365,-5.57422 -1.188251,-0.55579 -2.819053,-1.45249 -3.624,-1.99271 -1.410215,-0.94641 -1.476741,-0.96835 -1.825754,-0.60192 -0.199324,0.20913 -0.468007,0.85475 -0.597265,1.43468 -0.53591,2.40442 -2.34663,5.0545 -3.453571,5.0545 -0.229698,0 -0.417699,0.0931 -0.417699,0.20715 0,0.31106 -0.807154,1.03541 -1.153809,1.03541 -0.564753,0 -0.971532,-0.63202 -0.9758,-1.51614 -0.0023,-0.47591 -0.139324,-1.61081 -0.304455,-2.52195 -0.57924,-3.19557 0.49695,-5.32947 2.8424,-5.63598 0.467277,-0.0612 0.992544,-0.26491 1.167265,-0.45302 0.287385,-0.30941 0.144847,-0.5289 -1.496448,-2.30353 -0.997742,-1.07885 -2.478098,-2.77067 -3.28967,-3.75961 -0.811573,-0.98895 -2.083746,-2.26956 -2.827087,-2.84585 -0.743317,-0.57628 -1.506188,-1.36541 -1.695268,-1.75361 -0.60359,-1.2393 -0.337618,-2.71004 0.334253,-1.84839 0.153133,0.19641 0.891327,0.92065 1.640418,1.60946 2.338771,2.15049 3.440517,3.2531 6.260474,6.2653 5.13566,5.4858 8.239638,7.49236 15.149743,9.79363 l 3.005649,1.00096 0.467583,-0.52393 0.467547,-0.52392 -0.789704,-0.63421 c -1.097727,-0.8816 -1.453772,-1.77864 -1.150574,-2.89891 0.560994,-2.07253 2.632638,-4.71768 3.946459,-5.03894 1.211921,-0.29637 1.415793,-0.0975 2.148814,2.09562 0.880702,2.63502 0.902797,3.80977 0.09994,5.30723 -0.332445,0.61999 -0.918411,1.32149 -1.328395,1.59024 -0.403468,0.2645 -0.851186,0.69851 -0.994959,0.96447 -0.258665,0.47858 -0.23346,0.4923 2.444261,1.32621 3.756599,1.16992 9.427915,2.64167 11.207347,2.9084 3.971187,0.59527 8.592862,0.92359 13.177712,0.93616 4.70582,0.0122 11.30792,-0.18563 14.0829,-0.42358 l 1.33031,-0.114 -0.74267,-0.84534 c -1.30772,-1.48852 -1.20723,-2.79292 0.41582,-5.39761 1.41682,-2.2737 2.3689,-2.96315 3.03778,-2.19981 0.20183,0.23039 0.81617,0.86726 1.365,1.41516 0.54885,0.5479 1.06199,1.24497 1.14031,1.54902 0.16368,0.63573 -0.41207,3.09906 -0.89334,3.82149 -0.17723,0.26612 -0.27301,0.53198 -0.21262,0.59072 0.0602,0.0587 1.14393,-0.1328 2.40807,-0.42587 1.2642,-0.29299 4.18206,-0.76765 6.48424,-1.05482 4.49979,-0.56131 8.52134,-1.38207 9.76189,-1.99226 0.42344,-0.2084 1.4422,-0.96532 2.26389,-1.68225 0.82168,-0.71695 2.0798,-1.80151 2.7958,-2.41016 0.71601,-0.60864 1.69976,-1.68028 2.18609,-2.38145 0.48633,-0.70114 1.63901,-2.24206 2.56147,-3.42425 0.92245,-1.1822 1.82623,-2.45389 2.00837,-2.82602 0.31964,-0.65307 0.31183,-0.69688 -0.22494,-1.26093 -1.12361,-1.18066 -1.56561,-3.87848 -0.86868,-5.3024 0.26226,-0.53583 0.28387,-0.8079 0.10141,-1.27579 l -0.23196,-0.59471 -1.52081,0.14602 c -0.83646,0.0802 -2.29279,0.28523 -3.23629,0.45541 -0.94354,0.17024 -3.00667,0.35988 -4.58481,0.42156 -3.71502,0.14505 -5.52241,-0.16215 -11.10044,-1.88721 -2.36992,-0.73294 -5.55236,-1.70819 -7.07202,-2.16729 -1.5197,-0.45906 -4.43685,-1.48567 -6.48259,-2.28138 -3.63685,-1.4146 -3.72258,-1.43664 -3.85774,-0.99156 -0.23722,0.78159 -0.19255,1.17996 0.1328,1.17996 0.55872,0 1.03953,1.24962 1.04466,2.71499 0.005,1.12786 -0.11525,1.60641 -0.67662,2.71743 -0.66785,1.32176 -2.29609,3.05791 -2.86781,3.05791 -0.40205,0 -2.23221,-2.12284 -2.63014,-3.05074 -0.63291,-1.4759 0.24475,-5.03602 1.3886,-5.63243 0.33689,-0.17562 1.08997,-1.85477 1.08997,-2.4302 0,-0.0348 -1.60204,-0.81628 -3.56008,-1.73709 -3.16626,-1.48898 -3.63066,-1.65217 -4.19774,-1.47515 -0.35071,0.10956 -2.92035,1.04538 -5.710365,2.07976 -3.45839,1.28219 -5.994873,2.08235 -7.970374,2.51434 -4.732978,1.03493 -4.421672,0.90657 -4.317006,1.78004 0.06577,0.54805 0.246014,0.83938 0.664915,1.07357 0.746298,0.41731 2.087834,2.37931 2.268533,3.31776 0.07752,0.40332 0.02265,1.29948 -0.123013,1.99144 -0.145341,0.69194 -0.314515,1.53765 -0.376119,1.87933 -0.180247,0.99976 -0.458619,1.19861 -1.485726,1.06144 -1.75909,-0.2348 -3.400884,-1.29243 -4.11616,-2.65127 -0.344925,-0.65526 -0.393926,-1.16554 -0.351269,-3.65805 0.02731,-1.5931 0.0013,-2.94308 -0.0567,-2.99995 -0.05854,-0.0567 -1.206177,0.0245 -2.550519,0.18075 -4.971852,0.57783 -11.009814,0.81368 -14.274482,0.55761 -4.055679,-0.31814 -13.45957,-1.85263 -14.471995,-2.36151 -0.463639,-0.23309 -0.486131,-0.91372 -0.03566,-1.0821 0.722655,-0.27019 2.815036,-0.099 6.087812,0.49795 1.880405,0.34301 3.458014,0.58554 3.505785,0.53897 0.04769,-0.0466 0.07531,-0.39709 0.061,-0.77895 -0.135057,-3.62809 -0.146856,-3.53909 0.690749,-5.18952 0.828066,-1.63159 1.992745,-2.85616 2.716456,-2.85616 0.534881,0 2.267378,2.25906 2.446692,3.19027 0.271068,1.40784 -0.934128,4.02713 -2.082565,4.52602 -0.381173,0.16559 -0.584487,0.41216 -0.584487,0.70884 0,0.2502 -0.118481,0.52634 -0.263536,0.61364 -0.528304,0.3181 0.831203,0.44586 4.961742,0.46635 7.204198,0.0356 12.378844,-0.51312 19.418433,-2.05943 3.868932,-0.84986 5.50927,-1.33442 9.436344,-2.7876 2.614355,-0.96743 4.795915,-1.75895 4.847935,-1.75895 0.31698,0 -0.33192,-0.4814 -1.5256,-1.13179 -0.75829,-0.41316 -2.17832,-1.34566 -3.155675,-2.0722 -2.19475,-1.6316 -5.566355,-3.83677 -5.866271,-3.83677 -0.410864,0 -0.227938,0.5208 0.255482,0.72745 0.631,0.26972 0.712789,1.17658 0.277564,3.0776 -0.429849,1.87748 -1.181267,3.45724 -1.910174,4.01585 -0.313497,0.24019 -1.066727,0.59383 -1.673834,0.78568 -0.607105,0.19176 -1.194702,0.43057 -1.305738,0.53046 -0.110966,0.0998 -0.458115,0.18172 -0.771246,0.18172 -0.586922,0 -0.682819,-0.14259 -1.240299,-1.84287 -0.330607,-1.0084 -0.284569,-3.08251 0.09614,-4.33157 0.323528,-1.0615 0.46958,-1.23844 2.935273,-3.55564 0.543774,-0.51098 0.988663,-0.99351 0.988663,-1.07226 0,-0.0788 -0.686237,-0.66263 -1.524967,-1.29759 -2.503134,-1.89497 -12.529459,-12.08205 -14.026868,-14.25178 -1.466645,-2.12519 -2.582577,-4.31596 -2.47521,-4.85925 0.156897,-0.79382 0.903801,-0.3894 1.804527,0.97709 1.574458,2.38868 3.24877,4.63448 4.224696,5.6667 0.91867,0.97164 0.974922,0.99829 1.586621,0.75141 0.566187,-0.22844 0.634185,-0.35235 0.634185,-1.155 0,-1.0354 0.628147,-2.73517 1.433245,-3.87842 0.621693,-0.88278 2.055404,-1.79542 2.836301,-1.80546 0.281986,-0.002 0.69835,-0.14331 0.925258,-0.31061 0.226945,-0.16729 0.519501,-0.30405 0.650156,-0.30405 0.481496,0 0.994836,0.55516 1.062539,1.14916 0.392519,3.44293 0.390388,3.54637 -0.09394,4.52089 -0.652116,1.31248 -2.223952,2.77843 -3.163174,2.95011 -0.435248,0.0795 -1.051994,0.4309 -1.468125,0.83634 l -0.71759,0.69916 3.04027,3.11691 c 3.272615,3.35517 5.652087,5.3196 8.739644,7.21523 1.07371,0.6592 3.243372,2.09362 4.821512,3.1876 3.109215,2.1553 6.473985,4.07541 7.132875,4.07035 0.22695,-0.001 0.55542,-0.0913 0.73022,-0.19884 0.27723,-0.17072 0.27132,-0.22992 -0.0462,-0.46276 -0.47015,-0.3449 -1.01548,-1.63842 -1.01548,-2.40864 0,-0.331 -0.23747,-1.01581 -0.52778,-1.52182 -0.77213,-1.34601 -1.42068,-3.42943 -1.45093,-4.66111 -0.0251,-0.9701 0.078,-1.22625 1.02925,-2.5873 1.01669,-1.45474 1.99012,-2.20251 2.90028,-2.22787 0.55846,-0.0146 1.0413,0.57856 0.90387,1.11214 -0.083,0.32242 0.0849,0.7685 0.53233,1.41461 0.35953,0.519 0.84233,1.3487 1.0729,1.84377 0.72866,1.56446 0.45732,4.2917 -0.53305,5.35791 -0.28066,0.30218 -0.33275,0.59643 -0.22642,1.28056 0.24852,1.60118 0.1702,1.60822 3.97517,-0.35755 1.91567,-0.98966 3.57869,-1.87226 3.69556,-1.96133 0.11697,-0.0891 1.31248,-0.76269 2.65682,-1.49695 7.31239,-3.99395 12.54005,-7.05736 12.54005,-7.34847 0,-0.38557 -1.36691,-1.90297 -1.81235,-2.01191 -0.30294,-0.0741 -0.96335,-0.50522 -1.46763,-0.95809 -1.53217,-1.37602 -1.74744,-3.04502 -0.6651,-5.15646 0.26599,-0.51882 0.5453,-1.19336 0.62074,-1.49899 0.16368,-0.66302 0.78562,-0.90604 1.45653,-0.5691 1.94716,0.9778 3.70786,2.84072 4.20121,4.44512 0.22015,0.71612 0.19581,0.97501 -0.18377,1.94817 -0.43732,1.12137 -0.34847,1.67457 0.26744,1.66497 0.71755,-0.0122 2.83915,-3.26624 4.06939,-6.24342 0.97095,-2.34977 1.73046,-3.37204 2.33685,-3.14533 0.40121,0.14993 0.4021,0.70135 0.002,1.56815 -0.17245,0.37402 -0.65638,1.5932 -1.07552,2.70927 -1.05386,2.80626 -1.99876,4.27992 -4.12102,6.42736 -1.93797,1.96093 -4.54818,3.77161 -8.83022,6.12543 -1.28235,0.70492 -2.3596,1.30899 -2.39393,1.34243 -0.0344,0.0336 0.0836,0.40124 0.26208,0.81735 0.23522,0.5487 0.45505,0.75746 0.79983,0.75975 0.26144,0.001 0.57348,0.0717 0.69341,0.15531 0.44583,0.3111 1.55152,1.84447 2.1153,2.93355 0.48676,0.94028 0.56599,1.31383 0.48296,2.27789 -0.0545,0.63423 0.002,1.37376 0.12854,1.64341 0.48048,1.03348 -1.32442,1.63233 -2.93892,0.97508 -1.82757,-0.74397 -3.30044,-2.79978 -3.30044,-4.60667 0,-0.46519 -0.23949,-0.99182 -0.7439,-1.63561 -0.40915,-0.52224 -0.74389,-1.03556 -0.74389,-1.14074 0,-0.34492 -0.31852,-0.20814 -2.99059,1.28431 -1.45302,0.81153 -4.39129,2.34472 -6.52956,3.40708 l -3.88773,1.93154 0.69959,0.35274 c 2.33429,1.17694 11.98181,5.11822 15.43686,6.30638 0.9747,0.3352 3.12671,0.99017 4.78223,1.45554 1.65556,0.46535 4.08463,1.20652 5.39792,1.64702 2.35491,0.78988 4.4435,1.27567 6.55574,1.52483 l 1.07949,0.12743 0.22692,-0.96589 0.22694,-0.96586 -1.13522,-1.30384 c -1.86044,-2.13671 -1.76393,-3.1555 0.52611,-5.55387 0.70999,-0.74359 1.29091,-1.44419 1.29091,-1.55697 0,-0.11272 0.19755,-0.3081 0.43932,-0.43409 0.34292,-0.17879 0.55572,-0.15483 0.96978,0.10957 0.74435,0.47518 1.69693,2.01457 1.99451,3.22314 0.21991,0.89266 0.19555,1.20149 -0.1923,2.4455 -0.29365,0.94194 -0.66675,1.63609 -1.10244,2.05111 -0.64785,0.61714 -0.65257,0.63621 -0.29085,1.17409 0.29621,0.4405 0.3214,0.64574 0.12952,1.05601 -0.22969,0.49136 -0.21035,0.50919 0.55434,0.50853 0.43589,-4.2e-4 1.60548,-0.13672 2.59913,-0.30323 0.99362,-0.16633 3.02558,-0.44664 4.5154,-0.62268 3.03582,-0.35872 4.15426,-0.6703 6.0055,-1.67316 5.68464,-3.07949 6.12003,-3.2801 6.77273,-3.12051 0.41722,0.102 0.56001,0.26828 0.56001,0.65207 0,0.6264 -1.46537,1.59072 -5.68145,3.7389 -1.54667,0.78806 -2.81396,1.48263 -2.8162,1.54349 -0.002,0.0609 0.27584,0.27175 0.61795,0.46867 1.14589,0.65951 1.61001,1.69122 1.6069,3.57212 -0.002,1.46988 -0.087,1.83326 -0.717,3.08003 -0.83307,1.64875 -1.32979,2.19741 -1.86811,2.06359 -0.29235,-0.0726 -0.5402,0.1729 -1.0076,0.999 -0.34096,0.60247 -1.35231,2.02725 -2.24742,3.16621 -0.89515,1.13896 -1.98919,2.60773 -2.4312,3.264 -0.44203,0.65624 -1.47264,1.77449 -2.29026,2.48497 -0.81762,0.71048 -1.91879,1.66999 -2.44701,2.1322 l -0.96043,0.84041 0.45451,0.86801 c 0.34226,0.65365 0.57996,0.86804 0.96245,0.86804 0.2794,0 0.98802,0.3697 1.57479,0.8216 0.97969,0.75449 1.11149,0.9642 1.61318,2.56669 0.42327,1.35208 0.54631,2.18972 0.54631,3.71939 0,2.86675 -0.35933,3.11092 -2.89858,1.96952 -3.03107,-1.36243 -3.56217,-2.11869 -3.57545,-5.09075 -0.005,-1.05345 -0.0717,-1.91543 -0.14887,-1.91552 -0.0773,-7e-5 -0.35571,-0.44277 -0.61887,-0.98377 -0.26314,-0.54099 -0.4961,-1.00814 -0.51769,-1.03813 -0.0227,-0.0298 -0.36478,0.0775 -0.76265,0.2392 -1.07283,0.43546 -5.65173,1.30958 -8.80005,1.67996 -4.16287,0.4897 -6.1109,0.85061 -9.54919,1.76913 -3.08279,0.82353 -3.21879,0.84043 -9.11766,1.13339 -6.6132,0.32841 -13.51471,0.37378 -16.296565,0.10714 -1.71911,-0.16486 -2.67852,1.8e-4 -1.72152,0.29623 0.8847,0.27357 1.31743,1.6506 1.04692,3.33139 -0.23521,1.46209 -1.15484,3.5543 -1.68317,3.8298 -0.51568,0.26887 -1.118888,0.24697 -1.425504,-0.0518 z m 10.029615,-79.05342 c -1.42102,-0.79409 -2.12627,-1.63993 -2.54921,-3.05732 -0.37421,-1.25418 -0.19454,-2.43905 0.44845,-2.95905 0.17473,-0.14137 0.31787,-0.42025 0.31787,-0.61976 0,-0.31853 -0.29155,-0.37427 -2.39112,-0.45716 -1.983785,-0.0782 -2.626505,-0.19052 -3.772655,-0.65888 -0.75988,-0.31048 -2.594783,-1.03063 -4.077606,-1.60033 -3.365049,-1.29285 -4.924957,-2.2631 -7.058745,-4.39034 -2.218319,-2.21156 -3.297123,-4.45252 -2.23898,-4.65105 0.198825,-0.0374 0.647424,0.389 1.134432,1.07794 0.824976,1.16703 3.787377,4.05252 4.160557,4.05252 0.114268,0 0.387325,-0.34947 0.607008,-0.77656 0.307741,-0.59835 0.376179,-1.07185 0.298127,-2.06329 -0.139829,-1.77692 -0.0024,-2.14024 1.330036,-3.54359 1.947688,-2.04967 2.954269,-2.13757 3.592116,-0.31365 0.428048,1.22388 0.435396,2.86161 0.01751,4.01413 -0.47285,1.30573 -1.419222,2.67972 -1.934557,2.8086 -0.406543,0.10178 -1.495916,1.26971 -1.322149,1.41764 0.03943,0.0337 1.697826,0.64224 3.685098,1.35244 2.971833,1.06206 3.915093,1.30961 5.313618,1.39449 2.07621,0.12596 5.87768,-0.36127 9.24562,-1.18506 1.34435,-0.32886 3.10064,-0.69957 3.90288,-0.82382 1.27742,-0.19787 2.3508,-0.59173 3.27767,-1.20272 0.49919,-0.32904 0.0151,-0.86461 -1.35793,-1.50316 -2.44048,-1.13483 -3.07951,-2.8859 -1.76093,-4.82543 0.36354,-0.53474 0.84643,-1.06897 1.07312,-1.18717 0.67763,-0.35332 1.68244,0.1223 2.99393,1.41705 1.24868,1.23283 1.85846,2.31394 1.86406,3.30502 0.002,0.31685 0.0918,0.71272 0.20033,0.87967 0.30011,0.46232 2.84232,-1.30509 5.5648,-3.86878 1.24379,-1.17125 2.41207,-2.1295 2.59621,-2.1295 0.18401,0 0.43665,0.18564 0.56125,0.41227 0.34718,0.63205 -0.13155,1.32336 -2.3687,3.41988 -2.14184,2.0073 -4.32539,3.56132 -6.80328,4.84191 -0.85825,0.44354 -2.01817,1.04393 -2.57759,1.33426 -0.55942,0.29032 -1.75496,0.68281 -2.65679,0.87218 -0.90182,0.18931 -2.73958,0.60599 -4.08392,0.92573 -1.34432,0.31978 -2.83632,0.64217 -3.31553,0.71649 -0.78362,0.12155 -0.8613,0.18613 -0.77184,0.64208 0.0627,0.3199 0.28937,0.55344 0.614,0.63281 0.67894,0.16607 1.52327,1.2712 1.89802,2.48439 0.26613,0.86158 0.26106,1.13724 -0.0432,2.33902 -0.18954,0.74928 -0.49176,1.52538 -0.67135,1.72472 -0.49673,0.55122 -1.69047,0.45031 -2.94121,-0.24862 z m 9.98329,-27.28013 c -1.7958,-0.60621 -3.47698,-2.60906 -3.47698,-4.14229 0,-0.34836 0.1343,-1.00435 0.2985,-1.45773 0.26959,-0.74442 0.25952,-0.90932 -0.10369,-1.69972 -0.38321,-0.83388 -0.43504,-0.8682 -1.09557,-0.72516 -1.2886,0.27905 -7.84247,0.25236 -9.19507,-0.0374 -1.25743,-0.26939 -5.033365,-1.519236 -5.804385,-1.921263 -0.95683,-0.498929 -2.591117,-2.719169 -2.591117,-3.520108 0,-0.298238 0.626384,-0.849783 0.965111,-0.849783 0.163418,0 0.630291,0.507543 1.03758,1.12783 0.890116,1.355731 1.346566,1.666399 3.579506,2.436279 1.345875,0.464024 1.753835,0.534339 1.889665,0.325809 0.28498,-0.437611 0.20259,-1.144993 -0.14861,-1.276309 -0.47047,-0.175854 -0.946865,-1.415049 -0.946865,-2.462867 0,-1.052377 0.768235,-2.370122 1.989285,-3.412271 0.9947,-0.848903 1.75777,-0.886912 2.07951,-0.103461 0.12852,0.313214 0.46115,1.036475 0.73902,1.607285 0.59587,1.224099 0.50264,1.769249 -0.61596,3.601313 -0.56745,0.929445 -0.69112,1.327187 -0.62399,2.007053 l 0.0836,0.847903 0.99041,-0.06603 c 0.54472,-0.03619 2.42509,-0.109572 4.17856,-0.162898 1.75348,-0.05335 3.54237,-0.198604 3.97528,-0.323043 0.83798,-0.24067 2.41511,-1.363952 3.46432,-2.467218 0.87036,-0.915212 1.29129,-1.119412 1.78104,-0.86405 1.11297,0.58033 0.47182,1.748248 -1.99174,3.628292 -0.87807,0.670082 -1.59649,1.281697 -1.59649,1.359157 0,0.0775 0.10164,0.42496 0.22594,0.77227 0.19204,0.53649 0.33429,0.63142 0.9469,0.63142 2.06915,0 3.24968,2.5083 2.30985,4.90782 -0.17847,0.45558 -0.43343,1.15449 -0.56664,1.55311 -0.22391,0.66985 -0.53196,1.06196 -0.7906,1.00612 -0.0585,-0.0122 -0.50235,-0.15654 -0.98642,-0.32 z"
       id="path226" /></g></svg>
