<?xml version="1.0" encoding="UTF-8" standalone="no"?>
<!-- Created with Inkscape (http://www.inkscape.org/) -->

<svg
   width="210mm"
   height="297mm"
   viewBox="0 0 210 297"
   version="1.1"
   id="svg186"
   xml:space="preserve"
   sodipodi:docname="star.svg"
   inkscape:version="1.2.2 (732a01da63, 2022-12-09)"
   xmlns:inkscape="http://www.inkscape.org/namespaces/inkscape"
   xmlns:sodipodi="http://sodipodi.sourceforge.net/DTD/sodipodi-0.dtd"
   xmlns="http://www.w3.org/2000/svg"
   xmlns:svg="http://www.w3.org/2000/svg"><sodipodi:namedview
     id="namedview188"
     pagecolor="#ffffff"
     bordercolor="#666666"
     borderopacity="1.0"
     inkscape:showpageshadow="2"
     inkscape:pageopacity="0.0"
     inkscape:pagecheckerboard="0"
     inkscape:deskcolor="#d1d1d1"
     inkscape:document-units="mm"
     showgrid="false"
     inkscape:zoom="0.74564394"
     inkscape:cx="397.64288"
     inkscape:cy="561.9304"
     inkscape:window-width="1920"
     inkscape:window-height="1017"
     inkscape:window-x="-8"
     inkscape:window-y="-8"
     inkscape:window-maximized="1"
     inkscape:current-layer="layer1" /><defs
     id="defs183" /><g
     inkscape:label="Layer 1"
     inkscape:groupmode="layer"
     id="layer1"><path
       style="fill:#ffcc00;stroke-width:0.206166"
       d="m 105.87181,67.016592 c -0.12306,-0.03588 -0.70337,-0.120125 -1.28979,-0.187262 -0.61861,-0.07097 -1.31423,-0.30362 -1.65707,-0.554353 l -0.59092,-0.432169 0.35636,-1.599295 c 0.19594,-0.879613 0.51893,-2.925283 0.71768,-4.545926 0.19884,-1.620665 0.40426,-3.181909 0.45673,-3.469444 0.0526,-0.287536 0.0159,-0.522781 -0.0821,-0.522781 -0.29996,0 -6.835538,5.316571 -7.139164,5.807566 -0.562457,0.909565 -2.246728,0.784322 -2.777706,-0.206575 -0.212574,-0.396615 -0.170056,-0.815355 0.227364,-2.236543 0.26886,-0.961732 0.696916,-2.644282 0.951271,-3.739018 0.254308,-1.094747 0.847127,-2.75794 1.317273,-3.695961 l 0.854754,-1.705518 -1.034905,-0.558054 c -0.569174,-0.306926 -2.394659,-1.686126 -4.056579,-3.064888 -1.661932,-1.378751 -3.452318,-2.788646 -3.978643,-3.133106 -0.990643,-0.648327 -1.614252,-1.445494 -1.614252,-2.06352 0,-0.340265 0.854165,-1.183232 1.198944,-1.183232 0.09033,0 0.401836,-0.235245 0.692536,-0.522781 0.499677,-0.494245 0.648606,-0.526245 2.728149,-0.586082 1.461572,-0.04195 2.710654,0.03768 3.722662,0.237618 2.632219,0.520092 4.229524,0.340355 4.478744,-0.503985 0.0735,-0.248833 0.58323,-1.034572 1.132822,-1.746055 0.86045,-1.113913 2.18615,-3.675783 2.71326,-5.243382 0.088,-0.261396 0.44909,-0.965658 0.80263,-1.565001 0.96925,-1.643195 2.14408,-1.713133 3.4679,-0.206575 0.3508,0.399248 1.34215,1.46583 2.20298,2.370188 2.06528,2.169754 3.91273,4.434292 3.91273,4.79613 0,0.348183 0.46472,1.25461 0.65075,1.269277 0.0726,0.0067 2.19431,0.08604 4.71519,0.1785 2.5209,0.09257 4.94968,0.260328 5.39731,0.372996 0.44763,0.112724 1.25252,0.535839 1.78867,0.940406 0.8989,0.678336 0.97178,0.802623 0.93665,1.596955 -0.0457,1.032458 -0.39433,1.65334 -0.92839,1.65334 -0.21549,0 -0.89108,0.436163 -1.5013,0.969246 -0.61022,0.533094 -1.86409,1.464885 -2.78636,2.070685 -1.32443,0.869939 -1.92908,1.445258 -2.87684,2.737345 -0.65997,0.899757 -1.32847,1.953788 -1.48556,2.342305 -0.15712,0.388517 -0.48883,0.78349 -0.73719,0.877734 -0.41105,0.15605 -0.44179,0.30164 -0.34229,1.62287 0.14392,1.909258 0.79895,3.782423 1.63629,4.678333 1.16296,1.244307 0.71567,2.937025 -0.8535,3.230095 -0.92005,0.171763 -1.65185,-0.136075 -3.24763,-1.36666 -0.78316,-0.603887 -2.1165,-1.61882 -2.96298,-2.255382 l -1.53907,-1.157408 0.0298,2.868369 c 0.0158,1.577576 0.14208,3.167198 0.27947,3.532466 0.79518,2.115338 -0.52611,4.013607 -2.76869,3.977772 -0.49188,-0.009 -0.99494,-0.04353 -1.11792,-0.07952 z"
       id="path207" /></g></svg>
