<?xml version="1.0" encoding="UTF-8" standalone="no"?>
<!-- Created with Inkscape (http://www.inkscape.org/) -->

<svg
   width="210mm"
   height="297mm"
   viewBox="0 0 210 297"
   version="1.1"
   id="svg5"
   xml:space="preserve"
   inkscape:version="1.2.2 (732a01da63, 2022-12-09)"
   sodipodi:docname="tree.svg"
   xmlns:inkscape="http://www.inkscape.org/namespaces/inkscape"
   xmlns:sodipodi="http://sodipodi.sourceforge.net/DTD/sodipodi-0.dtd"
   xmlns="http://www.w3.org/2000/svg"
   xmlns:svg="http://www.w3.org/2000/svg"><sodipodi:namedview
     id="namedview7"
     pagecolor="#ffffff"
     bordercolor="#666666"
     borderopacity="1.0"
     inkscape:showpageshadow="2"
     inkscape:pageopacity="0.0"
     inkscape:pagecheckerboard="0"
     inkscape:deskcolor="#d1d1d1"
     inkscape:document-units="mm"
     showgrid="false"
     inkscape:zoom="0.74564394"
     inkscape:cx="397.64287"
     inkscape:cy="561.9304"
     inkscape:window-width="1920"
     inkscape:window-height="1017"
     inkscape:window-x="-8"
     inkscape:window-y="-8"
     inkscape:window-maximized="1"
     inkscape:current-layer="layer1" /><defs
     id="defs2" /><g
     inkscape:label="Layer 1"
     inkscape:groupmode="layer"
     id="layer1"><path
       style="fill:#008000;stroke-width:0.208873"
       d="m 115.34678,231.53167 c -1.528,-0.75262 -2.90493,-1.85744 -3.69521,-2.96497 -0.73983,-1.03681 -1.88986,-1.9696 -2.43057,-1.97143 -0.53451,-0.002 -2.30849,1.0388 -3.02153,1.77241 -0.93989,0.967 -3.82622,2.75582 -5.07538,3.14549 -0.59657,0.1861 -1.775199,0.32223 -2.619179,0.30252 l -1.5345,-0.0358 1.90861,-0.15119 c 1.04973,-0.0831 2.252159,-0.28778 2.672049,-0.45474 1.14323,-0.45457 3.92894,-2.277 4.58067,-2.99669 0.60512,-0.66824 2.5308,-1.81172 3.05102,-1.81172 0.60086,0 1.54489,0.75979 2.70186,2.17453 1.50752,1.84339 3.53161,3.09359 5.37303,3.31869 l 1.28006,0.15648 -1.04974,0.027 c -0.70801,0.0182 -1.40504,-0.14798 -2.14119,-0.51057 z m 4.24066,0.0817 c 0.57736,-0.0956 1.35034,-0.17022 1.71775,-0.16585 0.53533,0.006 0.47846,0.0433 -0.28629,0.18595 -0.52487,0.0979 -1.29785,0.17254 -1.71775,0.16586 -0.66473,-0.0106 -0.62771,-0.0346 0.28629,-0.18596 z M 96.457468,231.4668 c 0.137777,-0.066 0.302397,-0.0579 0.365813,0.018 0.0634,0.076 -0.04931,0.12998 -0.2505,0.12006 -0.222344,-0.011 -0.267568,-0.0651 -0.115313,-0.13811 z m 18.375752,-0.87791 c -0.96572,-0.55429 -1.82926,-1.30006 -2.76901,-2.39138 -1.4385,-1.67052 -2.53528,-2.40601 -3.22671,-2.16379 -0.93201,0.32649 -2.17581,1.14035 -2.86856,1.877 -0.40446,0.43009 -1.64684,1.31271 -2.76083,1.96137 l -2.02545,1.1794 -2.487849,-0.001 c -2.320491,-0.001 -2.564881,-0.0442 -3.633014,-0.63899 -0.629842,-0.35073 -1.617548,-1.18276 -2.194903,-1.84897 -1.946779,-2.24639 -3.708747,-3.05655 -4.924935,-2.26449 -4.941857,3.21849 -6.819923,4.18236 -8.149049,4.18236 -0.945552,0 -2.675956,-0.67581 -3.8974,-1.52214 -1.106809,-0.7669 -4.569938,-4.95588 -4.992157,-6.03848 -0.385783,-0.98918 -1.455571,-1.68422 -2.264715,-1.47138 -0.298976,0.0787 -0.992234,0.54388 -1.540574,1.03386 -0.640632,0.57245 -1.361499,0.9815 -2.01681,1.14443 -0.560904,0.13946 -1.751902,0.6071 -2.646661,1.03921 -1.209099,0.58391 -1.909347,0.78436 -2.727049,0.78063 -1.699246,-0.008 -2.542843,-0.59965 -4.822004,-3.38325 -2.10107,-2.5661 -2.380126,-3.04729 -2.570145,-4.43185 -0.147572,-1.07527 -1.043711,-2.17118 -1.940092,-2.37258 -0.562839,-0.12646 -0.991624,0.0251 -2.521482,0.89125 -3.431984,1.94305 -6.098663,2.63725 -8.916047,2.32106 -1.694192,-0.19014 -2.044624,-0.43742 -4.846957,-3.4202 -1.346178,-1.43286 -2.256102,-2.63867 -2.997999,-3.97289 -0.585858,-1.0536 -1.356044,-2.3012 -1.711524,-2.77244 l -0.646329,-0.85681 3.961671,-2.40308 c 2.178919,-1.3217 5.035264,-3.15016 6.347434,-4.06324 1.31217,-0.91309 3.201695,-2.11994 4.198944,-2.68189 2.044258,-1.15193 3.045158,-1.9173 4.619687,-3.53255 l 1.08876,-1.11692 1.422524,0.81944 c 1.915825,1.1036 6.17251,2.75423 8.006225,3.1046 1.762966,0.33686 4.620672,0.16885 5.831632,-0.34285 0.823268,-0.34787 0.839548,-0.34465 1.526469,0.30172 0.381879,0.35933 0.979825,0.82831 1.328773,1.04216 0.348945,0.21386 1.356993,1.02871 2.240104,1.81078 3.100971,2.74617 7.072964,4.72437 9.475655,4.71921 2.274474,-0.005 6.106574,-1.20509 7.453654,-2.3345 l 0.526893,-0.44175 0.904565,0.95443 c 1.253297,1.32237 3.769842,3.1417 4.906529,3.54715 0.521503,0.18603 1.680984,0.45479 2.576624,0.59726 1.384134,0.22018 1.871823,0.20009 3.250753,-0.13391 2.438919,-0.59074 3.943839,-1.37741 6.806519,-3.55797 0.37168,-0.28312 0.4826,-0.24769 1.11674,0.35671 1.54296,1.4706 3.01885,2.61451 3.68546,2.85646 0.386,0.1401 1.35417,0.30945 2.15148,0.37634 1.19006,0.0998 1.75401,0.0173 3.14921,-0.46079 0.93475,-0.32032 2.21038,-0.75285 2.83474,-0.96118 1.66509,-0.55559 3.07808,-1.48815 4.6368,-3.06022 0.7602,-0.76672 1.42715,-1.39403 1.4821,-1.39403 0.055,0 0.54952,0.35619 1.09902,0.79152 3.14571,2.49218 9.63113,1.77611 12.91456,-1.42593 0.47972,-0.46783 1.02715,-1.00506 1.21651,-1.19386 0.18937,-0.18881 0.86701,-1.08903 1.50588,-2.00051 1.09207,-1.55807 1.20852,-1.65762 1.94603,-1.6636 0.83043,-0.007 6.86849,-1.20291 7.3896,-1.46393 0.22176,-0.11108 0.37236,0.0361 0.54362,0.5313 0.4767,1.3783 3.76693,4.81568 7.31273,7.63975 4.0703,3.24181 5.11015,3.95851 7.86035,5.41754 2.47663,1.31391 3.99341,1.82534 5.41354,1.82534 1.19322,0 1.19314,-0.002 0.0923,2.01813 -1.89786,3.48258 -5.56821,6.54218 -8.275,6.89804 -1.88121,0.24732 -4.08768,-0.0867 -5.22276,-0.79061 -0.51642,-0.32026 -1.07499,-0.58228 -1.24126,-0.58228 -0.16628,0 -0.91671,0.35696 -1.66763,0.79324 -1.16259,0.67547 -1.57929,1.09532 -2.80654,2.82773 -2.5414,3.5875 -4.52646,5.62855 -6.77628,6.96741 l -1.98911,1.18371 -1.88834,-0.0272 -1.88834,-0.0272 -2.50193,-1.45859 c -1.37606,-0.80223 -3.02134,-1.89577 -3.65618,-2.43008 -0.87993,-0.7406 -1.33119,-0.97148 -1.8987,-0.97148 -0.71171,0 -1.85307,0.59088 -1.85307,0.95933 0,0.30723 -2.44466,3.29127 -3.23108,3.94397 -0.93767,0.77824 -2.80848,1.38021 -5.70173,1.83464 -3.55123,0.55777 -4.48011,0.48845 -6.12791,-0.45731 z m 7.47762,0.64707 c 0.18571,-0.058 0.44337,-0.0541 0.57259,0.008 0.12922,0.0626 -0.0227,0.11004 -0.33764,0.10538 -0.31492,-0.005 -0.42065,-0.0559 -0.23495,-0.11385 z m -42.752874,-0.22858 c 0.185702,-0.058 0.443365,-0.0541 0.572583,0.008 0.129219,0.0626 -0.02272,0.11003 -0.337639,0.10537 -0.31492,-0.005 -0.420646,-0.0559 -0.234944,-0.11384 z m 14.644956,-0.54232 c -0.577355,-0.38085 -1.399014,-1.12474 -1.825907,-1.6531 -1.02196,-1.26486 -2.098976,-2.02766 -3.049067,-2.15953 -0.678154,-0.0941 -1.09367,0.099 -3.435499,1.59677 -2.660661,1.70168 -4.582983,2.69319 -5.200108,2.68215 -0.179766,-0.003 0.291838,-0.25829 1.048007,-0.56683 0.756171,-0.30855 2.599144,-1.34551 4.095499,-2.30437 2.390609,-1.53189 2.814224,-1.7307 3.492101,-1.6389 0.899294,0.12179 2.722492,1.44208 3.379247,2.44712 0.247446,0.37867 1.00729,1.04816 1.688544,1.48776 0.681252,0.4396 1.152753,0.79974 1.04778,0.80032 -0.104974,6.9e-4 -0.663242,-0.31055 -1.240597,-0.69139 z m 29.869758,0.34182 c 0.52487,-0.17492 1.04019,-0.30923 1.14516,-0.29847 0.323,0.0331 -1.31143,0.62243 -1.71775,0.61937 -0.20994,-0.002 0.0477,-0.14599 0.57259,-0.3209 z m -46.76309,-0.40451 c -1.596833,-0.71122 -2.565259,-1.58094 -4.769401,-4.28327 -1.049736,-1.287 -1.654576,-2.11218 -1.344089,-1.83373 0.310485,0.27845 1.188662,1.31088 1.951503,2.2943 1.648064,2.12461 2.822873,3.07658 4.690829,3.80109 0.760043,0.29479 1.21012,0.53523 1.000173,0.5343 -0.209947,-9.1e-4 -0.898003,-0.23163 -1.529015,-0.51269 z m 49.1413,-0.53353 c 1.13906,-1.01255 2.7085,-2.7885 3.3316,-3.76998 0.4352,-0.68551 0.9217,-1.16333 1.36142,-1.33714 0.37632,-0.14874 0.72196,-0.22524 0.76809,-0.16999 0.0461,0.0552 -0.25802,0.22313 -0.67589,0.37307 -0.54558,0.19577 -0.91608,0.5444 -1.31426,1.23669 -0.58854,1.02325 -2.41357,3.02045 -3.36798,3.68569 -0.56341,0.39272 -0.56506,0.39242 -0.10298,-0.0183 z m 12.89067,-0.3965 c -0.945,-0.36063 -4.47379,-2.47872 -5.49714,-3.29954 -0.41645,-0.33403 -0.98182,-0.7868 -1.25638,-1.00615 -0.27456,-0.21935 -0.40365,-0.39936 -0.28686,-0.40002 0.11678,-6.9e-4 0.54622,0.31695 0.9543,0.7058 0.40809,0.38885 1.96605,1.43808 3.46214,2.33161 l 2.72016,1.6246 2.05136,0.14634 2.05137,0.14633 -1.71775,0.0212 c -0.94476,0.0116 -2.0613,-0.10992 -2.4812,-0.27016 z m 5.53498,-0.65642 c 0.73481,-0.40481 1.68076,-0.95716 2.1021,-1.22744 1.31485,-0.84344 4.1315,-4.08117 6.23417,-7.16616 0.75075,-1.10148 2.80028,-2.5224 3.61188,-2.50409 0.2518,0.006 0.84431,0.25819 1.31669,0.56113 1.03497,0.66373 0.87004,0.7625 -0.19086,0.11429 -0.98795,-0.60363 -1.3825,-0.57795 -2.63383,0.17144 -0.80472,0.48192 -1.52803,1.2687 -3.09964,3.37162 -1.12749,1.50865 -2.61921,3.30875 -3.31492,4.00022 -1.22316,1.21569 -4.49106,3.41442 -5.07533,3.41482 -0.15746,1e-4 0.31492,-0.33102 1.04974,-0.73583 z m -85.45805,-2.83038 c 0.131217,-0.0634 0.345936,-0.0634 0.477153,0 0.131217,0.0634 0.02386,0.1153 -0.238576,0.1153 -0.262434,0 -0.369794,-0.0519 -0.238577,-0.1153 z m -1.895224,-0.49705 c -1.067988,-0.65211 -2.938149,-2.70541 -4.379668,-4.80855 -1.060206,-1.54682 -1.311836,-2.06538 -1.311836,-2.70345 0,-0.56784 -0.156643,-0.97712 -0.557902,-1.45768 -0.751529,-0.90007 -1.68913,-0.89452 -2.973028,0.0176 -0.524868,0.37287 -1.040192,0.67659 -1.145166,0.67493 -0.104974,-0.002 0.324464,-0.35864 0.954305,-0.79328 1.545794,-1.06674 2.384697,-1.07157 3.263725,-0.0188 0.495307,0.5932 0.648927,0.97011 0.648927,1.59213 0,0.90593 0.325966,1.44243 2.563614,4.21946 1.844709,2.28937 2.677712,3.04833 3.712114,3.38215 0.60106,0.19398 0.727397,0.28941 0.397051,0.29993 -0.266483,0.008 -0.793942,-0.17351 -1.172136,-0.40443 z m 3.374398,0.1983 c 0.31492,-0.0961 1.034659,-0.39795 1.599417,-0.67073 0.56476,-0.27279 1.059148,-0.45728 1.098643,-0.40998 0.122576,0.14681 -2.494898,1.30362 -2.893647,1.27887 -0.241037,-0.015 -0.1705,-0.0864 0.195587,-0.19816 z m 2.974251,-1.24388 c 0.04374,-0.0517 0.634279,-0.26577 1.312309,-0.47581 0.678032,-0.21003 1.536907,-0.6672 1.908611,-1.01592 1.47719,-1.38584 2.22791,-1.50522 3.076272,-0.48918 0.306847,0.36749 0.557582,0.80466 0.557188,0.97148 -3.81e-4,0.16682 -0.169503,-0.0282 -0.375801,-0.43345 -0.657927,-1.29233 -1.657268,-1.28252 -3.092933,0.0304 -0.501877,0.45895 -1.348851,0.94116 -2.017667,1.14872 -1.179464,0.36604 -1.508214,0.42943 -1.367979,0.2638 z m 98.278935,-5.14886 c 2.10971,-0.13316 2.25965,-0.17741 3.80393,-1.12265 2.03017,-1.24265 2.93223,-1.99651 4.05215,-3.38645 0.99063,-1.22946 2.83075,-4.34236 2.83075,-4.78873 0,-0.15784 -0.23619,-0.32984 -0.52486,-0.38222 -0.4974,-0.0902 -0.493,-0.097 0.0842,-0.12947 0.33497,-0.0188 0.65667,0.058 0.71488,0.17086 0.16803,0.32562 -2.01515,4.12492 -3.18345,5.54005 -1.10977,1.34422 -3.7568,3.29252 -5.35777,3.9435 -0.62523,0.25422 -1.48455,0.35733 -2.76185,0.33139 l -1.85423,-0.0377 z m -2.91202,-0.16603 c 0.13122,-0.0634 0.34594,-0.0634 0.47715,0 0.13122,0.0634 0.0239,0.11529 -0.23857,0.11529 -0.26244,0 -0.3698,-0.0519 -0.23858,-0.11529 z M 38.328341,218.8871 c 0.288677,-0.0524 0.761059,-0.0524 1.049736,0 0.288677,0.0524 0.05249,0.0952 -0.524868,0.0952 -0.577355,0 -0.813545,-0.0428 -0.524868,-0.0952 z m 2.960572,0.002 c 0.237414,-0.0547 0.580964,-0.0526 0.763445,0.005 0.18248,0.0572 -0.01178,0.10195 -0.431663,0.0994 -0.419895,-0.003 -0.569196,-0.0494 -0.331782,-0.10402 z m -5.045424,-0.90534 c -1.931272,-1.7577 -4.865894,-5.22241 -5.526408,-6.52464 -0.370834,-0.73111 -1.095997,-1.91937 -1.611472,-2.64057 -0.515476,-0.72121 -0.934125,-1.41415 -0.930331,-1.53987 0.0038,-0.12572 1.521272,-1.10292 3.372174,-2.17155 1.850902,-1.06863 4.015694,-2.39373 4.810649,-2.94468 3.134603,-2.17243 4.972821,-3.37074 7.075774,-4.6126 1.978183,-1.16818 4.447242,-3.25341 5.080634,-4.29083 0.199102,-0.32611 0.40571,-0.26178 1.913375,0.59575 0.929594,0.52874 2.549045,1.31462 3.598781,1.74641 1.049736,0.43179 1.809563,0.79287 1.688506,0.80241 -0.408052,0.0322 -4.129885,-1.61054 -5.442009,-2.40192 l -1.301392,-0.7849 -1.671496,1.63754 c -1.11067,1.08811 -2.407936,2.0704 -3.866399,2.92764 -2.522577,1.48269 -4.357906,2.67446 -6.06291,3.93693 -0.657774,0.48705 -2.933577,1.91985 -5.057338,3.184 -2.123762,1.26415 -3.895118,2.33886 -3.936347,2.38824 -0.04123,0.0494 0.236354,0.50247 0.616853,1.00688 0.380499,0.50441 1.163366,1.7672 1.739704,2.8062 1.27689,2.30192 5.287314,6.83649 6.602733,7.46568 0.307215,0.14695 0.357669,0.22828 0.147516,0.23782 -0.175665,0.008 -0.733933,-0.3628 -1.240597,-0.82394 z m 7.476678,0.38631 c 0.734815,-0.23483 1.714447,-0.59028 2.176959,-0.78991 0.462512,-0.19962 0.878266,-0.31823 0.923896,-0.26358 0.12546,0.15026 -3.519517,1.50747 -4.009728,1.49302 -0.234935,-0.007 0.174057,-0.20471 0.908873,-0.43953 z M 170.311,209.28856 c 0.23741,-0.0547 0.58096,-0.0526 0.76344,0.005 0.18248,0.0572 -0.0118,0.10195 -0.43166,0.0994 -0.41989,-0.003 -0.56919,-0.0494 -0.33178,-0.10402 z m -2.14941,-0.51117 c -5.65372,-2.43408 -16.29369,-11.20989 -17.08863,-14.09463 -0.16857,-0.61176 -0.2989,-0.7713 -0.53743,-0.65793 -0.48268,0.22943 -2.68276,0.74986 -3.75038,0.88715 l -0.95431,0.12273 0.85888,-0.22872 c 0.47238,-0.12579 1.46008,-0.37025 2.1949,-0.54325 0.73481,-0.17299 1.4823,-0.3845 1.66107,-0.47001 0.25119,-0.12016 0.4154,0.0747 0.72271,0.85771 1.30664,3.32915 11.84286,11.88264 17.27491,14.02406 0.73481,0.28968 1.16425,0.52378 0.9543,0.52022 -0.20994,-0.004 -0.81116,-0.19136 -1.33602,-0.41733 z m -72.908932,-1.72654 c 0.104973,-0.0426 0.963848,-0.12205 1.908613,-0.17657 0.94476,-0.0545 1.50303,-0.0218 1.24059,0.0727 -0.45429,0.1636 -3.547857,0.26562 -3.149203,0.10386 z m -1.192882,-0.27262 c 0.183704,-0.0575 0.48431,-0.0575 0.668014,0 0.183704,0.0575 0.0334,0.10454 -0.334007,0.10454 -0.367408,0 -0.517711,-0.047 -0.334007,-0.10454 z m 16.365104,-0.056 c -0.8696,-0.3168 -1.79405,-0.97852 -3.2603,-2.33371 -0.79659,-0.73626 -1.50987,-1.33865 -1.58507,-1.33865 -0.0752,0 -0.65356,0.42034 -1.28524,0.93409 -1.2934,1.05193 -3.21963,2.17382 -4.07923,2.37585 -0.314919,0.074 -0.0476,-0.10805 0.59399,-0.40458 1.2127,-0.56046 2.46583,-1.37324 3.83021,-2.48426 0.4388,-0.35733 0.87564,-0.64968 0.97074,-0.64968 0.0951,0 0.70667,0.51304 1.35905,1.14009 1.59851,1.53645 2.74225,2.31173 3.912,2.65171 0.5371,0.15611 0.76182,0.28374 0.49939,0.28363 -0.26244,-1.2e-4 -0.69243,-0.0786 -0.95554,-0.17449 z m 3.62759,-0.11452 c 2.7112,-0.74843 5.52581,-1.82011 6.45819,-2.45901 0.5646,-0.38688 1.56503,-1.30669 2.22317,-2.04404 0.65815,-0.73735 1.30641,-1.34063 1.44058,-1.34063 0.13418,0 0.53066,0.26189 0.88106,0.58199 0.35041,0.32009 1.00267,0.78071 1.44947,1.02361 0.44681,0.24289 0.68354,0.44291 0.52608,0.44449 -0.33328,0.003 -2.206,-1.24458 -2.3833,-1.58816 -0.2498,-0.48406 -0.75369,-0.19253 -1.91389,1.10728 -1.53509,1.71984 -2.86761,2.62358 -4.77135,3.23605 -0.83833,0.26971 -2.07009,0.68751 -2.73723,0.92845 -0.66714,0.24094 -1.44013,0.42944 -1.71775,0.41891 -0.30181,-0.0115 -0.0827,-0.13567 0.54497,-0.30894 z m -20.83964,-0.0566 c 0.137777,-0.066 0.302396,-0.0579 0.365818,0.018 0.06342,0.076 -0.04931,0.12998 -0.250505,0.12005 -0.222344,-0.011 -0.267569,-0.0651 -0.115313,-0.1381 z m 5.916691,0 c 0.13778,-0.066 0.3024,-0.0579 0.36582,0.018 0.0634,0.076 -0.0493,0.12998 -0.25051,0.12005 -0.22234,-0.011 -0.26757,-0.0651 -0.11531,-0.1381 z m -7.888992,-0.82487 c -1.568399,-1.01271 -2.31842,-1.65001 -3.386042,-2.87712 l -0.908894,-1.04467 -0.522564,0.40799 c -0.811011,0.63318 -2.370733,1.48011 -3.003758,1.63104 -0.314921,0.0751 -0.03378,-0.11211 0.624753,-0.41597 0.658536,-0.30387 1.537043,-0.82173 1.952234,-1.1508 0.415194,-0.32907 0.825778,-0.5983 0.91241,-0.5983 0.08663,0 0.453495,0.37037 0.815251,0.82304 0.854155,1.06882 2.556395,2.45728 4.05034,3.30373 0.653435,0.37022 1.059235,0.67088 0.901774,0.66812 -0.15746,-0.003 -0.803437,-0.33893 -1.435504,-0.74706 z M 76.5596,204.39298 c -0.413665,-0.1161 -0.800159,-0.27454 -0.858875,-0.35207 -0.05872,-0.0775 0.150904,-0.0598 0.465825,0.0394 0.314921,0.0992 1.474402,0.25156 2.576624,0.33855 l 2.004042,0.15816 -1.71775,0.0135 c -0.944762,0.007 -2.056202,-0.0815 -2.469866,-0.19758 z m 4.298951,-0.0566 c 0.04374,-0.0468 0.508963,-0.1444 1.033831,-0.217 0.643569,-0.089 0.798937,-0.0688 0.477153,0.0622 -0.476847,0.19409 -1.661276,0.31543 -1.510984,0.15478 z m -7.786113,-1.62811 c -1.132526,-0.69077 -2.746237,-1.87958 -3.586026,-2.64181 -0.839789,-0.76222 -1.870438,-1.59954 -2.290333,-1.8607 -0.419894,-0.26116 -1.041615,-0.76543 -1.381601,-1.1206 -0.604751,-0.63175 -0.635283,-0.63851 -1.40774,-0.31211 -0.43427,0.1835 -0.972031,0.3267 -1.195023,0.31821 -0.222993,-0.008 -0.01895,-0.14395 0.453434,-0.30104 0.472381,-0.15709 1.036401,-0.35683 1.253377,-0.44387 0.287464,-0.11531 0.520498,0.003 0.858875,0.43759 0.255405,0.3277 0.807923,0.80482 1.227817,1.06026 0.419895,0.25544 1.576642,1.18001 2.57055,2.05461 0.993909,0.87459 2.75234,2.1471 3.907628,2.82779 1.155288,0.68069 1.998745,1.23762 1.874351,1.23762 -0.124395,0 -1.152783,-0.56518 -2.285309,-1.25595 z m 55.535812,0.40617 c 0.29012,-0.0525 0.71956,-0.0511 0.95431,0.003 0.23475,0.0542 -0.003,0.0972 -0.52749,0.0955 -0.52487,-0.002 -0.71694,-0.0461 -0.42682,-0.0987 z m 3.33967,0.002 c 0.23742,-0.0547 0.58097,-0.0526 0.76345,0.005 0.18248,0.0572 -0.0118,0.10195 -0.43167,0.0994 -0.41989,-0.003 -0.56919,-0.0494 -0.33178,-0.10402 z m -4.3801,-0.22306 c 0.13778,-0.066 0.3024,-0.0579 0.36582,0.018 0.0634,0.076 -0.0493,0.12999 -0.25051,0.12006 -0.22234,-0.011 -0.26756,-0.0651 -0.11531,-0.1381 z m 6.42302,-0.19604 c 0.52123,-0.17122 0.98019,-0.27239 1.01992,-0.22481 0.0954,0.11429 -1.31425,0.57985 -1.68132,0.55528 -0.15746,-0.0105 0.14017,-0.15925 0.6614,-0.33047 z m -37.637099,-0.49197 c 0.185702,-0.058 0.443365,-0.0541 0.57258,0.008 0.12922,0.0626 -0.0227,0.11003 -0.337636,0.10537 -0.31492,-0.005 -0.420646,-0.0559 -0.234944,-0.11384 z m 40.029479,-0.57168 c 1.18982,-0.72478 3.51975,-3.2474 5.07882,-5.49883 0.5873,-0.84812 0.6075,-0.8568 1.90861,-0.82023 l 1.31502,0.037 -1.38048,0.13448 c -1.19299,0.11621 -1.42455,0.21209 -1.70494,0.70593 -0.17845,0.31431 -1.03335,1.44583 -1.89977,2.5145 -1.51564,1.86943 -3.07656,3.22131 -4.08071,3.53421 -0.26243,0.0818 0.0811,-0.19138 0.76345,-0.60702 z m -41.369139,0.34393 c 0.183704,-0.0575 0.48431,-0.0575 0.668014,0 0.183704,0.0575 0.0334,0.10454 -0.334007,0.10454 -0.367407,0 -0.51771,-0.047 -0.334007,-0.10454 z m 3.57865,-0.37744 c 1.812479,-0.64642 3.242369,-1.57867 4.472709,-2.91612 0.53175,-0.57804 1.15443,-1.16951 1.38371,-1.31436 0.75447,-0.47662 1.68162,-0.31529 2.47311,0.43035 1.51912,1.43113 3.58526,3.25828 4.15474,3.67418 0.32434,0.23687 0.48764,0.43106 0.36288,0.43153 -0.20271,6.8e-4 -1.29923,-0.92605 -4.37147,-3.69488 -1.39183,-1.25438 -2.00506,-1.20589 -3.48549,0.27563 -0.63291,0.63337 -1.6496,1.51144 -2.25931,1.95127 -1.0747,0.77525 -3.209609,1.71009 -3.848439,1.68517 -0.17265,-0.007 0.33025,-0.24199 1.11756,-0.52277 z m 14.144239,0.31007 c 0.58865,-0.0908 1.14751,-0.22218 1.24193,-0.29206 0.0944,-0.0699 1.02994,-0.39789 2.07894,-0.72891 2.27153,-0.71678 3.41459,-1.56882 4.99271,-3.7216 1.21544,-1.65802 1.91532,-2.1186 3.21941,-2.1186 1.09685,0 1.44443,0.21709 2.79461,1.7454 0.62002,0.70181 1.27299,1.23754 1.52689,1.25271 0.34421,0.0206 0.36579,0.0506 0.0963,0.13413 -0.37002,0.11464 -1.84759,-0.9293 -1.84759,-1.30537 0,-0.12315 -0.35643,-0.53314 -0.79208,-0.9111 -0.6349,-0.55081 -0.98524,-0.6869 -1.76546,-0.68577 -1.24856,0.002 -1.80832,0.36569 -3.0322,1.97121 -1.43591,1.88365 -2.68254,2.98938 -3.81815,3.38659 -0.54672,0.19124 -1.7365,0.60659 -2.64396,0.92301 -0.90745,0.31642 -1.98105,0.56182 -2.38576,0.54533 -0.61788,-0.0252 -0.56426,-0.0564 0.33442,-0.19497 z m -19.774645,-0.64722 c -0.524868,-0.34941 -1.479801,-1.06739 -2.122072,-1.5955 -0.642272,-0.52811 -1.587035,-1.18086 -2.099472,-1.45055 -0.512439,-0.2697 -1.136535,-0.68136 -1.386882,-0.91479 -0.747177,-0.69671 -1.736739,-0.5515 -2.787026,0.40896 -0.916536,0.83814 -2.488796,1.6861 -3.105976,1.67513 -0.182578,-0.003 0.22631,-0.237 0.908638,-0.51945 0.682328,-0.28245 1.655142,-0.89697 2.161807,-1.3656 1.07575,-0.995 1.990891,-1.11732 2.896012,-0.38711 0.31492,0.25407 0.948967,0.66508 1.408989,0.91336 0.460025,0.24828 1.447731,0.94992 2.194903,1.55922 1.478137,1.20536 2.42613,1.83518 3.170441,2.10634 0.386318,0.14073 0.404921,0.17726 0.09667,0.18978 -0.209947,0.009 -0.811159,-0.27038 -1.336027,-0.61979 z m 1.705615,0.18056 c -0.767865,-0.18251 -2.25798,-1.12538 -3.403151,-2.15334 -0.326038,-0.29267 -1.279897,-0.96664 -2.119686,-1.49772 -0.839788,-0.53108 -1.770563,-1.12046 -2.068384,-1.30974 -0.734317,-0.46668 -1.738141,-0.24086 -2.594944,0.58378 -1.101008,1.05967 -2.103581,1.56932 -3.688125,1.87482 -2.303387,0.44409 -3.511777,0.21676 -5.554715,-1.04497 -0.959442,-0.59255 -2.483023,-1.73158 -3.385737,-2.53117 -1.733619,-1.53558 -3.085901,-2.35152 -4.657119,-2.81003 -0.524868,-0.15316 -1.397895,-0.53681 -1.940059,-0.85256 l -0.985753,-0.57409 -1.16255,0.39066 c -0.879977,0.29571 -1.614592,0.36278 -3.022328,0.27591 -3.00268,-0.18527 -7.594919,-2.18104 -10.523473,-4.57345 -1.015531,-0.82962 -4.410291,-4.3153 -4.410291,-4.52841 0,-0.0789 0.966234,-0.46943 2.147187,-0.86793 3.741125,-1.26241 10.836437,-5.93439 12.922766,-8.50911 0.81044,-1.00016 2.403836,-3.44735 2.522714,-3.87448 0.04487,-0.1612 0.311692,-0.12216 0.785474,0.11492 0.394637,0.19748 1.708882,0.66519 2.920545,1.03935 1.791914,0.55334 2.594439,0.68029 4.30051,0.68029 1.153618,0 2.47456,-0.11371 2.935424,-0.2527 0.746893,-0.22524 0.900237,-0.19957 1.411303,0.23627 1.51718,1.29385 5.177651,2.6365 7.84457,2.87735 2.785295,0.25155 6.30262,-0.42482 7.942237,-1.52726 0.833382,-0.56035 1.009012,-0.60819 1.203305,-0.32781 0.342161,0.49376 2.651484,2.10439 3.758316,2.62123 0.536272,0.25041 1.884885,0.63284 2.996915,0.84985 1.665909,0.32509 2.233509,0.34892 3.223899,0.13538 2.4464,-0.52747 3.78575,-0.95983 5.76329,-1.86046 1.11487,-0.50774 2.11192,-0.92317 2.21567,-0.92317 0.10374,0 0.62558,0.37597 1.15964,0.83549 1.6479,1.41789 3.15778,1.94823 5.92127,2.07983 4.17522,0.19883 8.70888,-1.18767 11.04294,-3.37719 0.59956,-0.56242 0.87632,-0.64598 2.48778,-0.75104 1.38648,-0.0904 2.29544,-0.31124 3.8624,-0.93845 1.12707,-0.45113 2.13404,-0.82024 2.23772,-0.82024 0.10367,0 0.32104,0.30696 0.48303,0.68213 0.41769,0.96738 1.34173,2.01717 3.48225,3.95616 2.36963,2.14651 2.89203,2.53533 5.68064,4.22806 2.29566,1.39349 4.9297,2.52532 7.05045,3.02953 1.60926,0.3826 2.96976,0.89073 2.96976,1.10916 0,0.10263 -0.51203,0.61677 -1.13785,1.14252 -0.62582,0.52575 -1.57813,1.406 -2.11624,1.95611 -1.55933,1.59409 -4.08719,2.7246 -7.49378,3.35138 -2.41331,0.44402 -2.98199,0.48126 -3.88507,0.2544 -1.63005,-0.40949 -2.49802,0.18413 -3.56188,2.43605 -0.72576,1.53626 -2.90035,4.05509 -4.11569,4.76722 -0.90022,0.52749 -1.36802,0.63758 -3.02058,0.71084 -1.07547,0.0477 -2.1826,0.0184 -2.46028,-0.0651 -0.27768,-0.0835 -0.98775,-0.69829 -1.57792,-1.36627 -1.4891,-1.68541 -1.74095,-1.81117 -3.2444,-1.62014 l -1.26415,0.16063 -1.81318,2.18326 c -1.69308,2.03864 -3.17312,3.24183 -4.00808,3.25835 -0.15746,0.003 -0.9734,0.26126 -1.81318,0.57366 -0.83979,0.3124 -1.95633,0.56634 -2.4812,0.56432 -0.97453,-0.004 -1.59083,-0.45205 -5.18914,-3.77444 -1.54048,-1.42235 -2.40799,-1.32786 -4.06488,0.44276 -2.58116,2.75833 -5.728919,3.99017 -8.50819,3.32957 z M 78.516527,199.6932 c 0.137777,-0.066 0.302396,-0.0579 0.365818,0.018 0.06342,0.076 -0.04931,0.12998 -0.250506,0.12006 -0.222343,-0.011 -0.267568,-0.0651 -0.115312,-0.13811 z m -1.058033,-0.23084 c 0.185702,-0.058 0.443365,-0.0541 0.572584,0.008 0.129218,0.0626 -0.02272,0.11004 -0.337639,0.10538 -0.314921,-0.005 -0.420647,-0.0559 -0.234945,-0.11385 z m 2.382132,-0.003 c 0.23619,-0.0545 0.622684,-0.0545 0.858875,0 0.23619,0.0545 0.04294,0.0991 -0.429438,0.0991 -0.472381,0 -0.665628,-0.0446 -0.429437,-0.0991 z m -5.010104,-1.17049 c -0.944762,-0.60195 -2.447793,-1.74545 -3.340069,-2.54112 -0.892275,-0.79566 -1.965869,-1.63856 -2.385763,-1.87312 -0.419894,-0.23455 -0.548726,-0.36314 -0.286292,-0.28574 0.622801,0.18368 1.308826,0.69146 3.053778,2.26034 0.787302,0.70786 2.276636,1.79458 3.309632,2.41494 1.032995,0.62036 1.763039,1.12595 1.622319,1.12354 -0.14072,-0.002 -1.028842,-0.4969 -1.973605,-1.09884 z m 54.395408,0.0749 c 0.10497,-0.0428 1.00679,-0.12143 2.00404,-0.17467 0.99725,-0.0532 1.59846,-0.0203 1.33603,0.0731 -0.45674,0.16267 -3.73408,0.2623 -3.34007,0.10154 z m 4.58066,-0.68487 c 1.60225,-0.72279 3.46928,-2.88585 4.94247,-5.72613 0.30397,-0.58604 0.81929,-1.26603 1.14517,-1.51109 0.60546,-0.45532 0.88304,-0.45295 2.88283,0.0246 0.60298,0.14401 0.6537,0.18834 0.24132,0.21094 -0.28717,0.0157 -0.89901,-0.0921 -1.35964,-0.23966 -1.31508,-0.42125 -1.88678,-0.0139 -3.0806,2.19484 -1.46086,2.70286 -3.56446,4.9315 -4.96241,5.25738 -0.42742,0.0996 -0.37904,0.0462 0.19086,-0.21092 z m -74.292669,-0.51301 c 0.603598,-0.0454 1.591304,-0.0454 2.194902,0 0.603598,0.0454 0.109745,0.0825 -1.097451,0.0825 -1.207196,0 -1.701049,-0.0371 -1.097451,-0.0825 z m -2.815201,-0.39614 c -1.012049,-0.39947 -0.644221,-0.40837 0.668014,-0.0162 0.577354,0.17257 0.835017,0.3146 0.572583,0.31563 -0.262434,0.001 -0.820703,-0.13373 -1.240597,-0.29947 z m 88.32459,-1.65061 c 0.18571,-0.058 0.44337,-0.0541 0.57259,0.008 0.12922,0.0626 -0.0227,0.11003 -0.33764,0.10538 -0.31492,-0.005 -0.42065,-0.0559 -0.23495,-0.11385 z m -78.208953,-2.12743 c -0.240607,-0.12383 -0.275886,-0.19646 -0.09543,-0.19646 0.15746,0 0.458066,0.0884 0.668013,0.19646 0.240607,0.12382 0.275886,0.19645 0.09543,0.19645 -0.157461,0 -0.458067,-0.0884 -0.668013,-0.19645 z m -1.576402,-0.61277 c -0.237179,-0.1981 -0.70956,-0.44808 -1.049736,-0.55549 -0.59537,-0.188 -0.590848,-0.19155 0.120901,-0.0948 0.40667,0.0553 0.879051,0.24862 1.049736,0.4296 0.170683,0.18098 0.48211,0.37917 0.692057,0.44042 l 0.381722,0.11138 -0.381722,0.0145 c -0.209947,0.008 -0.575779,-0.14756 -0.812958,-0.34567 z m -5.151451,-0.008 c 0.288677,-0.0524 0.761059,-0.0524 1.049736,0 0.288677,0.0524 0.05249,0.0952 -0.524868,0.0952 -0.577355,0 -0.813545,-0.0428 -0.524868,-0.0952 z m -1.523257,-0.22326 c 0.185703,-0.058 0.443365,-0.0541 0.572584,0.008 0.129218,0.0626 -0.02272,0.11003 -0.337639,0.10537 -0.314921,-0.005 -0.420647,-0.0559 -0.234945,-0.11384 z m 3.400057,0.0744 c 0.04374,-0.0462 0.423076,-0.14661 0.84297,-0.22319 0.532083,-0.097 0.647764,-0.0765 0.381723,0.0679 -0.366398,0.19881 -1.388677,0.32844 -1.224693,0.15529 z m -4.250635,-0.30076 c 0.137777,-0.066 0.302395,-0.0579 0.365818,0.018 0.06342,0.076 -0.04931,0.12998 -0.250505,0.12005 -0.222344,-0.011 -0.267568,-0.0651 -0.115313,-0.1381 z m -2.68668,-0.87468 c -2.687557,-1.10693 -5.461431,-2.93395 -7.284681,-4.79807 -2.577199,-2.63497 -3.414465,-3.54306 -3.266734,-3.54306 0.07708,0 1.025969,0.93552 2.108654,2.07892 1.082682,1.14341 2.255609,2.31221 2.606504,2.59734 1.482355,1.20455 4.089074,2.71743 6.108417,3.54518 1.190208,0.48788 2.035184,0.8871 1.877724,0.88716 -0.157461,5e-5 -1.124909,-0.34531 -2.149884,-0.76747 z m 89.850551,-0.916 c 0.73481,-0.16659 1.55074,-0.30095 1.81318,-0.29856 0.26243,0.002 -0.0811,0.14221 -0.76345,0.31072 -0.68233,0.16851 -1.49826,0.30287 -1.81318,0.29856 -0.31492,-0.004 0.0286,-0.14412 0.76345,-0.31072 z m 2.62797,-0.49742 c 0.1857,-0.058 0.44336,-0.0541 0.57258,0.008 0.12922,0.0626 -0.0227,0.11003 -0.33764,0.10537 -0.31492,-0.005 -0.42064,-0.0559 -0.23494,-0.11384 z m 2.33441,-0.815 c 2.1756,-1.1073 2.7059,-1.46598 3.92681,-2.65598 0.59622,-0.58112 1.56699,-1.49322 2.15726,-2.02688 0.59027,-0.53365 1.07322,-1.05836 1.07322,-1.16601 0,-0.10765 -0.57974,-0.41002 -1.28831,-0.67195 -0.70857,-0.26192 -1.11654,-0.475 -0.90659,-0.47351 0.72897,0.005 2.29033,0.7965 2.29033,1.16075 0,0.59588 -4.04547,4.21578 -5.94086,5.31591 -0.95805,0.55607 -1.9887,1.07489 -2.29033,1.15292 -0.30163,0.078 0.13868,-0.20782 0.97847,-0.63525 z m -105.259879,-6.5627 c 0,-0.18045 1.150973,-0.53358 1.270919,-0.38993 0.03563,0.0427 -0.235749,0.18805 -0.603067,0.32307 -0.367318,0.13501 -0.667852,0.1651 -0.667852,0.0669 z m 1.813181,-0.69293 c 0.209947,-0.10805 0.510553,-0.19645 0.668013,-0.19645 0.180456,0 0.145177,0.0726 -0.09543,0.19645 -0.209947,0.10805 -0.510554,0.19646 -0.668014,0.19646 -0.180455,0 -0.145176,-0.0726 0.09543,-0.19646 z m 105.927898,-0.22168 c -0.73482,-0.2338 -1.55075,-0.53963 -1.81318,-0.67962 l -0.47716,-0.25451 0.47716,0.1324 c 1.68425,0.46734 3.85087,1.21678 3.53093,1.22136 -0.20995,0.003 -0.98294,-0.18583 -1.71775,-0.41963 z M 48.014541,180.99154 c 0.871414,-0.4019 1.214269,-0.39597 0.477153,0.008 -0.314921,0.17271 -0.701415,0.31082 -0.858875,0.30693 -0.157461,-0.004 0.01431,-0.14573 0.381722,-0.31518 z m 1.526888,-0.62041 c 1.823564,-0.94244 5.065717,-3.05639 7.224192,-4.71033 2.893076,-2.21684 4.122654,-3.68772 5.658931,-6.76952 0.175333,-0.35172 0.2918,-0.33626 1.431458,0.19006 0.682329,0.31512 1.136418,0.57796 1.009087,0.58411 -0.127331,0.006 -0.683476,-0.20219 -1.235877,-0.46296 -0.5742,-0.27106 -1.031133,-0.37795 -1.066862,-0.24958 -0.15041,0.54041 -1.323211,2.46493 -2.217892,3.63947 -1.443347,1.89483 -7.251543,6.28297 -10.08942,7.62264 -0.965265,0.45567 -1.533985,0.58008 -0.713617,0.15611 z m 96.729201,-1.87686 c -4.12031,-2.56147 -8.37837,-6.49872 -8.93935,-8.26585 -0.16189,-0.50997 -0.26838,-0.57022 -0.80588,-0.456 -0.47085,0.10007 -0.52782,0.0808 -0.23761,-0.0803 0.67272,-0.3735 1.00616,-0.26546 1.19626,0.38761 0.30641,1.0527 1.1499,2.06189 3.46509,4.14576 2.60505,2.34477 2.80773,2.49529 6.00198,4.45729 1.35097,0.8298 2.3648,1.50873 2.25297,1.50873 -0.11184,0 -1.4319,-0.76376 -2.93346,-1.69723 z m -28.54045,-2.80428 c 0.1857,-0.058 0.44336,-0.0541 0.57258,0.008 0.12922,0.0626 -0.0227,0.11003 -0.33764,0.10538 -0.31492,-0.005 -0.42064,-0.0559 -0.23494,-0.11385 z m -18.946589,-0.28252 c -0.37823,-0.0862 0.28414,-0.14747 1.526879,-0.14135 1.2072,0.006 2.53846,-0.0652 2.95835,-0.15816 0.61453,-0.13601 0.5773,-0.10343 -0.19086,0.16703 -0.97178,0.34216 -3.087349,0.40742 -4.294369,0.13248 z m 15.555169,-0.14308 c -0.50301,-0.21103 -0.56811,-0.2729 -0.19086,-0.18138 0.31492,0.0764 1.08791,0.21437 1.71775,0.30658 l 1.14517,0.16767 -0.95431,0.0137 c -0.52487,0.008 -1.29785,-0.13042 -1.71775,-0.30658 z m 4.692,0.27238 c 0.0437,-0.0457 0.68074,-0.13907 1.41556,-0.20756 0.81036,-0.0755 1.11074,-0.0535 0.76344,0.056 -0.5801,0.18289 -2.32525,0.30429 -2.179,0.15157 z m -22.319859,-0.63636 c -0.352675,-0.12155 -0.607362,-0.26156 -0.565968,-0.31113 0.04139,-0.0496 0.501721,0.0499 1.022948,0.22118 0.52123,0.17122 0.77592,0.31123 0.56597,0.31113 -0.20995,-1e-4 -0.67028,-0.0996 -1.02295,-0.22118 z m 25.548599,0.0336 c 0.65258,-0.2503 1.15437,-0.2503 0.66801,0 -0.20995,0.10805 -0.5535,0.19343 -0.76344,0.18973 -0.30687,-0.005 -0.28815,-0.0426 0.0954,-0.18973 z m -16.7007,-0.56508 c 0.83959,-0.29733 1.55646,-0.50474 1.59305,-0.46093 0.0959,0.11491 -2.43205,1.02834 -2.80568,1.01376 -0.17265,-0.007 0.37304,-0.25551 1.21263,-0.55283 z m 6.57383,-0.18796 c -0.57118,-0.41418 -1.27323,-0.93917 -1.56011,-1.16666 -0.51051,-0.4048 -0.54883,-0.40101 -1.80014,0.17816 -0.70319,0.32547 -1.3108,0.55312 -1.35023,0.50589 -0.0751,-0.0899 2.42281,-1.27878 2.68674,-1.27878 0.0835,0 0.43425,0.25799 0.77942,0.5733 0.34517,0.31532 1.09096,0.8792 1.6573,1.25307 0.56634,0.37388 0.93877,0.68164 0.82762,0.68392 -0.11115,0.002 -0.66942,-0.33473 -1.2406,-0.7489 z m 12.7204,-0.11507 c 1.48018,-0.62159 2.20968,-1.10872 3.38552,-2.26068 0.33458,-0.32779 0.76957,-0.51857 1.14517,-0.50227 l 0.60565,0.0263 -0.69385,0.16205 c -0.38161,0.0891 -1.05624,0.53356 -1.49917,0.98762 -0.82255,0.84324 -2.6211,1.82709 -3.8191,2.08916 -0.36741,0.0804 0.0267,-0.14561 0.87578,-0.50217 z m -30.449381,-0.41466 c -0.676905,-0.45121 -1.500942,-1.06721 -1.831198,-1.36889 -0.330255,-0.30169 -0.678244,-0.54722 -0.773308,-0.54562 -0.09507,0.002 -0.678801,0.31018 -1.297193,0.68575 -0.618392,0.37557 -1.262548,0.68041 -1.431458,0.67743 -0.16891,-0.003 0.199528,-0.25488 0.818754,-0.55977 0.619226,-0.30489 1.216144,-0.66247 1.326484,-0.79462 0.336632,-0.40317 0.774841,-0.27346 1.634687,0.48386 0.452192,0.39827 1.349459,1.06454 1.993926,1.4806 0.644467,0.41606 1.085872,0.75764 0.980898,0.75905 -0.104974,0.001 -0.74469,-0.36659 -1.421592,-0.81779 z m -11.318385,-0.0287 c 0.551111,-0.0462 1.45293,-0.0462 2.004041,0 0.551112,0.0462 0.100202,0.084 -1.00202,0.084 -1.102223,0 -1.553132,-0.0378 -1.002021,-0.084 z m -2.62434,-0.29986 c -0.321784,-0.13098 -0.166415,-0.15124 0.477153,-0.0622 0.524868,0.0726 0.990092,0.17026 1.033831,0.21701 0.150292,0.16065 -1.034136,0.0393 -1.510984,-0.15479 z m 5.741737,0.1558 c 0.04374,-0.0462 0.637795,-0.14086 1.320123,-0.21035 0.781679,-0.0796 1.028789,-0.0585 0.668014,0.057 -0.583144,0.18669 -2.132857,0.30626 -1.988137,0.1534 z m -7.841209,-0.80469 c -1.514482,-0.5871 -4.498767,-2.53427 -3.890676,-2.53857 0.117061,-9.2e-4 0.417667,0.19008 0.668014,0.42424 0.724535,0.6777 2.065498,1.44011 3.508954,1.99504 0.734815,0.2825 1.207196,0.51647 1.049736,0.51993 -0.157461,0.003 -0.758673,-0.17683 -1.336028,-0.40064 z m 51.878428,-1.09614 c 0.13777,-0.066 0.30239,-0.0579 0.36581,0.018 0.0634,0.076 -0.0493,0.12998 -0.2505,0.12005 -0.22234,-0.011 -0.26757,-0.0651 -0.11531,-0.1381 z m 1.2323,-0.23084 c 0.1857,-0.058 0.44336,-0.0541 0.57258,0.008 0.12922,0.0626 -0.0227,0.11003 -0.33764,0.10538 -0.31492,-0.005 -0.42065,-0.0559 -0.23494,-0.11385 z m 0.91886,-0.15231 c 0.0437,-0.0452 0.33719,-0.15117 0.65211,-0.23553 0.41816,-0.11202 0.49537,-0.0908 0.28629,0.0786 -0.25773,0.20889 -1.12993,0.35471 -0.9384,0.1569 z m -62.761482,-0.30402 c 0.183704,-0.0575 0.48431,-0.0575 0.668014,0 0.183704,0.0575 0.0334,0.10454 -0.334007,0.10454 -0.367408,0 -0.517711,-0.0471 -0.334007,-0.10454 z m -1.332395,-0.22942 c 0.185702,-0.058 0.443364,-0.0541 0.572583,0.008 0.129218,0.0626 -0.02272,0.11003 -0.337639,0.10537 -0.314921,-0.005 -0.420647,-0.0559 -0.234944,-0.11384 z m 2.525277,0.0432 c 0.408324,-0.16917 3.41122,-0.26254 3.052681,-0.0949 -0.209344,0.0979 -1.024782,0.17706 -1.812084,0.17597 -0.787302,-10e-4 -1.345571,-0.0376 -1.240597,-0.0811 z m 29.82204,-0.0362 c 0.13122,-0.0634 0.34594,-0.0634 0.47715,0 0.13122,0.0634 0.0239,0.11529 -0.23857,0.11529 -0.26244,0 -0.3698,-0.0519 -0.23858,-0.11529 z m 14.64859,-0.16688 c -0.4199,-0.15822 -0.96944,-0.42029 -1.22122,-0.58237 -0.49316,-0.31748 -2.95213,-2.9853 -2.75159,-2.9853 0.0666,0 0.62024,0.57023 1.23034,1.26719 1.58339,1.8088 2.46316,2.22009 5.12823,2.3974 l 2.1949,0.14603 -1.90861,0.0224 c -1.05825,0.0124 -2.24875,-0.1058 -2.67205,-0.26531 z m 18.91632,-0.0146 c 0.32652,-0.18049 0.84184,-0.38671 1.14517,-0.45826 0.47194,-0.11133 0.45514,-0.0848 -0.11651,0.18357 -0.36741,0.17252 -0.88273,0.37873 -1.14517,0.45826 -0.35891,0.10876 -0.33004,0.0633 0.11651,-0.18357 z m -68.063047,-0.35289 c -1.411146,-0.55431 -0.982778,-0.56672 0.572584,-0.0166 0.682328,0.24134 1.068822,0.43658 0.858874,0.43387 -0.209947,-0.003 -0.854103,-0.1905 -1.431458,-0.41729 z m 33.257538,0.2996 c 0.18371,-0.0575 0.48431,-0.0575 0.668019,0 0.1837,0.0575 0.0334,0.10454 -0.334009,0.10454 -0.36741,0 -0.51771,-0.047 -0.33401,-0.10454 z m 3.006069,-0.19506 c 1.36599,-0.40828 1.90775,-0.38737 0.66801,0.0258 -0.52487,0.17492 -1.12608,0.31127 -1.33603,0.303 -0.20995,-0.008 0.0907,-0.15622 0.66802,-0.32878 z m 18.97216,-0.12421 c 0.82961,-0.24406 1.54127,-0.40435 1.58148,-0.35619 0.0992,0.11883 -2.31809,0.83722 -2.74736,0.81648 -0.18837,-0.009 0.33627,-0.21624 1.16588,-0.46029 z m -23.027959,0.0969 c 0.13122,-0.0634 0.34593,-0.0634 0.47715,0 0.13122,0.0634 0.0239,0.11529 -0.23857,0.11529 -0.26244,0 -0.3698,-0.0519 -0.23858,-0.11529 z m -1.840869,-0.76526 c -0.56634,-0.37387 -1.327384,-0.96347 -1.691207,-1.31021 -0.363823,-0.34675 -0.92868,-0.86189 -1.255238,-1.14476 -0.326557,-0.28288 -0.519871,-0.51432 -0.429588,-0.51432 0.09028,0 0.774961,0.55932 1.521503,1.24294 0.746543,0.68361 1.829731,1.50551 2.407089,1.82644 0.57735,0.32093 0.9209,0.58265 0.76344,0.5816 -0.15746,-0.001 -0.74966,-0.30781 -1.315999,-0.68169 z m 2.270309,0.37194 c -1.39982,-0.37046 -2.285645,-0.90748 -3.873748,-2.34843 -1.495006,-1.35648 -2.899844,-2.02278 -3.826078,-1.81468 -0.338387,0.076 -1.068461,0.54608 -1.622386,1.04455 -1.228143,1.10521 -1.861722,1.32749 -4.32813,1.51846 -2.956295,0.22891 -6.451725,-0.82161 -8.631686,-2.59415 -1.064205,-0.86532 -1.604924,-0.98024 -2.904162,-0.61724 -0.633353,0.17695 -1.946254,0.33997 -2.917561,0.36227 -1.931999,0.0444 -4.044463,-0.5599 -6.71435,-1.9206 -1.405295,-0.7162 -1.576537,-0.82993 -3.544979,-2.35439 -0.682328,-0.52843 -2.292719,-1.76244 -3.578645,-2.74225 -1.285927,-0.9798 -2.338049,-1.85243 -2.338049,-1.93918 0,-0.14893 1.895722,-1.02447 5.515048,-2.54712 3.121092,-1.31304 7.604461,-4.35646 9.5456,-6.47979 1.486161,-1.62564 3.57567,-4.27298 4.172143,-5.28596 l 0.423257,-0.71882 2.339371,0.10992 c 2.033987,0.0956 2.486531,0.0477 3.4667,-0.36695 0.620031,-0.26229 1.242475,-0.47689 1.383206,-0.47689 0.140731,0 0.771327,0.45445 1.401321,1.00989 1.267722,1.1177 2.825601,1.80902 4.904311,2.17634 1.988437,0.35136 3.052657,0.30142 4.652445,-0.21833 0.780202,-0.25347 2.277425,-0.67195 3.327161,-0.92995 1.049736,-0.25799 2.347931,-0.72901 2.884881,-1.0467 l 0.97627,-0.57763 0.932339,0.78558 c 2.77331,2.33675 4.34096,3.14224 6.99283,3.59307 1.85152,0.31477 3.2982,0.124 5.39025,-0.71082 1.44877,-0.57812 3.70697,-2.03281 5.02983,-3.24012 l 1.02081,-0.93166 0.92506,0.62278 c 1.32323,0.89084 3.58242,1.52481 5.43373,1.52481 2.39773,0 3.91012,0.23715 3.91012,0.61313 0,0.56141 0.69949,1.98193 1.53463,3.11648 0.72486,0.98474 4.2838,4.4788 6.64521,6.52407 1.51187,1.30946 6.1227,3.85619 8.60606,4.75345 0.15203,0.0549 -0.62096,0.69689 -1.71775,1.42658 -1.09679,0.72969 -2.78895,1.95231 -3.76034,2.71692 -1.33455,1.05047 -2.24409,1.56624 -3.72179,2.1105 -1.07559,0.39616 -2.70285,1.02048 -3.61613,1.38738 -1.7996,0.72296 -2.73774,0.81547 -4.03987,0.39837 -0.77005,-0.24667 -0.92538,-0.21805 -1.89258,0.34869 -0.57952,0.33957 -1.19032,0.86716 -1.35733,1.17242 -0.4821,0.88121 -1.77346,1.6402 -3.90867,2.29729 -1.74504,0.53702 -2.2674,0.59988 -4.40407,0.52991 -2.27302,-0.0744 -2.47393,-0.1188 -3.2217,-0.71171 -0.43863,-0.34778 -1.21622,-1.13117 -1.72799,-1.74087 -1.10387,-1.31511 -1.92024,-1.60107 -3.01162,-1.05494 -0.39534,0.19784 -0.85077,0.50023 -1.01207,0.67199 -0.45477,0.48424 -3.74405,1.93566 -5.50164,2.42763 -1.786,0.49993 -2.72314,0.52793 -4.239259,0.1267 z m 7.212389,-0.82219 c 1.08005,-0.49254 2.42176,-1.20939 2.98158,-1.59299 0.55983,-0.38361 1.26507,-0.68563 1.56721,-0.67118 0.51382,0.0246 0.50615,0.0365 -0.11866,0.18425 -0.36741,0.0869 -1.05451,0.42942 -1.52689,0.76121 -0.92604,0.65043 -4.21829,2.23297 -4.62118,2.22134 -0.13518,-0.004 0.6379,-0.41008 1.71794,-0.90263 z m 17.93087,0.30224 c 0.44466,-0.18854 1.36967,-0.95189 2.05556,-1.69633 0.6859,-0.74444 1.35037,-1.35353 1.47661,-1.35353 0.12624,0 0.0172,0.172 -0.24238,0.38221 -0.25955,0.21022 -0.88169,0.83356 -1.38254,1.3852 -0.87404,0.96267 -1.95475,1.68138 -2.47102,1.64331 -0.13459,-0.01 0.11911,-0.17231 0.56377,-0.36086 z m -40.075916,-0.46852 c 0.237414,-0.0547 0.580964,-0.0526 0.763444,0.005 0.18248,0.0572 -0.01178,0.10195 -0.431663,0.0994 -0.419894,-0.003 -0.569195,-0.0494 -0.331781,-0.10402 z m -1.71775,-0.22858 c 0.237414,-0.0547 0.580964,-0.0526 0.763444,0.005 0.182481,0.0572 -0.01178,0.10195 -0.431662,0.0994 -0.419895,-0.003 -0.569196,-0.0494 -0.331782,-0.10403 z m 3.435499,0 c 0.237414,-0.0547 0.580964,-0.0526 0.763445,0.005 0.18248,0.0572 -0.01178,0.10195 -0.431663,0.0994 -0.419894,-0.003 -0.569196,-0.0494 -0.331782,-0.10403 z m -5.012328,-0.2955 c -0.486356,-0.25031 0.01542,-0.25031 0.668014,0 0.383579,0.14712 0.402295,0.18433 0.09543,0.18973 -0.209947,0.004 -0.553497,-0.0817 -0.763444,-0.18973 z m 6.950095,-0.0195 c 0.463398,-0.10892 1.183326,-0.48338 1.59984,-0.83214 1.595833,-1.33625 1.766744,-1.43136 2.520007,-1.40241 l 0.763445,0.0293 -0.896486,0.15006 c -0.597073,0.0999 -1.155487,0.39933 -1.671966,0.89642 -0.938917,0.90367 -1.911783,1.41552 -2.626382,1.38181 -0.388952,-0.0183 -0.305613,-0.078 0.311542,-0.22308 z m -9.409816,-1.04214 c -1.503853,-0.82256 -3.01281,-1.90991 -2.650472,-1.90991 0.105466,0 0.396586,0.19032 0.646933,0.42293 0.3831,0.35596 2.828027,1.74854 3.795246,2.1617 0.254481,0.1087 0.254481,0.12376 0,0.13549 -0.15746,0.007 -0.963728,-0.35733 -1.791707,-0.81021 z m 51.577386,-0.6444 c -0.0685,-0.0848 -0.54085,-0.24586 -1.04974,-0.35802 l -0.92524,-0.20393 0.9543,0.13572 c 1.43561,0.20416 2.79518,0.21001 3.4355,0.0148 0.46714,-0.14243 0.5077,-0.12754 0.22021,0.0808 -0.413,0.29933 -2.45347,0.55537 -2.63503,0.33064 z m -61.866676,-0.9726 c -0.608566,-0.19111 -1.068144,-0.39338 -1.021286,-0.4495 0.04686,-0.0561 0.458889,0.0255 0.915624,0.1814 0.456734,0.15589 1.560468,0.35208 2.452744,0.43598 l 1.622319,0.15253 -1.431458,0.0135 c -0.787302,0.007 -1.929376,-0.14284 -2.537943,-0.33395 z m 64.949516,0.31036 c 0,-0.16938 3.24915,-1.35981 3.35744,-1.23011 0.045,0.0538 -0.55742,0.32034 -1.33863,0.5922 -0.78122,0.27186 -1.55504,0.55617 -1.71961,0.6318 -0.16456,0.0756 -0.2992,0.0784 -0.2992,0.006 z m -59.262365,-0.50499 c 0.524868,-0.17491 1.12608,-0.31126 1.336027,-0.30299 0.209948,0.008 -0.09066,0.15621 -0.668013,0.32878 -1.365993,0.40827 -1.907752,0.38736 -0.668014,-0.0258 z m -8.970471,-1.092 c -1.942534,-0.96281 -2.427864,-1.26953 -4.346695,-2.74703 -0.863499,-0.6649 -2.618866,-2.00867 -3.900815,-2.98616 -2.591023,-1.97567 -2.852823,-2.2462 -2.490779,-2.57378 0.132511,-0.1199 1.872792,-0.91552 3.86729,-1.76804 3.645603,-1.55827 7.085416,-3.51666 9.674617,-5.50804 1.477532,-1.13639 4.517993,-4.66512 5.876811,-6.82058 0.447182,-0.70935 0.953042,-1.2825 1.124133,-1.27366 0.278988,0.0144 0.277949,0.0321 -0.01008,0.17144 -0.176631,0.0854 -0.600008,0.61713 -0.94084,1.1815 -1.171838,1.9404 -4.26047,5.5254 -5.855548,6.79658 -2.529936,2.0162 -6.354263,4.20863 -10.105498,5.79331 -1.914568,0.8088 -3.482014,1.58781 -3.483215,1.73114 -0.0029,0.34664 7.877663,6.3329 9.504036,7.2195 0.702589,0.383 1.706871,0.88069 2.231739,1.10597 0.524868,0.22528 0.825474,0.41524 0.668014,0.42212 -0.157461,0.007 -0.973392,-0.32803 -1.813181,-0.74427 z m 72.720296,-0.11395 c 1.34756,-0.60229 2.33184,-1.22854 4.14616,-2.63799 0.8676,-0.67398 2.36931,-1.75753 3.33715,-2.40789 0.96784,-0.65036 1.81077,-1.2814 1.87316,-1.40232 0.0624,-0.12091 -0.0853,-0.31531 -0.32825,-0.432 -0.24293,-0.11669 -0.31287,-0.21711 -0.15541,-0.22315 0.44433,-0.0171 0.8299,0.36009 0.71751,0.70184 -0.0558,0.16984 -0.8984,0.82311 -1.87234,1.45172 -0.97393,0.62861 -2.55113,1.7497 -3.5049,2.49132 -1.88847,1.46842 -3.69725,2.55301 -4.59703,2.7565 -0.31492,0.0712 -0.14214,-0.0629 0.38395,-0.29803 z m 7.53678,-7.28014 c -2.79272,-1.197 -6.82525,-3.72178 -8.30245,-5.1982 -0.52487,-0.52459 -1.51258,-1.45764 -2.1949,-2.07345 -3.06887,-2.76969 -4.32993,-4.42921 -4.80314,-6.32082 -0.21251,-0.8495 -0.22576,-0.85888 -1.33297,-0.94305 l -1.11832,-0.085 1.16808,0.0178 1.16807,0.0178 0.37752,1.21456 c 0.51531,1.65788 2.02529,3.53109 5.30051,6.5756 3.52669,3.27826 6.40846,5.20663 9.7376,6.51606 0.57736,0.22708 0.87797,0.41029 0.66802,0.40713 -0.20995,-0.003 -0.51055,-0.061 -0.66802,-0.12846 z m -37.79049,-11.95491 c -0.36741,-0.0919 0.19086,-0.1155 1.2406,-0.0524 1.04973,0.0631 1.9444,0.15187 1.98814,0.19723 0.1422,0.14748 -2.54162,0.0271 -3.22874,-0.14485 z m 4.29438,-0.36016 c 0.52486,-0.17492 1.04019,-0.30923 1.14516,-0.29847 0.323,0.0331 -1.31143,0.62243 -1.71775,0.61937 -0.20995,-0.002 0.0477,-0.14599 0.57259,-0.3209 z m -6.41179,-0.20435 c -1.04273,-0.45977 -1.82111,-0.97061 -3.74836,-2.46 l -1.762259,-1.36188 -0.68126,0.50426 c -0.37469,0.27734 -0.71621,0.46239 -0.75894,0.41122 -0.0427,-0.0512 0.28723,-0.33178 0.73324,-0.62357 l 0.81091,-0.53054 1.233129,1.02607 c 1.76353,1.4674 3.28324,2.44856 4.53504,2.92792 0.59834,0.22913 0.91612,0.41489 0.70618,0.41279 -0.20995,-0.002 -0.6904,-0.13992 -1.06768,-0.30627 z m 9.64419,-1.1749 c 1.57101,-0.95919 3.15239,-2.19009 3.63616,-2.8303 0.41734,-0.55231 0.9959,-0.59224 1.44998,-0.10008 0.18284,0.19817 0.83376,0.60718 1.44649,0.90891 0.61273,0.30173 0.97257,0.55104 0.79965,0.55402 -0.17292,0.003 -0.92727,-0.37215 -1.67633,-0.83362 l -1.36193,-0.83905 -0.51857,0.50143 c -1.36054,1.31554 -4.4162,3.46444 -4.90838,3.45182 -0.10498,-0.003 0.40484,-0.3686 1.13293,-0.81313 z m -24.608842,0.15071 c 1.154709,-0.078 2.205504,-0.22067 2.335103,-0.3171 0.31932,-0.23761 5.2395,-1.55779 5.34313,-1.43367 0.0453,0.0543 -0.59016,0.27051 -1.412161,0.48054 -0.822001,0.21004 -2.279131,0.63035 -3.238069,0.93403 -1.296485,0.41057 -2.177345,0.54263 -3.435499,0.51505 l -1.691976,-0.0371 z m -4.294375,-0.44143 c -1.333771,-0.51357 -1.765575,-0.7866 -3.0352,-1.9191 l -1.03116,-0.9198 -1.259173,0.473 c -0.692546,0.26016 -1.645668,0.5285 -2.118049,0.59632 l -0.858875,0.12331 0.763445,-0.22721 c 0.419894,-0.12497 1.381634,-0.44598 2.137201,-0.71335 l 1.373755,-0.48614 1.074273,0.9714 c 1.295294,1.17124 2.394705,1.77704 3.968624,2.18679 0.718844,0.18715 0.956271,0.30952 0.607478,0.3131 -0.31492,0.003 -1.044964,-0.17601 -1.622319,-0.39832 z m 39.177867,-0.64396 c 0.1857,-0.058 0.44336,-0.0541 0.57258,0.008 0.12922,0.0626 -0.0227,0.11004 -0.33764,0.10538 -0.31492,-0.005 -0.42064,-0.0559 -0.23494,-0.11385 z m -2.15082,-0.30643 c -0.30803,-0.12309 -0.10508,-0.14455 0.57258,-0.0605 0.57736,0.0716 1.08553,0.16764 1.12926,0.21347 0.15292,0.16022 -1.22895,0.036 -1.70184,-0.15293 z m -47.38126,-1.07203 c 0.341164,-0.0507 0.899433,-0.0507 1.240597,0 0.341164,0.0507 0.06203,0.0922 -0.620299,0.0922 -0.682328,0 -0.961462,-0.0415 -0.620298,-0.0922 z m 31.04855,-1.16485 c -1.19904,-0.49644 -3.51317,-2.20609 -4.74769,-3.50754 -0.69875,-0.73662 -1.14415,-1.01438 -1.804749,-1.12546 l -0.87705,-0.14748 0.79955,-0.0305 c 0.682129,-0.0261 0.934389,0.10929 1.717749,0.92161 1.08879,1.12905 3.2738,2.83909 4.37674,3.42533 0.43257,0.22993 1.2485,0.50995 1.81318,0.62228 0.82276,0.16366 0.894,0.20806 0.35868,0.22349 -0.36741,0.0106 -1.1038,-0.16117 -1.63641,-0.38169 z m 3.1792,0.33191 c 0.0437,-0.0462 0.42308,-0.14662 0.84297,-0.22319 0.53208,-0.097 0.64776,-0.0765 0.38172,0.0679 -0.3664,0.19881 -1.38867,0.32843 -1.22469,0.15529 z m -2.24063,-0.61126 c -1.35748,-0.32164 -3.5606,-1.84062 -5.38697,-3.71412 -0.56484,-0.57942 -1.2772,-1.11931 -1.58303,-1.19975 -0.852329,-0.22421 -2.336909,0.30664 -3.256059,1.16428 -0.679989,0.63449 -1.287891,0.90284 -3.397733,1.49993 -1.413265,0.39996 -3.019651,0.77276 -3.569743,0.82844 -1.307128,0.13231 -3.550471,-0.3291 -4.100507,-0.8434 -0.238863,-0.22335 -0.819058,-0.6401 -1.28932,-0.92612 -0.470265,-0.28601 -1.158581,-0.81219 -1.52959,-1.16927 -1.046919,-1.00761 -1.628598,-1.04331 -3.26248,-0.2002 -1.395889,0.7203 -1.445324,0.72836 -3.705098,0.604 -1.259683,-0.0693 -2.713577,-0.28605 -3.230877,-0.48162 -0.517299,-0.19557 -1.954975,-0.60683 -3.194835,-0.91393 -1.239861,-0.30709 -2.663196,-0.77945 -3.162969,-1.04968 l -0.908678,-0.49132 0.668013,-0.34493 c 1.811012,-0.93512 5.169978,-3.03427 6.324091,-3.95217 0.712232,-0.56646 2.690456,-2.57287 4.396053,-4.45869 4.182973,-4.62497 4.333879,-4.80894 5.36004,-6.53438 l 0.895371,-1.50553 1.484714,0.10015 c 1.714392,0.11564 4.852156,-0.63066 7.021359,-1.67 1.231365,-0.58999 1.301783,-0.59947 1.488299,-0.20031 0.868843,1.85939 3.078077,2.96118 8.275469,4.12713 1.65107,0.37039 1.85467,0.3705 3.62636,0.002 2.04474,-0.42528 3.64787,-1.24102 5.83406,-2.96865 l 1.28491,-1.01541 1.12293,0.54322 c 1.21764,0.58904 3.53512,1.2356 4.42875,1.2356 0.45776,0 0.60796,0.14451 0.83923,0.80742 0.92247,2.64414 5.56721,8.72467 8.59848,11.25645 0.94476,0.78909 2.44779,2.06123 3.34006,2.82699 1.85121,1.58872 3.29876,2.47607 4.04454,2.47931 1.10521,0.005 0.62326,0.46444 -1.80293,1.71946 -3.90363,2.01925 -3.65588,1.94866 -6.38911,1.82069 -3.49594,-0.16367 -3.7336,-0.23152 -4.86617,-1.38935 -1.40509,-1.43641 -2.80259,-1.82361 -4.03146,-1.11698 -0.33079,0.19021 -1.1597,0.91597 -1.84203,1.6128 -2.89162,2.95307 -5.81486,4.15964 -8.52314,3.51792 z m 3.95838,0.16094 c 0.18391,-0.17835 1.70184,-0.82424 1.70184,-0.72414 0,0.13684 -1.31183,0.80126 -1.582,0.80126 -0.10965,0 -0.16358,-0.0347 -0.11984,-0.0771 z m -21.292437,-1.06305 c 0.527328,-0.0928 1.442366,-0.33716 2.033415,-0.54294 0.591051,-0.20578 1.19025,-0.36483 1.331554,-0.35343 0.581477,0.0469 -2.857576,1.08654 -3.560305,1.0763 -0.7298,-0.0107 -0.721192,-0.0186 0.195336,-0.17993 z m 23.185147,0.14788 c 0,-0.059 0.37811,-0.37258 0.84024,-0.69693 0.46214,-0.32436 1.38543,-1.14285 2.05176,-1.81886 1.5427,-1.56512 1.85121,-1.74936 2.92926,-1.74936 1.00741,0 1.38506,0.19551 2.54295,1.31651 0.45385,0.4394 1.1839,0.94229 1.62231,1.11754 0.7459,0.29816 0.75439,0.31067 0.13224,0.19454 -0.61851,-0.11544 -0.92422,-0.32668 -2.65569,-1.83505 -0.48099,-0.41901 -0.891,-0.56496 -1.58715,-0.56496 -1.12995,0 -1.40721,0.16515 -3.04165,1.81169 -1.1617,1.17029 -2.83427,2.48326 -2.83427,2.22488 z m -25.239154,-0.3123 c 0.237414,-0.0547 0.580964,-0.0526 0.763445,0.005 0.18248,0.0572 -0.01178,0.10195 -0.431663,0.0994 -0.419894,-0.003 -0.569196,-0.0493 -0.331782,-0.10403 z m -1.878489,-0.59996 c -1.629182,-1.02955 -2.757246,-1.8402 -3.29163,-2.36544 -0.716408,-0.70415 -1.613419,-0.68 -2.854616,0.0769 -0.765215,0.46662 -1.327005,0.62184 -2.427134,0.67059 l -1.431458,0.0635 1.43317,-0.18166 c 0.926621,-0.11745 1.784486,-0.39487 2.427134,-0.78489 1.241168,-0.75325 2.090924,-0.76876 2.934755,-0.0536 1.051213,0.89098 3.465352,2.56181 4.084022,2.82656 0.314921,0.13477 0.436837,0.25315 0.270924,0.26307 -0.165914,0.01 -0.681239,-0.22182 -1.145167,-0.51499 z m 7.792957,-0.3041 c 0.131217,-0.0634 0.345936,-0.0634 0.477153,0 0.131217,0.0634 0.02386,0.1153 -0.238576,0.1153 -0.262434,0 -0.369794,-0.0519 -0.238577,-0.1153 z m 0.954306,-0.22858 c 0.131217,-0.0634 0.345936,-0.0634 0.477153,0 0.131217,0.0634 0.02386,0.11529 -0.238577,0.11529 -0.262434,0 -0.369793,-0.0519 -0.238576,-0.11529 z m 30.64192,-0.0187 c 0.81835,-0.043 2.10666,-0.0427 2.86292,6.8e-4 0.75626,0.0433 0.0867,0.0784 -1.4879,0.0781 -1.5746,-2.3e-4 -2.19336,-0.0357 -1.37502,-0.0787 z m -29.162747,-0.50168 c 0.419895,-0.26087 1.055278,-0.73076 1.411968,-1.04419 0.35669,-0.31343 0.78613,-0.56584 0.9543,-0.56092 0.16819,0.005 0.005,0.16489 -0.36223,0.35548 -0.3674,0.1906 -0.88273,0.59069 -1.14516,0.88909 -0.262437,0.2984 -0.734818,0.60832 -1.049739,0.68871 -0.509937,0.13016 -0.489055,0.0943 0.190861,-0.32817 z m 34.164127,-0.007 c 2.27445,-1.2457 4.75598,-2.50169 4.81146,-2.43525 0.0349,0.0418 -0.47515,0.35972 -1.13341,0.70652 -0.65827,0.3468 -1.85182,0.97898 -2.65233,1.40485 -0.80052,0.42587 -1.53056,0.76704 -1.62232,0.75816 -0.0918,-0.009 0.17671,-0.20431 0.5966,-0.43428 z m -55.874575,-0.85381 c 0.236191,-0.0545 0.622685,-0.0545 0.858875,0 0.236191,0.0545 0.04294,0.0991 -0.429437,0.0991 -0.472381,0 -0.665628,-0.0446 -0.429438,-0.0991 z m -1.574603,-0.29586 c -0.486356,-0.2503 0.01542,-0.2503 0.668013,0 0.38358,0.14712 0.402295,0.18433 0.09543,0.18973 -0.209947,0.004 -0.553497,-0.0817 -0.763443,-0.18973 z m -1.431459,-0.45717 c -0.383579,-0.14712 -0.402295,-0.18433 -0.09543,-0.18973 0.209947,-0.004 0.553497,0.0817 0.763444,0.18973 0.486356,0.2503 -0.01542,0.2503 -0.668014,0 z m -1.81318,-0.45717 c -0.514317,-0.15673 -0.524028,-0.17493 -0.09543,-0.17875 0.262434,-0.002 0.691871,0.0781 0.954305,0.17875 0.373895,0.14341 0.394548,0.1821 0.09543,0.17876 -0.209948,-0.002 -0.639385,-0.0828 -0.954305,-0.17876 z m -1.288312,-0.37997 c 0.131217,-0.0634 0.345936,-0.0634 0.477153,0 0.131217,0.0634 0.02386,0.1153 -0.238577,0.1153 -0.262434,0 -0.369793,-0.0519 -0.238576,-0.1153 z m -1.097451,-0.23549 c -0.981959,-0.41914 -2.481194,-1.30565 -2.481194,-1.46714 0,-0.10532 0.253396,-0.34844 0.563105,-0.54025 0.725449,-0.44929 1.036522,-0.4397 0.343485,0.0106 -0.878833,0.57101 -0.834162,0.62662 1.288312,1.60396 0.950922,0.43787 1.203387,0.7843 0.286292,0.39284 z m 68.32826,-0.0317 c 0.15746,-0.11652 0.50101,-0.28064 0.76345,-0.36471 0.33161,-0.10624 0.38983,-0.0882 0.19086,0.059 -0.15746,0.11652 -0.50101,0.28063 -0.76345,0.36471 -0.33161,0.10623 -0.38983,0.0882 -0.19086,-0.059 z m 0.52487,-0.87571 c 0.13122,-0.0634 0.34594,-0.0634 0.47715,0 0.13122,0.0634 0.0239,0.1153 -0.23857,0.1153 -0.26244,0 -0.3698,-0.0519 -0.23858,-0.1153 z m -2.02497,-0.33943 c -1.02158,-0.35208 -0.61179,-0.39911 0.64123,-0.0736 0.67876,0.17634 0.91196,0.29692 0.57258,0.29605 -0.31492,-9.1e-4 -0.86114,-0.10091 -1.21381,-0.22246 z m -3.16822,-2.19505 c -1.1366,-0.97434 -2.71986,-2.31948 -3.51835,-2.98921 -2.60862,-2.18795 -7.05839,-7.81985 -8.10433,-10.25732 -0.54843,-1.27808 -0.33865,-1.11944 0.36173,0.27355 1.47106,2.92577 5.34027,7.7906 7.72225,9.70933 0.68232,0.54962 1.71297,1.42712 2.29033,1.94998 0.57735,0.52287 1.63946,1.43093 2.36024,2.01793 0.72078,0.587 1.23044,1.06727 1.13259,1.06727 -0.0979,0 -1.10786,-0.79719 -2.24446,-1.77153 z m -63.870695,0.60769 c 0.461439,-0.24519 0.872968,-0.4051 0.914507,-0.35535 0.08251,0.0988 -1.388253,0.84348 -1.614205,0.81729 -0.07661,-0.009 0.238257,-0.21675 0.699698,-0.46194 z m 1.16506,-0.52608 c 0,-0.0494 0.133292,-0.1511 0.296205,-0.22597 0.169851,-0.0781 0.246463,-0.0397 0.179597,0.0898 -0.112086,0.21721 -0.475802,0.32127 -0.475802,0.13614 z m 0.763444,-0.45275 c 0,-0.0646 0.850542,-0.68916 1.890094,-1.38794 2.147256,-1.44336 2.575012,-1.85699 7.013177,-6.78149 2.097538,-2.32738 3.542612,-4.13638 4.154147,-5.20029 l 0.937738,-1.63143 1.925178,-0.004 c 1.058847,-0.002 2.440502,-0.15259 3.070344,-0.33473 0.629841,-0.18214 1.273998,-0.32302 1.431458,-0.31306 0.15746,0.01 -0.314921,0.20363 -1.049736,0.43038 -0.828221,0.25556 -2.097737,0.4221 -3.340069,0.43815 l -2.004041,0.0259 -0.840264,1.49277 c -0.891978,1.58465 -7.449029,9.11923 -9.24997,10.62897 -1.088479,0.91247 -3.938056,2.82013 -3.938056,2.63634 z M 102.7397,117.85161 c 0.33882,-0.0505 0.94003,-0.0513 1.33602,-0.002 0.39599,0.0495 0.11878,0.0908 -0.61604,0.0918 -0.73481,9.1e-4 -1.05881,-0.0395 -0.71998,-0.09 z m -1.33178,-0.215 c 0.13122,-0.0634 0.34594,-0.0634 0.47716,0 0.13121,0.0634 0.0238,0.1153 -0.23858,0.1153 -0.26243,0 -0.36979,-0.0519 -0.23858,-0.1153 z m 4.76947,-0.26964 c 1.56186,-0.48137 2.61095,-1.08725 4.60002,-2.65666 0.96475,-0.7612 1.50529,-1.05107 1.80177,-0.96621 0.7463,0.21358 2.91532,1.27683 2.61846,1.28355 -0.15746,0.004 -0.80162,-0.24776 -1.43146,-0.55849 -0.62984,-0.31074 -1.24358,-0.56545 -1.36387,-0.56604 -0.12028,-6.8e-4 -1.05577,0.62904 -2.07887,1.39917 -1.963,1.47762 -3.32416,2.16375 -4.69605,2.36719 -0.55537,0.0823 -0.37265,-0.0181 0.55,-0.30251 z m -5.72377,0.0411 c 0.13122,-0.0634 0.34593,-0.0634 0.47715,0 0.13122,0.0634 0.0239,0.11529 -0.23857,0.11529 -0.26244,0 -0.3698,-0.0519 -0.23858,-0.11529 z m -0.954309,-0.22859 c 0.13122,-0.0634 0.34594,-0.0634 0.47716,0 0.131209,0.0634 0.0239,0.1153 -0.23858,0.1153 -0.26243,0 -0.36979,-0.0519 -0.23858,-0.1153 z m -1.76546,-0.41367 c -1.024971,-0.40457 -0.62153,-0.42038 0.57258,-0.0224 0.52487,0.17491 0.78253,0.31932 0.57259,0.3209 -0.20995,0.002 -0.72528,-0.13273 -1.14517,-0.29847 z m -2.160066,-0.85047 c -0.45322,-0.26312 -1.182665,-0.97703 -1.620987,-1.58647 -0.597107,-0.83021 -0.893002,-1.07722 -1.180002,-0.98508 -0.351952,0.11299 -0.355313,0.10219 -0.04138,-0.13302 0.290317,-0.21752 0.505486,-0.0558 1.431458,1.07621 0.682117,0.83385 1.411071,1.47505 1.948658,1.71405 0.472381,0.21001 0.730039,0.38428 0.572583,0.38728 -0.157461,0.003 -0.65711,-0.20985 -1.11033,-0.47297 z m 23.250215,0.0821 c 0,-0.14667 -0.19325,-0.27861 -0.42944,-0.2932 -0.35347,-0.0218 -0.36676,-0.0458 -0.0752,-0.13573 0.38071,-0.11736 0.85033,0.28155 0.63502,0.53941 -0.0717,0.0859 -0.13042,0.0362 -0.13042,-0.11048 z m -2.05176,-0.65284 c 0.18371,-0.0575 0.48431,-0.0575 0.66802,0 0.1837,0.0575 0.0334,0.10454 -0.33401,0.10454 -0.36741,0 -0.51771,-0.047 -0.33401,-0.10454 z m -1.04973,-0.2224 c 0.13121,-0.0634 0.34593,-0.0634 0.47715,0 0.13122,0.0634 0.0239,0.1153 -0.23858,0.1153 -0.26243,0 -0.36979,-0.0519 -0.23857,-0.1153 z m -24.770947,-1.10676 c 0.678632,-0.3017 1.264298,-0.51211 1.301482,-0.46758 0.08978,0.10753 -2.007383,1.04331 -2.303941,1.02805 -0.12728,-0.007 0.323826,-0.25876 1.002459,-0.56047 z m 12.376897,-0.95528 c 0.13778,-0.066 0.3024,-0.0579 0.36582,0.018 0.0634,0.076 -0.0493,0.12999 -0.2505,0.12006 -0.22235,-0.011 -0.26757,-0.0651 -0.11532,-0.1381 z m -2.6351,-0.47941 c -0.786659,-0.19574 -1.342639,-0.39089 -1.235499,-0.43367 0.10714,-0.0428 0.965489,0.11859 1.907449,0.35858 0.94196,0.23999 1.49793,0.43514 1.2355,0.43367 -0.26244,-0.001 -1.12079,-0.16283 -1.90745,-0.35858 z m 3.48568,0.24857 c 0.1857,-0.058 0.44337,-0.0542 0.57259,0.008 0.12921,0.0626 -0.0227,0.11004 -0.33764,0.10538 -0.31492,-0.005 -0.42065,-0.0559 -0.23495,-0.11385 z m 0.91886,-0.15231 c 0.0437,-0.0452 0.33719,-0.15116 0.65211,-0.23553 0.41817,-0.11202 0.49538,-0.0908 0.2863,0.0786 -0.25774,0.20888 -1.12993,0.35471 -0.93841,0.15689 z m -2.97425,-0.28656 c -0.20994,-0.0638 -1.30655,-0.38319 -2.436909,-0.70975 -1.92542,-0.55625 -2.10017,-0.65481 -2.76749,-1.56083 -0.391756,-0.53189 -0.885187,-1.31286 -1.096506,-1.73547 -0.267635,-0.53525 -0.626849,-0.86065 -1.183841,-1.07243 -0.772745,-0.29382 -0.872102,-0.26941 -2.95585,0.72617 -3.185924,1.52218 -5.086332,2.05079 -6.832325,1.90045 -5.535212,-0.47661 -6.262083,-0.59272 -7.536715,-1.20384 -1.499162,-0.71878 -1.587773,-0.5845 1.42916,-2.16573 4.512149,-2.36492 6.709859,-4.26264 9.214855,-7.957034 0.648695,-0.9567 2.08298,-2.87854 3.187302,-4.27076 1.10432,-1.39223 2.332758,-3.08946 2.729863,-3.77164 0.397104,-0.68218 1.266808,-2.1661 1.932675,-3.29759 0.665866,-1.131491 1.745412,-3.24018 2.398992,-4.685976 0.65358,-1.445795 1.48553,-3.065344 1.848779,-3.598999 0.36326,-0.533653 0.96199,-1.751888 1.33053,-2.707187 0.36854,-0.9553 0.69946,-1.701597 0.7354,-1.658438 0.1243,0.149288 1.40217,4.431507 2.06979,6.935995 0.73341,2.751245 2.58197,7.601035 3.6833,9.663295 0.90588,1.69627 4.1433,6.46647 5.97945,8.810484 0.93243,1.19032 2.11081,2.36144 3.34757,3.32692 1.92593,1.5035 5.46222,3.77065 6.871,4.40507 l 0.76344,0.34381 -1.16456,0.71217 c -1.77849,1.0876 -3.97883,1.54696 -5.87315,1.22611 -1.57239,-0.26631 -3.53144,-0.90392 -5.14485,-1.67448 -1.18297,-0.56499 -1.76694,-0.40833 -3.04014,0.81555 -1.23732,1.18939 -2.68657,2.29412 -3.62679,2.76462 -0.73334,0.36696 -3.18418,0.64581 -3.86298,0.43951 z m 5.92221,-1.46074 c 0.94173,-0.75474 2.00407,-1.62908 2.36076,-1.94296 0.73604,-0.64772 1.31725,-0.71376 2.18555,-0.24832 0.33078,0.17731 0.73026,0.37492 0.88772,0.43912 0.19656,0.0802 0.16665,0.11985 -0.0954,0.12668 -0.20995,0.006 -0.59644,-0.13705 -0.85888,-0.31673 -0.78519,-0.53756 -1.42933,-0.40533 -2.41504,0.49579 -1.15052,1.05179 -3.42285,2.81869 -3.62499,2.81869 -0.0836,0 0.61858,-0.61752 1.56031,-1.37227 z m -10.121149,0.80298 c -0.76355,-0.32067 -2.194901,-1.96774 -2.194901,-2.52568 0,-0.16124 -0.264252,-0.55946 -0.587228,-0.88494 -0.322973,-0.32548 -0.510944,-0.59178 -0.41771,-0.59178 0.302385,0 0.977489,0.89026 1.308364,1.72534 0.396454,1.00059 1.290065,1.84381 2.394075,2.25908 0.45839,0.17241 0.7046,0.31914 0.54714,0.32605 -0.15746,0.007 -0.62984,-0.13172 -1.04974,-0.30807 z m -13.217128,-1.19453 c 0.288678,-0.0524 0.761059,-0.0524 1.049736,0 0.288678,0.0524 0.05249,0.0952 -0.524868,0.0952 -0.577355,0 -0.813545,-0.0429 -0.524868,-0.0952 z m 31.932837,-0.0933 c -0.41366,-0.1161 -0.80016,-0.27454 -0.85887,-0.35207 -0.0587,-0.0775 0.1509,-0.0598 0.46582,0.0394 0.31492,0.0992 1.47441,0.25156 2.57663,0.33855 l 2.00404,0.15816 -1.71775,0.0135 c -0.94476,0.007 -2.0562,-0.0815 -2.46987,-0.19758 z m -34.938899,-0.20013 -1.526888,-0.14475 1.431458,-0.0149 c 0.787302,-0.008 1.68912,0.0636 2.004041,0.15962 0.496453,0.15129 0.509141,0.17252 0.09543,0.15962 -0.262434,-0.008 -1.164253,-0.08 -2.004042,-0.15962 z m 4.819242,0.0772 c 0.131217,-0.0634 0.345936,-0.0634 0.477153,0 0.131217,0.0634 0.02386,0.11529 -0.238576,0.11529 -0.262434,0 -0.369794,-0.0519 -0.238577,-0.11529 z m 35.682247,-0.40243 c 1.54499,-0.59931 3.17254,-1.65501 3.01679,-1.95682 -0.0565,-0.10947 -0.40787,-0.31965 -0.78085,-0.46708 -0.37298,-0.14742 -0.64337,-0.30968 -0.60087,-0.36058 0.11919,-0.14274 1.3482,0.39163 1.63545,0.71109 0.20908,0.23254 0.0642,0.41553 -0.79482,1.00419 -1.10066,0.75419 -3.02712,1.63024 -3.54654,1.61278 -0.16727,-0.006 0.3146,-0.25024 1.07084,-0.54358 z m -33.535059,-0.20732 c 0.787302,-0.29952 2.235048,-0.92512 3.217215,-1.39024 0.982165,-0.46511 1.969871,-0.80252 2.194902,-0.74978 0.394088,0.0923 0.393121,0.097 -0.02629,0.127 -0.239488,0.0171 -1.527801,0.53634 -2.862916,1.15381 -1.335113,0.61748 -2.77103,1.18593 -3.190924,1.26324 -0.472782,0.087 -0.218454,-0.0668 0.668013,-0.40403 z m -11.069943,-0.25106 c -2.889931,-1.25306 -2.91142,-1.29255 -1.206425,-2.2168 6.617684,-3.58734 8.471067,-5.02589 10.75204,-8.345474 0.679397,-0.98875 2.038087,-2.8176 3.01931,-4.0641 0.981222,-1.24651 2.236642,-2.94375 2.78982,-3.77164 1.376721,-2.06042 3.933468,-6.669275 4.909238,-8.849504 0.77494,-1.73151 3.211929,-6.20048 3.211929,-5.890068 0,0.224882 -0.76221,1.671706 -1.466619,2.783953 -0.34097,0.538373 -0.98684,1.824159 -1.43528,2.857303 -0.84683,1.950955 -3.387421,6.596536 -4.893707,8.948326 -0.477419,0.74541 -1.649665,2.33978 -2.604992,3.54306 -0.955328,1.20328 -2.412646,3.15091 -3.238487,4.32807 -2.178681,3.105514 -3.538732,4.353244 -6.87848,6.310444 -1.574604,0.92277 -3.363009,1.94243 -3.974234,2.26593 -0.611225,0.32349 -1.061573,0.68456 -1.000776,0.80238 0.165001,0.31975 2.64075,1.40601 3.683084,1.61599 0.804409,0.16206 0.832559,0.1855 0.24219,0.20171 -0.367408,0.0101 -1.226283,-0.22372 -1.908611,-0.51958 z m 36.418672,-0.0583 c 0.13778,-0.066 0.3024,-0.0579 0.36582,0.018 0.0634,0.076 -0.0493,0.12998 -0.2505,0.12006 -0.22235,-0.011 -0.26757,-0.0651 -0.11532,-0.1381 z m 7.46316,-3.4658 c -2.27052,-1.39939 -5.57955,-3.9425 -6.54541,-5.03039 -0.95898,-1.080174 -5.1107,-7.018754 -6.28631,-8.991904 -1.30629,-2.19248 -4.39256,-10.015199 -4.09287,-10.374119 0.0461,-0.05525 0.19302,0.337381 0.32642,0.872506 0.42436,1.702289 3.16287,8.235373 4.05057,9.663193 1.68355,2.70788 5.65604,8.272504 6.47788,9.074134 1.22043,1.19041 4.38118,3.53358 6.46766,4.79467 0.99724,0.60275 1.71999,1.0967 1.6061,1.09767 -0.11389,9.1e-4 -1.01571,-0.49662 -2.00404,-1.10576 z M 103.50053,77.999651 c -1.37688,-4.821941 -1.25945,-4.525097 -1.58199,-3.998997 -0.28427,0.463661 -0.33707,0.290673 -0.11543,-0.378194 0.0799,-0.241052 0.22147,-0.323776 0.36825,-0.215135 0.24863,0.184038 2.39127,7.279062 2.29667,7.605078 -0.0297,0.102435 -0.4651,-1.253305 -0.9675,-3.012752 z m -2.41309,-2.156866 c 0,-0.125721 0.12275,-0.485741 0.27277,-0.800045 0.15002,-0.314303 0.27276,-0.468597 0.27276,-0.342876 0,0.125721 -0.12274,0.485741 -0.27276,0.800045 -0.15002,0.314303 -0.27277,0.468598 -0.27277,0.342876 z"
       id="path181" /><path
       style="fill:#080808;stroke:none;stroke-width:0.208873"
       d="m 78.61443,114.71849 c -3.05454,5.19321 -8.43453,10.18663 -13.36027,12.5255 -1.77177,0.84142 -3.61377,1.69358 -5.53497,1.85496 -0.97015,0.0814 -2.20178,-0.23818 -2.77493,0.97789 -1.02664,2.17772 1.38469,2.94233 2.33881,3.91359 3.16028,3.21755 6.59883,4.47751 10.55175,5.64374 -3.78076,6.42802 -10.45136,9.27298 -16.41405,11.6578 -1.58758,0.63501 -6.5891,1.36853 -6.81908,3.65758 -0.18571,1.84924 1.28831,1.93702 2.23097,2.68289 1.79848,1.42339 3.283,3.44522 5.16069,4.87227 1.68302,1.27916 3.43932,3.14692 5.34411,3.87382 -2.75221,4.98794 -7.74457,8.3543 -12.40597,10.26823 -1.93113,0.79296 -6.29307,0.91502 -7.49282,3.01366 -1.54483,2.70255 2.6419,7.04176 4.05732,8.49556 0.72604,0.74541 2.31629,1.80124 1.3137,2.99765 -1.39386,1.66318 -3.25513,2.32059 -4.94006,3.41139 -3.51089,2.27282 -6.96948,4.6078 -10.49736,6.83696 -1.57714,0.99662 -4.84867,1.58569 -5.66441,3.60843 -1.25409,3.10943 2.34881,6.50139 3.54992,8.68506 1.99341,3.62397 5.2889,8.04433 8.79463,9.61174 3.84184,1.71735 9.45621,0.38287 12.97856,-1.83988 3.84776,9.85632 12.564,11.2404 19.84955,6.17178 1.75516,4.80895 7.24489,8.69945 11.64252,8.19017 2.6337,-0.30493 4.7263,-1.85542 7.06186,-3.16132 0,4.49762 -0.69187,8.71957 -1.77119,13.0293 -0.48898,1.95211 -1.45531,4.51454 -0.35614,6.39122 1.43603,2.44813 4.87153,2.41613 7.08972,2.53271 2.36744,0.12572 4.699,1.0012 7.06186,1.12463 2.53082,0.13258 5.13416,-0.53945 7.63444,-0.96691 1.81433,-0.31087 5.47695,-0.14401 6.48393,-2.45728 0.67527,-1.55209 -0.53193,-4.1968 -0.94877,-5.71003 -1.09726,-3.9824 -1.9088,-8.37053 -1.9088,-12.57214 4.60968,3.93028 11.73471,3.31699 16.79578,0.71342 1.52078,-0.78222 3.01866,-3.57415 4.58066,-3.80045 1.37325,-0.19886 3.53647,1.89222 4.77153,2.55855 2.14242,1.15595 4.76485,1.34727 7.06186,0.91799 3.59792,-0.67249 6.78378,-3.67906 9.27127,-6.6582 0.95831,-1.14795 2.12314,-3.57826 3.38015,-4.19201 0.72451,-0.35384 2.04164,0.4462 2.80833,0.56552 1.71698,0.26722 3.84375,0.27887 5.53497,-0.16595 5.33609,-1.40419 9.0178,-6.55625 11.6807,-11.88295 0.79684,-1.59415 2.5583,-4.43157 1.91949,-6.39693 -0.72222,-2.22161 -2.54418,-0.97674 -3.86628,-0.73787 -1.24078,0.22424 -2.77683,-0.008 -4.00808,-0.25442 -4.61349,-0.92302 -9.58084,-5.47596 -13.16941,-8.84369 -1.23697,-1.16075 -2.2264,-2.78416 -3.62636,-3.65392 2.94136,-2.39625 5.78061,-4.99914 8.09785,-8.22881 0.85544,-1.19229 2.40313,-2.52791 1.6019,-4.33327 -0.78979,-1.77953 -2.48959,-0.85056 -3.78306,-0.94588 -1.05336,-0.0775 -2.05996,-0.58403 -3.05378,-0.96805 -2.2075,-0.85308 -4.50107,-1.20533 -6.68014,-2.22619 -3.46928,-1.62546 -6.81908,-4.52505 -9.54305,-7.52773 2.20025,-1.23161 4.16459,-3.09823 6.29842,-4.50174 2.60353,-1.71278 4.50126,-4.14195 6.87844,-6.07554 1.15146,-0.93651 3.14119,-2.18778 1.62747,-4.22858 -1.45684,-1.964 -4.69461,0.72621 -6.5973,0.14058 -4.46825,-1.37493 -8.00586,-3.75335 -11.64253,-7.07674 -1.6729,-1.52877 -3.50707,-3.0068 -4.58066,-5.23092 3.65537,-1.69838 6.87806,-3.62809 10.11563,-6.22915 1.17456,-0.9436 3.35305,-1.82205 2.42031,-4.05303 -0.52735,-1.26133 -1.59331,-1.29607 -2.61117,-1.51597 -2.28174,-0.49283 -4.86562,-0.0978 -7.06186,-0.92142 -1.5391,-0.57718 -2.92113,-2.18161 -4.19894,-3.30784 -3.1599,-2.78462 -6.44614,-5.83759 -8.39789,-10.0312 2.93354,-1.14314 5.89398,-2.8157 8.39789,-4.94244 1.0358,-0.8796 2.64285,-1.56718 2.06359,-3.51174 -0.39375,-1.32213 -1.62308,-1.60649 -2.63618,-1.87942 -2.05939,-0.55455 -4.17222,-1.18224 -6.10755,-2.20698 -5.47409,-2.898216 -9.59936,-7.833356 -12.91003,-13.746596 -3.09062,-5.52008 -4.77478,-12.3751 -6.78741,-18.51533 -0.50769,-1.54911 -0.8478,-5.78935 -2.6335,-5.84215 -2.10768,-0.0622 -2.28346,3.7913 -3.08603,5.38499 -2.89498,5.74889 -5.08969,11.90649 -8.48568,17.3724 -3.38492,5.4483 -7.60391,11.63014 -12.85831,14.432576 -2.44474,1.30384 -4.91429,2.7837 -7.44358,3.83107 -1.01386,0.41968 -2.6295,0.22264 -3.10283,1.63323 -0.45788,1.36465 0.35672,2.61867 1.38527,3.09823 3.22173,1.50226 6.42305,4.09852 9.92458,4.66358 M 102.2812,72.658994 c 2.82208,11.90558 7.24528,23.95654 16.2232,30.937276 2.26819,1.76375 4.93032,3.70741 7.63444,4.26469 v 0.22859 c -2.87112,2.26778 -5.9438,3.37619 -9.35219,2.55831 -1.55056,-0.3719 -3.79222,-1.99211 -5.34411,-1.69952 -0.98046,0.18492 -1.87044,1.39116 -2.67206,2.03166 -1.87425,1.49722 -3.99358,2.70118 -6.29841,2.1832 -1.64809,-0.37053 -3.96839,-0.50974 -5.34335,-1.74318 -1.05126,-0.94268 -1.58548,-3.28338 -3.05454,-3.39448 -2.05519,-0.15543 -4.62762,2.01063 -6.68014,2.5302 -3.93994,0.99732 -9.00406,-0.22492 -12.59683,-2.23761 2.94709,-2.9133 7.20405,-3.41848 10.11564,-6.64951 4.25849,-4.725976 8.42041,-10.525386 11.48716,-16.437496 1.437,-2.77021 2.99385,-5.60442 4.29476,-8.45761 0.59701,-1.30979 0.84589,-2.92908 1.58643,-4.11452 m 35.50016,60.574816 v 0.22859 c -4.62895,2.46894 -8.59638,4.73741 -13.74199,4.07474 -2.06875,-0.2663 -3.43531,-3.06531 -5.53497,-2.65021 -1.27648,0.25213 -2.26209,1.78616 -3.24464,2.68084 -1.78207,1.62272 -4.37225,3.19584 -6.68014,2.94165 -2.17372,-0.23933 -3.9598,-1.31207 -5.72583,-2.80427 -0.97664,-0.82519 -1.94946,-2.3647 -3.24464,-2.3503 -1.32171,0.0146 -2.1073,1.29333 -3.24464,1.85336 -1.68339,0.82907 -4.10618,1.46842 -5.91669,1.70044 -2.47089,0.31681 -4.40813,-0.80233 -6.48928,-2.19944 -0.68862,-0.4622 -1.3135,-1.33585 -2.09947,-1.53769 -1.32877,-0.34127 -2.95415,1.24053 -4.3898,1.26156 -4.16078,0.0613 -9.30257,-1.34042 -12.97856,-3.65643 2.40791,-2.38025 6.01614,-3.13047 8.58875,-5.46317 2.5646,-2.32516 5.21146,-5.23412 7.42641,-8.02673 0.83291,-1.04989 1.53452,-3.16087 2.5707,-3.86719 0.56896,-0.38791 1.58243,-0.0178 2.218,-0.0155 1.24594,0.005 2.4184,-0.31613 3.62636,-0.65901 1.17456,-0.3335 3.02763,-1.65404 4.18119,-1.50523 0.92377,0.1191 1.83323,1.97657 2.68981,2.52723 2.02504,1.30224 5.5302,2.19258 7.8253,2.13932 1.84105,-0.0427 3.76283,-0.7157 5.34411,-1.81907 0.94438,-0.65878 2.18173,-2.08492 3.24464,-2.32836 0.68309,-0.15658 1.47555,0.49671 2.09947,0.7621 1.35912,0.57809 3.10493,0.37556 4.36175,1.05286 1.11425,0.60072 2.17391,4.12022 3.09901,5.3164 4.05332,5.24076 9.66063,12.18652 16.01515,12.34355 m -8.20702,8.91479 c 0.38764,3.09777 2.46249,5.06383 4.3898,6.90301 4.02717,3.84319 8.23566,7.14532 13.36028,8.41213 -0.81441,1.60741 -2.87017,2.45431 -4.19894,3.36476 -3.66473,2.51077 -7.21322,4.94908 -11.45167,5.90022 -1.22151,0.2743 -2.49284,-0.56803 -3.62636,-0.19841 -1.3116,0.42791 -2.07199,2.00011 -3.24464,2.74507 -2.50829,1.59323 -5.98979,2.03805 -8.77961,1.63277 -2.19051,-0.31841 -3.58819,-3.77209 -5.53497,-3.71975 -0.96843,0.0261 -1.80364,1.04143 -2.67205,1.46088 -2.37069,1.14521 -5.21357,2.65067 -7.82531,2.2031 -1.52288,-0.26104 -2.89135,-0.65078 -4.19894,-1.66204 -1.20242,-0.92988 -2.32507,-2.50391 -3.81722,-2.72746 -1.25797,-0.18836 -2.04241,1.09583 -3.05378,1.73289 -1.0986,0.69193 -2.59571,0.80508 -3.81722,0.90543 -3.94281,0.32321 -6.39308,-2.21796 -9.92478,-3.33893 -1.76775,-0.56118 -4.18863,0.59409 -6.10755,0.3479 -4.38389,-0.56232 -8.02342,-3.71175 -11.64253,-6.40447 -1.28583,-0.95686 -3.3038,-1.96263 -4.00808,-3.61346 5.63078,-1.59803 11.92443,-4.90633 16.223,-9.56191 1.43528,-1.55437 3.38492,-3.5026 4.00827,-5.75324 1.71527,0.006 3.43379,0.45694 5.15325,0.16001 0.88407,-0.15269 1.98706,-1.05377 2.86292,-0.86222 0.96557,0.21121 1.80211,1.5354 2.67206,2.07715 1.71698,1.06954 3.99987,1.41813 5.91669,1.36465 2.15978,-0.0601 4.79233,-1.07001 6.871,-1.80536 0.75275,-0.2663 1.69122,-1.24121 2.48119,-1.10064 1.06997,0.19064 2.30178,1.70821 3.24464,2.35465 1.92521,1.31962 4.23692,2.25407 6.48927,2.13109 2.44742,-0.13372 4.81066,-1.43985 6.871,-2.91696 0.79494,-0.56986 1.73894,-1.97543 2.67206,-2.11303 1.01252,-0.14927 2.58158,1.42248 3.62636,1.74432 2.11016,0.64987 4.91563,0.66107 7.06186,0.33785 M 62.5821,168.43583 c 1.98496,1.11183 4.47455,2.16012 6.68014,2.27692 1.69695,0.0896 3.74279,-0.63409 5.34411,-0.3575 1.0673,0.18424 2.21685,1.37676 3.24464,1.86365 2.10806,0.99868 4.60166,1.5834 6.871,1.46545 1.49425,-0.0777 3.15512,-0.2887 4.58066,-0.84805 0.78196,-0.30699 1.6603,-1.21149 2.4812,-1.24327 1.019,-0.0391 2.35274,1.65061 3.24464,2.21704 1.69618,1.07709 3.81035,1.62889 5.72583,1.70204 3.24845,0.12412 6.11996,-2.83399 9.16133,-2.88336 1.22342,-0.0197 2.48673,1.63506 3.62636,2.1544 1.87483,0.85399 3.93899,0.83342 5.91669,0.72987 2.10902,-0.11063 4.57647,-0.82176 6.48928,-1.89359 0.99629,-0.5582 1.83398,-1.65518 2.86291,-2.07737 1.00546,-0.4126 2.19949,-0.0151 3.24464,-0.24093 1.81795,-0.39248 3.53666,-1.45014 5.34411,-1.95097 0.87548,2.58072 2.58083,3.94674 4.38981,5.57129 4.91963,4.41876 10.15858,5.70066 15.84147,7.91518 -2.72283,4.53306 -7.63731,6.72404 -12.02425,7.59974 -1.466,0.29259 -4.42454,-0.41739 -5.53211,0.51912 -0.91842,0.7765 -1.345,2.04926 -2.01244,3.08177 -1.51868,2.34962 -3.47997,4.20778 -6.00659,4.53191 -1.29614,0.16641 -3.01808,0.26905 -4.19894,-0.48117 -1.75211,-1.11297 -2.30503,-3.22509 -4.58067,-2.36059 -1.55628,0.59135 -2.56937,2.76382 -3.81722,3.93531 -1.66793,1.56535 -5.1397,2.79467 -7.25272,2.58209 -2.62797,-0.26447 -4.17871,-4.49168 -6.68014,-4.70175 -1.15547,-0.0969 -2.18956,1.60672 -3.05377,2.33704 -1.63072,1.37791 -3.69603,2.52357 -5.72583,2.60495 -4.1415,0.16618 -6.40626,-4.32687 -10.11564,-5.37379 -1.24613,-0.35156 -2.22067,1.21996 -3.24464,1.80993 -1.49158,0.85925 -3.50917,1.23093 -5.15325,1.01949 -4.01476,-0.51614 -6.48145,-4.81261 -10.11564,-6.27921 -1.14764,-0.46334 -2.63235,-1.35871 -3.81722,-1.49106 -1.61869,-0.18103 -3.26143,0.68004 -4.96239,0.42997 -5.45404,-0.80233 -12.05058,-4.79432 -15.26888,-10.22091 7.2949,-2.47923 14.30542,-6.08355 18.51352,-13.94364 m 2.86292,27.65869 c 0.90506,1.36076 2.08592,1.97383 3.24464,2.95171 3.09748,2.61409 6.67059,5.80718 10.68822,5.48556 3.05148,-0.24458 5.07099,-1.70272 7.8253,-2.95125 3.18127,4.99708 8.76205,6.50208 13.55114,4.41282 1.48509,-0.64781 3.29254,-2.83627 4.77152,-3.03103 1.39081,-0.18332 3.6569,3.03857 5.15325,3.59655 4.08729,1.52443 10.80579,-1.87668 13.16942,-5.89268 1.32438,0.31911 2.3159,1.62501 3.62636,2.10892 3.04576,1.12464 7.08571,0.42083 9.73391,-1.67552 1.68989,-1.33767 3.07974,-4.68666 4.80665,-5.553 0.82833,-0.41533 2.11531,-0.24092 3.01866,-0.39636 2.07771,-0.35774 4.11897,-0.76599 6.10755,-1.57015 0.80601,3.29687 3.82142,5.71781 6.10755,7.54328 3.4523,2.75673 6.8983,5.82067 10.87909,7.42533 1.77787,0.71662 3.61281,0.41946 5.34411,1.03229 -1.56755,4.35133 -5.65923,9.79826 -9.92478,10.04856 -1.21827,0.0716 -2.61289,0.17739 -3.81722,-0.0654 -2.0781,-0.41877 -2.70145,-1.66729 -4.77153,-0.24116 -1.42554,0.982 -2.38099,2.7629 -3.46794,4.20161 -2.24758,2.97525 -5.57964,6.4111 -9.12889,6.60517 -2.69897,0.14744 -5.15649,-1.4746 -7.44358,-2.98051 -0.98122,-0.64598 -2.24701,-2.19944 -3.43474,-1.95668 -1.71164,0.34996 -3.2496,3.82216 -4.77229,4.96873 -2.14795,1.61724 -5.54012,1.82593 -8.01616,2.02915 -2.20941,0.18104 -4.16135,-0.50152 -5.9167,-2.15532 -1.01137,-0.95274 -1.92273,-2.76176 -3.24463,-3.10258 -1.31943,-0.34036 -2.65698,1.31162 -3.62637,2.12721 -1.61926,1.36282 -3.90998,2.80427 -5.91669,2.91353 -2.21551,0.12047 -4.38427,-0.0905 -6.29841,-1.5834 -1.4223,-1.10932 -2.6753,-3.63266 -4.58067,-3.61643 -1.02569,0.009 -2.18498,1.06177 -3.05378,1.64832 -2.05748,1.3891 -4.59249,3.29961 -7.06185,2.76861 -3.2267,-0.69421 -5.02194,-3.25024 -7.25254,-5.81678 -0.76363,-0.87845 -1.39271,-2.77319 -2.48214,-3.04657 -1.07837,-0.27065 -1.96282,1.18201 -2.86216,1.6618 -2.34931,1.2531 -6.07014,3.05389 -8.58874,1.83736 -2.17754,-1.05148 -4.25067,-3.87198 -5.50692,-6.18754 -0.63404,-1.16875 -0.34527,-2.65752 -1.55781,-3.38694 -1.1152,-0.67066 -2.45447,0.60187 -3.43263,1.15093 -1.98878,1.11663 -4.2961,1.8193 -6.48928,1.98685 -5.85123,0.44643 -9.98171,-6.99833 -12.97855,-12.09439 4.56215,-2.58598 8.92256,-5.51254 13.36027,-8.38699 2.65297,-1.71849 5.61571,-2.93182 7.44358,-6.01382 5.86058,2.06457 10.4569,6.1288 16.79578,3.20018 z"
       id="path188" /></g></svg>
